<svg xmlns="http://www.w3.org/2000/svg" xmlns:xlink="http://www.w3.org/1999/xlink" width="1080" zoomAndPan="magnify" viewBox="0 0 810 809.999993" height="1080" preserveAspectRatio="xMidYMid meet" version="1.0"><path fill="#000000" d="M 779.902344 369.574219 C 789.503906 367.476562 798.515625 375.007812 798.140625 384.820312 C 796.898438 418.28125 773.238281 447.972656 739.003906 455.429688 C 704.765625 462.894531 670.90625 445.753906 655.84375 415.832031 C 651.425781 407.0625 656.484375 396.46875 666.085938 394.371094 C 672.738281 392.917969 679.601562 396.078125 682.652344 402.167969 C 691.664062 420.1875 712.019531 430.515625 732.601562 426.035156 C 753.183594 421.542969 767.390625 403.671875 768.082031 383.542969 C 768.320312 376.738281 773.238281 371.003906 779.890625 369.5625 Z M 779.902344 369.574219 " fill-opacity="1" fill-rule="nonzero"/><path fill="#000000" d="M 722.925781 467.226562 C 691.261719 467.226562 661.554688 449.542969 646.871094 420.375 C 643.355469 413.398438 643.269531 405.355469 646.632812 398.3125 C 649.996094 391.261719 656.308594 386.265625 663.9375 384.597656 C 675.144531 382.148438 686.53125 387.546875 691.625 397.710938 C 698.792969 412.054688 714.769531 419.6875 730.457031 416.261719 C 746.144531 412.832031 757.488281 399.253906 758.042969 383.226562 C 758.429688 371.871094 766.539062 362.21875 777.746094 359.773438 L 779.878906 369.585938 L 777.746094 359.773438 C 785.375 358.117188 793.195312 360.035156 799.179688 365.042969 C 805.167969 370.050781 808.441406 377.40625 808.15625 385.210938 C 806.710938 424.054688 779.152344 456.972656 741.125 465.253906 C 735.050781 466.585938 728.9375 467.226562 722.914062 467.226562 Z M 669.335938 404.085938 C 668.972656 404.085938 668.59375 404.125 668.21875 404.210938 C 666.136719 404.664062 665.15625 406.121094 664.765625 406.949219 C 664.378906 407.777344 663.851562 409.445312 664.816406 411.339844 C 678.171875 437.871094 707.800781 451.964844 736.867188 445.640625 C 765.9375 439.300781 787.007812 414.152344 788.113281 384.472656 C 788.1875 382.335938 787.019531 381.042969 786.316406 380.453125 C 785.613281 379.863281 784.132812 378.949219 782.039062 379.402344 C 779.804688 379.890625 778.199219 381.746094 778.121094 383.917969 C 777.257812 409.132812 759.421875 430.503906 734.734375 435.875 C 710.0625 441.246094 684.949219 429.25 673.664062 406.683594 C 672.851562 405.066406 671.167969 404.085938 669.335938 404.085938 Z M 669.335938 404.085938 " fill-opacity="1" fill-rule="nonzero"/><path fill="#000000" d="M 403.179688 567.640625 L 355.050781 638.824219 C 350.644531 645.335938 341.371094 646.164062 335.875 640.542969 L 265.328125 568.304688 C 260.671875 563.535156 252.601562 565.695312 250.933594 572.144531 L 239.035156 618.242188 C 236.789062 626.925781 230.113281 633.777344 221.476562 636.226562 C 202.929688 641.484375 185.570312 624.828125 190.050781 606.078125 L 205.839844 539.902344 C 211.300781 517.039062 234.191406 502.867188 257.082031 508.164062 C 267.363281 510.546875 276.398438 516.636719 282.445312 525.28125 L 337.980469 594.246094 L 373.964844 553.59375 " fill-opacity="1" fill-rule="nonzero"/><path fill="#000000" d="M 344.734375 654.335938 C 338.710938 654.335938 332.949219 651.925781 328.695312 647.570312 L 259.996094 577.226562 L 248.761719 620.761719 C 245.636719 632.863281 236.238281 642.488281 224.214844 645.886719 C 212.039062 649.339844 199.3125 646.164062 190.175781 637.40625 C 181.039062 628.644531 177.335938 616.070312 180.273438 603.757812 L 196.0625 537.582031 C 202.777344 509.445312 231.152344 491.863281 259.34375 498.398438 C 271.941406 501.324219 282.972656 508.714844 290.453125 519.246094 L 338.332031 578.695312 L 366.445312 546.957031 C 370.125 542.800781 376.472656 542.414062 380.617188 546.089844 C 384.769531 549.769531 385.160156 556.105469 381.480469 560.257812 L 345.488281 600.910156 C 343.527344 603.117188 340.707031 604.347656 337.730469 604.285156 C 334.78125 604.210938 331.996094 602.84375 330.152344 600.546875 L 274.617188 531.582031 C 274.476562 531.40625 274.339844 531.230469 274.214844 531.042969 C 269.570312 524.417969 262.679688 519.773438 254.8125 517.941406 C 237.339844 513.886719 219.757812 524.78125 215.589844 542.226562 L 199.804688 608.402344 C 198.535156 613.710938 200.128906 619.121094 204.070312 622.898438 C 208.011719 626.675781 213.484375 628.03125 218.726562 626.550781 C 223.910156 625.082031 227.964844 620.9375 229.308594 615.71875 L 241.207031 569.621094 C 242.875 563.132812 247.945312 558.027344 254.421875 556.304688 C 260.898438 554.574219 267.824219 556.480469 272.507812 561.277344 L 343.050781 633.515625 C 343.703125 634.179688 344.457031 634.265625 344.960938 634.21875 C 345.472656 634.167969 346.1875 633.953125 346.714844 633.175781 L 394.847656 561.992188 C 397.945312 557.398438 404.195312 556.195312 408.789062 559.292969 C 413.382812 562.394531 414.589844 568.644531 411.488281 573.238281 L 363.359375 644.421875 C 359.554688 650.03125 353.507812 653.605469 346.765625 654.210938 C 346.089844 654.273438 345.410156 654.296875 344.734375 654.296875 Z M 344.734375 654.335938 " fill-opacity="1" fill-rule="nonzero"/><path fill="#d82e46" d="M 271.664062 159.109375 C 339.386719 154.742188 555.253906 81.664062 664.515625 292.730469 C 698.214844 355.191406 694.914062 429.011719 655.742188 488.75 C 613.535156 553.132812 536.203125 591.296875 454.121094 588.273438 C 378.128906 585.472656 312.707031 538.421875 291.847656 471.605469 C 275.984375 420.765625 286.398438 366.085938 320.136719 323.125 C 320.761719 322.324219 321.378906 321.519531 321.992188 320.703125 C 356.78125 274.355469 344.734375 208.105469 296.589844 175.824219 L 271.652344 159.109375 Z M 271.664062 159.109375 " fill-opacity="1" fill-rule="nonzero"/><path fill="#000000" d="M 463.234375 598.472656 C 460.085938 598.472656 456.933594 598.410156 453.757812 598.300781 C 373.347656 595.324219 304.433594 545.613281 282.269531 474.59375 C 274 448.074219 272.355469 419.699219 277.539062 392.527344 C 282.710938 365.40625 294.707031 339.253906 312.253906 316.925781 C 312.832031 316.1875 313.410156 315.433594 313.984375 314.679688 C 328.933594 294.773438 334.84375 270.175781 330.640625 245.429688 C 326.421875 220.554688 311.976562 198.226562 291.019531 184.171875 L 241.53125 150.988281 L 271.027344 149.09375 C 280.3125 148.492188 293.078125 146.445312 307.835938 144.085938 C 352.527344 136.921875 420.0625 126.101562 487.71875 140.398438 C 569.082031 157.578125 631.546875 207.25 673.402344 288.046875 C 690.773438 320.277344 699.105469 356.296875 697.5 392.214844 C 695.890625 428.15625 684.359375 463.4375 664.152344 494.257812 C 621.632812 559.105469 545.289062 598.488281 463.234375 598.488281 Z M 299.566406 165.722656 L 302.203125 167.492188 C 327.714844 184.597656 345.300781 211.78125 350.445312 242.066406 C 355.578125 272.3125 348.335938 302.367188 330.050781 326.726562 C 329.398438 327.605469 328.734375 328.460938 328.054688 329.324219 C 296.191406 369.898438 286.488281 420.664062 301.449219 468.617188 C 321.078125 531.53125 382.585938 575.582031 454.5 578.242188 C 533.140625 581.117188 607.035156 544.746094 647.347656 483.253906 C 684.632812 426.386719 687.746094 356.949219 655.679688 297.511719 L 655.605469 297.359375 C 565.429688 123.164062 399.929688 149.683594 311.011719 163.929688 C 307.046875 164.554688 303.230469 165.171875 299.566406 165.746094 Z M 299.566406 165.722656 " fill-opacity="1" fill-rule="nonzero"/><path fill="#d82e46" d="M 479.664062 525.132812 L 563.648438 470.953125 C 571.332031 465.996094 581.632812 469.335938 584.949219 477.867188 L 627.429688 587.355469 C 630.230469 594.585938 639.855469 595.964844 644.574219 589.828125 L 678.347656 545.941406 C 684.710938 537.667969 694.988281 533.402344 705.34375 534.71875 C 727.582031 537.570312 738.550781 563.296875 725.195312 581.304688 L 678.097656 644.886719 C 661.816406 666.859375 630.867188 671.566406 608.792969 655.441406 C 598.890625 648.199219 592 637.554688 589.476562 625.546875 L 561.554688 526.425781 L 504.5 553.46875 " fill-opacity="1" fill-rule="nonzero"/><path fill="#000000" d="M 638.035156 675.003906 C 625.796875 675.003906 613.460938 671.277344 602.882812 663.546875 C 591.046875 654.898438 582.839844 642.273438 579.738281 627.96875 L 555.128906 540.59375 L 508.816406 562.542969 C 503.808594 564.914062 497.824219 562.78125 495.4375 557.773438 C 493.066406 552.765625 495.199219 546.78125 500.207031 544.394531 L 557.261719 517.351562 C 559.933594 516.082031 563.023438 516.058594 565.71875 517.289062 C 568.40625 518.503906 570.425781 520.863281 571.230469 523.699219 L 599.15625 622.820312 C 599.21875 623.035156 599.265625 623.25 599.316406 623.472656 C 601.339844 633.074219 606.824219 641.546875 614.730469 647.332031 C 632.289062 660.15625 657.097656 656.378906 670.039062 638.910156 L 717.140625 575.332031 C 721.269531 569.761719 722.109375 562.632812 719.386719 556.257812 C 716.664062 549.878906 710.941406 545.550781 704.074219 544.671875 C 697.296875 543.804688 690.484375 546.628906 686.316406 552.050781 L 652.542969 595.9375 C 648.152344 601.648438 640.984375 604.546875 633.867188 603.53125 C 626.742188 602.503906 620.691406 597.695312 618.082031 590.980469 L 575.597656 481.496094 C 574.945312 479.800781 573.601562 479.136719 572.847656 478.898438 C 572.109375 478.660156 570.628906 478.394531 569.097656 479.386719 L 485.109375 533.566406 C 480.453125 536.578125 474.242188 535.234375 471.230469 530.566406 C 468.230469 525.910156 469.558594 519.699219 474.230469 516.6875 L 558.214844 462.507812 C 564.429688 458.503906 572.019531 457.511719 579.050781 459.796875 C 586.078125 462.082031 591.636719 467.339844 594.308594 474.230469 L 636.730469 583.550781 L 670.402344 539.804688 C 678.910156 528.746094 692.804688 522.972656 706.636719 524.753906 C 720.65625 526.550781 732.328125 535.386719 737.875 548.386719 C 743.421875 561.390625 741.703125 575.933594 733.292969 587.28125 L 686.191406 650.859375 C 674.507812 666.632812 656.382812 675.003906 638.046875 675.003906 Z M 638.035156 675.003906 " fill-opacity="1" fill-rule="nonzero"/><path fill="#ffffff" d="M 697.007812 267.527344 C 708.054688 296.507812 689.929688 332.976562 674.054688 339.039062 C 658.179688 345.101562 636.339844 326.515625 625.285156 297.546875 C 614.238281 268.570312 618.15625 240.183594 634.03125 234.121094 C 649.90625 228.058594 685.953125 238.550781 697.007812 267.527344 Z M 697.007812 267.527344 " fill-opacity="1" fill-rule="nonzero"/><path fill="#000000" d="M 667.640625 350.246094 C 659.070312 350.246094 650.019531 346.445312 641.347656 339.066406 C 630.882812 330.152344 621.84375 316.675781 615.910156 301.113281 C 609.972656 285.550781 607.738281 269.472656 609.621094 255.855469 C 611.792969 240.082031 619.195312 229.023438 630.46875 224.734375 C 641.222656 220.628906 656.910156 222.074219 671.40625 228.5 C 688.074219 235.890625 700.5 248.476562 706.398438 263.941406 C 714.328125 284.746094 708.945312 305.128906 705.015625 315.433594 C 698.828125 331.683594 688.335938 344.324219 677.632812 348.402344 C 674.417969 349.632812 671.066406 350.234375 667.640625 350.234375 Z M 644.398438 242.492188 C 641.597656 242.492188 639.265625 242.867188 637.609375 243.496094 C 633.628906 245.015625 630.59375 250.660156 629.5 258.605469 C 628.09375 268.796875 629.976562 281.6875 634.660156 293.960938 C 639.339844 306.246094 646.519531 317.113281 654.351562 323.765625 C 660.460938 328.960938 666.488281 331.15625 670.464844 329.640625 C 674.910156 327.945312 681.761719 320.0625 686.242188 308.292969 C 691.1875 295.300781 691.6875 281.75 687.621094 271.09375 C 682.25 257.023438 670.050781 249.871094 663.261719 246.859375 C 656.195312 243.722656 649.507812 242.492188 644.398438 242.492188 Z M 644.398438 242.492188 " fill-opacity="1" fill-rule="nonzero"/><path fill="#ffffff" d="M 583.289062 274.65625 C 596.554688 309.445312 574.792969 353.257812 555.71875 360.523438 C 536.640625 367.804688 510.421875 345.492188 497.15625 310.703125 C 483.890625 275.914062 488.585938 241.8125 507.664062 234.535156 C 526.738281 227.257812 570.011719 239.855469 583.277344 274.65625 Z M 583.289062 274.65625 " fill-opacity="1" fill-rule="nonzero"/><path fill="#000000" d="M 548.035156 371.972656 C 538.210938 371.972656 527.792969 367.578125 517.753906 359.03125 C 505.429688 348.539062 494.785156 332.652344 487.769531 314.277344 C 480.765625 295.90625 478.121094 276.953125 480.328125 260.925781 C 482.839844 242.742188 491.273438 230.042969 504.074219 225.160156 C 528.472656 215.847656 577.503906 231.371094 592.652344 271.082031 C 601.941406 295.441406 595.601562 319.375 590.996094 331.484375 C 583.769531 350.484375 571.621094 365.207031 559.28125 369.914062 C 555.667969 371.292969 551.890625 371.96875 548.023438 371.96875 Z M 520.085938 242.542969 C 516.660156 242.542969 513.636719 243.007812 511.238281 243.910156 C 505.679688 246.03125 501.664062 253.234375 500.234375 263.664062 C 498.5 276.226562 500.796875 292.0625 506.546875 307.113281 C 512.292969 322.171875 521.117188 335.511719 530.78125 343.734375 C 538.800781 350.558594 546.582031 353.257812 552.152344 351.136719 C 557.914062 348.941406 566.675781 339.027344 572.257812 324.332031 C 578.371094 308.277344 578.972656 291.472656 573.914062 278.222656 C 564.742188 254.164062 537.320312 242.542969 520.101562 242.542969 Z M 520.085938 242.542969 " fill-opacity="1" fill-rule="nonzero"/><path fill="#000000" d="M 596.378906 290.421875 C 596.378906 291.59375 596.324219 292.769531 596.207031 293.9375 C 596.09375 295.105469 595.921875 296.269531 595.691406 297.421875 C 595.460938 298.574219 595.175781 299.710938 594.835938 300.835938 C 594.492188 301.960938 594.097656 303.066406 593.648438 304.152344 C 593.199219 305.238281 592.695312 306.296875 592.144531 307.335938 C 591.589844 308.371094 590.984375 309.378906 590.332031 310.355469 C 589.679688 311.332031 588.980469 312.273438 588.234375 313.183594 C 587.488281 314.089844 586.703125 314.960938 585.871094 315.792969 C 585.039062 316.621094 584.171875 317.410156 583.261719 318.15625 C 582.351562 318.902344 581.410156 319.601562 580.433594 320.253906 C 579.457031 320.90625 578.449219 321.511719 577.414062 322.0625 C 576.375 322.617188 575.316406 323.121094 574.230469 323.570312 C 573.144531 324.019531 572.039062 324.414062 570.914062 324.757812 C 569.789062 325.097656 568.652344 325.382812 567.5 325.613281 C 566.347656 325.839844 565.183594 326.011719 564.015625 326.128906 C 562.847656 326.242188 561.675781 326.300781 560.5 326.300781 C 559.324219 326.300781 558.152344 326.242188 556.980469 326.128906 C 555.8125 326.011719 554.652344 325.839844 553.5 325.613281 C 552.347656 325.382812 551.207031 325.097656 550.082031 324.757812 C 548.957031 324.414062 547.851562 324.019531 546.765625 323.570312 C 545.683594 323.121094 544.621094 322.617188 543.585938 322.0625 C 542.546875 321.511719 541.542969 320.90625 540.5625 320.253906 C 539.585938 319.601562 538.644531 318.902344 537.734375 318.15625 C 536.828125 317.410156 535.957031 316.621094 535.125 315.792969 C 534.296875 314.960938 533.507812 314.089844 532.761719 313.183594 C 532.015625 312.273438 531.316406 311.332031 530.664062 310.355469 C 530.011719 309.378906 529.410156 308.371094 528.855469 307.335938 C 528.300781 306.296875 527.796875 305.238281 527.347656 304.152344 C 526.898438 303.066406 526.503906 301.960938 526.164062 300.835938 C 525.820312 299.710938 525.535156 298.574219 525.308594 297.421875 C 525.078125 296.269531 524.90625 295.105469 524.789062 293.9375 C 524.675781 292.769531 524.617188 291.59375 524.617188 290.421875 C 524.617188 289.246094 524.675781 288.074219 524.789062 286.902344 C 524.90625 285.734375 525.078125 284.574219 525.308594 283.421875 C 525.535156 282.269531 525.820312 281.128906 526.164062 280.003906 C 526.503906 278.878906 526.898438 277.773438 527.347656 276.6875 C 527.796875 275.605469 528.300781 274.542969 528.855469 273.507812 C 529.410156 272.46875 530.011719 271.464844 530.664062 270.484375 C 531.316406 269.507812 532.015625 268.566406 532.761719 267.65625 C 533.507812 266.75 534.296875 265.878906 535.125 265.046875 C 535.957031 264.21875 536.828125 263.429688 537.734375 262.683594 C 538.644531 261.9375 539.585938 261.238281 540.5625 260.585938 C 541.542969 259.933594 542.546875 259.332031 543.585938 258.777344 C 544.621094 258.222656 545.683594 257.722656 546.765625 257.269531 C 547.851562 256.820312 548.957031 256.425781 550.082031 256.085938 C 551.207031 255.742188 552.347656 255.457031 553.5 255.230469 C 554.652344 255 555.8125 254.828125 556.984375 254.710938 C 558.152344 254.597656 559.324219 254.539062 560.5 254.539062 C 561.675781 254.539062 562.847656 254.597656 564.015625 254.710938 C 565.183594 254.828125 566.347656 255 567.5 255.230469 C 568.652344 255.457031 569.789062 255.742188 570.914062 256.085938 C 572.039062 256.425781 573.144531 256.820312 574.230469 257.269531 C 575.316406 257.71875 576.375 258.222656 577.414062 258.777344 C 578.449219 259.332031 579.457031 259.933594 580.433594 260.585938 C 581.410156 261.238281 582.355469 261.9375 583.261719 262.683594 C 584.171875 263.429688 585.039062 264.21875 585.871094 265.046875 C 586.703125 265.878906 587.488281 266.75 588.234375 267.65625 C 588.980469 268.566406 589.679688 269.507812 590.332031 270.484375 C 590.984375 271.464844 591.589844 272.46875 592.144531 273.507812 C 592.695312 274.542969 593.199219 275.605469 593.648438 276.6875 C 594.097656 277.773438 594.492188 278.878906 594.835938 280.003906 C 595.175781 281.128906 595.460938 282.269531 595.691406 283.421875 C 595.921875 284.574219 596.09375 285.734375 596.207031 286.902344 C 596.324219 288.074219 596.378906 289.246094 596.378906 290.421875 Z M 596.378906 290.421875 " fill-opacity="1" fill-rule="nonzero"/><path fill="#000000" d="M 707.324219 279.613281 C 707.324219 280.570312 707.277344 281.523438 707.183594 282.472656 C 707.089844 283.425781 706.949219 284.367188 706.765625 285.304688 C 706.578125 286.242188 706.347656 287.167969 706.070312 288.082031 C 705.792969 288.996094 705.46875 289.894531 705.105469 290.777344 C 704.738281 291.660156 704.332031 292.519531 703.882812 293.363281 C 703.429688 294.207031 702.941406 295.023438 702.410156 295.820312 C 701.878906 296.613281 701.3125 297.378906 700.707031 298.117188 C 700.097656 298.855469 699.457031 299.5625 698.78125 300.238281 C 698.105469 300.914062 697.402344 301.554688 696.660156 302.160156 C 695.921875 302.765625 695.15625 303.335938 694.363281 303.867188 C 693.570312 304.394531 692.75 304.886719 691.90625 305.335938 C 691.066406 305.789062 690.203125 306.195312 689.320312 306.5625 C 688.4375 306.925781 687.539062 307.246094 686.625 307.523438 C 685.710938 307.800781 684.785156 308.035156 683.847656 308.21875 C 682.910156 308.40625 681.96875 308.546875 681.019531 308.640625 C 680.066406 308.734375 679.113281 308.78125 678.160156 308.78125 C 677.203125 308.78125 676.25 308.734375 675.300781 308.640625 C 674.347656 308.546875 673.40625 308.40625 672.46875 308.21875 C 671.53125 308.035156 670.605469 307.800781 669.691406 307.523438 C 668.777344 307.246094 667.878906 306.925781 666.996094 306.5625 C 666.113281 306.195312 665.25 305.789062 664.410156 305.335938 C 663.566406 304.886719 662.75 304.394531 661.953125 303.867188 C 661.160156 303.335938 660.394531 302.765625 659.65625 302.160156 C 658.917969 301.554688 658.210938 300.914062 657.535156 300.238281 C 656.859375 299.5625 656.21875 298.855469 655.613281 298.117188 C 655.003906 297.378906 654.4375 296.613281 653.90625 295.820312 C 653.375 295.023438 652.886719 294.207031 652.433594 293.363281 C 651.984375 292.519531 651.578125 291.660156 651.210938 290.777344 C 650.84375 289.894531 650.523438 288.996094 650.246094 288.082031 C 649.96875 287.167969 649.738281 286.242188 649.550781 285.304688 C 649.367188 284.367188 649.226562 283.425781 649.132812 282.472656 C 649.039062 281.523438 648.992188 280.570312 648.992188 279.613281 C 648.992188 278.660156 649.039062 277.707031 649.132812 276.757812 C 649.226562 275.804688 649.367188 274.863281 649.550781 273.925781 C 649.738281 272.988281 649.96875 272.0625 650.246094 271.148438 C 650.523438 270.234375 650.84375 269.335938 651.210938 268.453125 C 651.578125 267.570312 651.984375 266.707031 652.433594 265.867188 C 652.886719 265.023438 653.375 264.203125 653.90625 263.410156 C 654.4375 262.617188 655.003906 261.851562 655.613281 261.113281 C 656.21875 260.375 656.859375 259.667969 657.535156 258.992188 C 658.210938 258.316406 658.917969 257.675781 659.65625 257.070312 C 660.394531 256.460938 661.160156 255.894531 661.953125 255.363281 C 662.75 254.832031 663.566406 254.34375 664.410156 253.890625 C 665.25 253.441406 666.113281 253.035156 666.996094 252.667969 C 667.878906 252.304688 668.777344 251.980469 669.691406 251.703125 C 670.605469 251.425781 671.53125 251.195312 672.46875 251.007812 C 673.40625 250.824219 674.347656 250.683594 675.300781 250.589844 C 676.25 250.496094 677.203125 250.449219 678.160156 250.449219 C 679.113281 250.449219 680.066406 250.496094 681.019531 250.589844 C 681.96875 250.683594 682.910156 250.824219 683.847656 251.007812 C 684.785156 251.195312 685.710938 251.425781 686.625 251.703125 C 687.539062 251.980469 688.4375 252.304688 689.320312 252.667969 C 690.203125 253.035156 691.066406 253.441406 691.90625 253.890625 C 692.75 254.34375 693.570312 254.832031 694.363281 255.363281 C 695.15625 255.894531 695.921875 256.460938 696.660156 257.070312 C 697.402344 257.675781 698.105469 258.316406 698.78125 258.992188 C 699.457031 259.667969 700.097656 260.375 700.707031 261.113281 C 701.3125 261.851562 701.878906 262.617188 702.410156 263.410156 C 702.941406 264.203125 703.429688 265.023438 703.882812 265.867188 C 704.332031 266.707031 704.738281 267.570312 705.105469 268.453125 C 705.46875 269.335938 705.792969 270.234375 706.070312 271.148438 C 706.347656 272.0625 706.578125 272.988281 706.765625 273.925781 C 706.949219 274.863281 707.089844 275.804688 707.183594 276.757812 C 707.277344 277.707031 707.324219 278.660156 707.324219 279.613281 Z M 707.324219 279.613281 " fill-opacity="1" fill-rule="nonzero"/><path fill="#000000" d="M 620.703125 428.773438 C 609.359375 428.773438 597.824219 424.792969 587.179688 417.0625 L 584.332031 414.992188 C 579.839844 411.730469 578.847656 405.453125 582.109375 400.972656 C 585.375 396.492188 591.648438 395.488281 596.128906 398.753906 L 598.976562 400.824219 C 608.855469 407.988281 619.460938 410.363281 628.859375 407.488281 C 638.5625 404.511719 646.332031 396.21875 650.722656 384.132812 C 652.617188 378.921875 658.378906 376.238281 663.585938 378.121094 C 668.796875 380.015625 671.496094 385.777344 669.597656 390.984375 C 662.996094 409.144531 650.621094 421.820312 634.746094 426.675781 C 630.167969 428.082031 625.460938 428.773438 620.714844 428.773438 Z M 620.703125 428.773438 " fill-opacity="1" fill-rule="nonzero"/><path fill="#d82e46" d="M 362.617188 376.691406 C 338.9375 335.125 289.351562 313.148438 241.054688 326.300781 C 192.761719 339.464844 161.1875 383.554688 161.863281 431.394531 C 162.0625 445.4375 175.46875 455.515625 189.007812 451.828125 C 198.398438 449.265625 205.011719 440.734375 204.835938 431.007812 C 204.347656 402.230469 223.308594 375.671875 252.351562 367.765625 C 281.390625 359.847656 311.210938 373.113281 325.382812 398.164062 " fill-opacity="1" fill-rule="nonzero"/><path fill="#000000" d="M 183.285156 462.644531 C 176.546875 462.644531 169.945312 460.472656 164.386719 456.28125 C 156.542969 450.371094 151.960938 441.359375 151.824219 431.546875 C 151.058594 377.980469 186.664062 330.71875 238.421875 316.613281 C 290.164062 302.507812 344.835938 325.171875 371.351562 371.707031 C 374.101562 376.527344 372.421875 382.652344 367.601562 385.398438 C 362.78125 388.148438 356.65625 386.464844 353.910156 381.648438 C 331.921875 343.066406 286.613281 324.28125 243.703125 335.976562 C 200.792969 347.675781 171.277344 386.84375 171.902344 431.246094 C 171.953125 434.808594 173.621094 438.085938 176.472656 440.230469 C 179.320312 442.378906 182.933594 443.066406 186.375 442.136719 C 191.417969 440.757812 194.894531 436.253906 194.808594 431.167969 C 194.230469 397.097656 216.808594 367.039062 249.714844 358.066406 C 282.632812 349.09375 317.347656 363.550781 334.128906 393.191406 C 336.863281 398.023438 335.15625 404.148438 330.339844 406.871094 C 325.507812 409.609375 319.382812 407.902344 316.660156 403.082031 C 304.398438 381.433594 279.046875 370.878906 255 377.429688 C 230.953125 383.980469 214.460938 405.933594 214.886719 430.820312 C 215.125 445.089844 205.574219 457.699219 191.65625 461.503906 C 188.882812 462.257812 186.074219 462.632812 183.300781 462.632812 Z M 183.285156 462.644531 " fill-opacity="1" fill-rule="nonzero"/><path fill="#000000" d="M 193.140625 192.355469 L 68.890625 192.355469 C 63.34375 192.355469 58.851562 187.859375 58.851562 182.3125 C 58.851562 176.765625 63.34375 172.273438 68.890625 172.273438 L 193.140625 172.273438 C 198.6875 172.273438 203.179688 176.765625 203.179688 182.3125 C 203.179688 187.859375 198.6875 192.355469 193.140625 192.355469 Z M 193.140625 192.355469 " fill-opacity="1" fill-rule="nonzero"/><path fill="#000000" d="M 204.433594 158.46875 L 147.957031 158.46875 C 142.410156 158.46875 137.917969 153.976562 137.917969 148.429688 C 137.917969 142.882812 142.410156 138.386719 147.957031 138.386719 L 204.433594 138.386719 C 209.980469 138.386719 214.472656 142.882812 214.472656 148.429688 C 214.472656 153.976562 209.980469 158.46875 204.433594 158.46875 Z M 204.433594 158.46875 " fill-opacity="1" fill-rule="nonzero"/><path fill="#000000" d="M 249.617188 226.238281 L 181.84375 226.238281 C 176.296875 226.238281 171.804688 221.746094 171.804688 216.199219 C 171.804688 210.652344 176.296875 206.160156 181.84375 206.160156 L 249.617188 206.160156 C 255.164062 206.160156 259.65625 210.652344 259.65625 216.199219 C 259.65625 221.746094 255.164062 226.238281 249.617188 226.238281 Z M 249.617188 226.238281 " fill-opacity="1" fill-rule="nonzero"/><path fill="#000000" d="M 114.070312 158.46875 L 102.777344 158.46875 C 97.230469 158.46875 92.734375 153.976562 92.734375 148.429688 C 92.734375 142.882812 97.230469 138.386719 102.777344 138.386719 L 114.070312 138.386719 C 119.617188 138.386719 124.113281 142.882812 124.113281 148.429688 C 124.113281 153.976562 119.617188 158.46875 114.070312 158.46875 Z M 114.070312 158.46875 " fill-opacity="1" fill-rule="nonzero"/><path fill="#000000" d="M 80.1875 361.78125 L 35.003906 361.78125 C 29.457031 361.78125 24.964844 357.289062 24.964844 351.738281 C 24.964844 346.191406 29.457031 341.699219 35.003906 341.699219 L 80.1875 341.699219 C 85.734375 341.699219 90.226562 346.191406 90.226562 351.738281 C 90.226562 357.289062 85.734375 361.78125 80.1875 361.78125 Z M 80.1875 361.78125 " fill-opacity="1" fill-rule="nonzero"/><path fill="#000000" d="M 125.367188 395.664062 L 68.890625 395.664062 C 63.34375 395.664062 58.851562 391.171875 58.851562 385.625 C 58.851562 380.078125 63.34375 375.585938 68.890625 375.585938 L 125.367188 375.585938 C 130.914062 375.585938 135.40625 380.078125 135.40625 385.625 C 135.40625 391.171875 130.914062 395.664062 125.367188 395.664062 Z M 125.367188 395.664062 " fill-opacity="1" fill-rule="nonzero"/><path fill="#000000" d="M 159.253906 327.894531 L 12.414062 327.894531 C 6.867188 327.894531 2.375 323.402344 2.375 317.855469 C 2.375 312.308594 6.867188 307.816406 12.414062 307.816406 L 159.253906 307.816406 C 164.800781 307.816406 169.292969 312.308594 169.292969 317.855469 C 169.292969 323.402344 164.800781 327.894531 159.253906 327.894531 Z M 159.253906 327.894531 " fill-opacity="1" fill-rule="nonzero"/><path fill="#000000" d="M 125.367188 361.78125 L 114.070312 361.78125 C 108.523438 361.78125 104.03125 357.289062 104.03125 351.738281 C 104.03125 346.191406 108.523438 341.699219 114.070312 341.699219 L 125.367188 341.699219 C 130.914062 341.699219 135.40625 346.191406 135.40625 351.738281 C 135.40625 357.289062 130.914062 361.78125 125.367188 361.78125 Z M 125.367188 361.78125 " fill-opacity="1" fill-rule="nonzero"/><path fill="#000000" d="M 136.664062 598.976562 L 80.1875 598.976562 C 74.636719 598.976562 70.144531 594.484375 70.144531 588.9375 C 70.144531 583.390625 74.636719 578.898438 80.1875 578.898438 L 136.664062 578.898438 C 142.210938 578.898438 146.703125 583.390625 146.703125 588.9375 C 146.703125 594.484375 142.210938 598.976562 136.664062 598.976562 Z M 136.664062 598.976562 " fill-opacity="1" fill-rule="nonzero"/><path fill="#000000" d="M 147.957031 565.089844 L 102.777344 565.089844 C 97.230469 565.089844 92.734375 560.597656 92.734375 555.050781 C 92.734375 549.503906 97.230469 545.011719 102.777344 545.011719 L 147.957031 545.011719 C 153.503906 545.011719 157.996094 549.503906 157.996094 555.050781 C 157.996094 560.597656 153.503906 565.089844 147.957031 565.089844 Z M 147.957031 565.089844 " fill-opacity="1" fill-rule="nonzero"/><path fill="#000000" d="M 68.890625 565.089844 L 57.59375 565.089844 C 52.046875 565.089844 47.554688 560.597656 47.554688 555.050781 C 47.554688 549.503906 52.046875 545.011719 57.59375 545.011719 L 68.890625 545.011719 C 74.4375 545.011719 78.929688 549.503906 78.929688 555.050781 C 78.929688 560.597656 74.4375 565.089844 68.890625 565.089844 Z M 68.890625 565.089844 " fill-opacity="1" fill-rule="nonzero"/><path fill="#9caaff" d="M 575.773438 185.402344 C 584.019531 139.570312 527.667969 143.347656 527.667969 143.347656 C 426.234375 150.136719 388.496094 177.871094 363.09375 199.269531 C 346.277344 213.4375 335.746094 233.554688 333.539062 255.429688 C 332.773438 262.921875 332.484375 271.507812 333.113281 280.894531 C 333.113281 280.894531 451.046875 182.425781 575.773438 185.402344 " fill-opacity="1" fill-rule="nonzero"/><path fill="#000000" d="M 333.113281 290.933594 C 331.78125 290.933594 330.441406 290.671875 329.171875 290.132812 C 325.695312 288.652344 323.359375 285.335938 323.097656 281.574219 C 322.496094 272.535156 322.644531 263.398438 323.5625 254.425781 C 326.058594 229.777344 337.808594 207.464844 356.644531 191.601562 C 385.863281 166.976562 425.546875 140.132812 527.015625 133.332031 C 530.402344 133.105469 560.625 131.636719 576.992188 149.933594 C 582.839844 156.472656 589.089844 168.234375 585.675781 187.195312 C 584.796875 192.066406 580.542969 195.542969 575.558594 195.453125 C 456.019531 192.667969 340.730469 287.660156 339.574219 288.613281 C 337.742188 290.144531 335.445312 290.945312 333.136719 290.945312 Z M 530.96875 153.285156 C 529.953125 153.285156 529.0625 153.3125 528.320312 153.359375 C 432.9375 159.75 396.367188 184.371094 369.570312 206.949219 C 354.75 219.4375 345.5 237.019531 343.527344 256.445312 C 343.390625 257.816406 343.265625 259.195312 343.175781 260.578125 C 356.457031 250.960938 377.125 237.070312 402.917969 223.203125 C 443.105469 201.589844 503.332031 176.316406 566.535156 175.335938 C 566.308594 170.429688 564.816406 166.476562 562.042969 163.351562 C 554.625 155.03125 538.976562 153.296875 530.96875 153.296875 Z M 530.96875 153.285156 " fill-opacity="1" fill-rule="nonzero"/><path fill="#000000" d="M 188.996094 294.949219 L 87.339844 294.949219 C 81.792969 294.949219 77.300781 290.457031 77.300781 284.910156 C 77.300781 279.363281 81.792969 274.871094 87.339844 274.871094 L 188.996094 274.871094 C 194.542969 274.871094 199.039062 279.363281 199.039062 284.910156 C 199.039062 290.457031 194.542969 294.949219 188.996094 294.949219 Z M 188.996094 294.949219 " fill-opacity="1" fill-rule="nonzero"/><path fill="#000000" d="M 234.179688 294.949219 L 222.882812 294.949219 C 217.335938 294.949219 212.84375 290.457031 212.84375 284.910156 C 212.84375 279.363281 217.335938 274.871094 222.882812 274.871094 L 234.179688 274.871094 C 239.726562 274.871094 244.21875 279.363281 244.21875 284.910156 C 244.21875 290.457031 239.726562 294.949219 234.179688 294.949219 Z M 234.179688 294.949219 " fill-opacity="1" fill-rule="nonzero"/><path fill="#000000" d="M 166.40625 532.148438 L 19.566406 532.148438 C 14.019531 532.148438 9.527344 527.65625 9.527344 522.105469 C 9.527344 516.558594 14.019531 512.066406 19.566406 512.066406 L 166.40625 512.066406 C 171.953125 512.066406 176.445312 516.558594 176.445312 522.105469 C 176.445312 527.65625 171.953125 532.148438 166.40625 532.148438 Z M 166.40625 532.148438 " fill-opacity="1" fill-rule="nonzero"/></svg>