<svg xmlns="http://www.w3.org/2000/svg" xmlns:xlink="http://www.w3.org/1999/xlink" width="1080" zoomAndPan="magnify" viewBox="0 0 810 809.999993" height="1080" preserveAspectRatio="xMidYMid meet" version="1.0"><path fill="#000000" d="M 572.511719 403.417969 C 624.5 408.335938 640.773438 394.792969 700.527344 387.433594 C 709.949219 386.257812 716.644531 377.664062 715.46875 368.230469 C 714.292969 358.808594 705.699219 352.117188 696.265625 353.292969 C 636.511719 360.652344 620.246094 374.199219 568.25 369.277344 " fill-opacity="1" fill-rule="nonzero"/><path fill="#000000" d="M 593.578125 413.695312 C 586.910156 413.695312 579.6875 413.359375 571.636719 412.585938 C 566.566406 412.105469 562.847656 407.613281 563.332031 402.542969 C 563.8125 397.476562 568.304688 393.777344 573.375 394.238281 C 604.398438 397.175781 621.605469 393.339844 645.417969 388.03125 C 660 384.78125 676.519531 381.097656 699.398438 378.273438 C 701.496094 378.011719 703.382812 376.9375 704.695312 375.257812 C 706.011719 373.574219 706.585938 371.480469 706.320312 369.359375 C 706.054688 367.242188 704.984375 365.351562 703.304688 364.050781 C 701.621094 362.738281 699.523438 362.160156 697.417969 362.425781 C 675.414062 365.132812 659.355469 368.714844 645.1875 371.871094 C 620.675781 377.332031 601.320312 381.648438 567.398438 378.4375 C 562.328125 377.953125 558.609375 373.460938 559.09375 368.390625 C 559.574219 363.324219 564.089844 359.625 569.136719 360.085938 C 600.160156 363.023438 617.371094 359.1875 641.179688 353.878906 C 655.761719 350.632812 672.28125 346.945312 695.160156 344.125 C 702.140625 343.246094 709.0625 345.160156 714.640625 349.492188 C 720.203125 353.820312 723.761719 360.066406 724.625 367.066406 C 725.5 374.070312 723.601562 380.992188 719.257812 386.558594 C 714.925781 392.121094 708.683594 395.679688 701.679688 396.542969 C 679.675781 399.25 663.621094 402.832031 649.449219 405.988281 C 630.753906 410.15625 615.054688 413.660156 593.605469 413.660156 Z M 593.578125 413.695312 " fill-opacity="1" fill-rule="nonzero"/><path fill="#000000" d="M 432.699219 533.875 L 349.839844 584.578125 C 344.367188 587.917969 344.667969 595.960938 350.359375 598.894531 L 391.058594 619.917969 C 398.730469 623.878906 403.71875 631.621094 404.167969 640.234375 C 405.121094 658.757812 385.804688 671.472656 369.171875 663.261719 L 310.480469 634.292969 C 290.203125 624.28125 281.804688 599.78125 291.679688 579.441406 C 296.113281 570.320312 303.761719 563.144531 313.164062 559.320312 L 389.734375 522 " fill-opacity="1" fill-rule="nonzero"/><path fill="#000000" d="M 379.953125 675.03125 C 374.90625 675.03125 369.839844 673.867188 365.082031 671.53125 L 306.390625 642.5625 C 281.65625 630.351562 271.335938 600.230469 283.382812 575.421875 C 288.777344 564.328125 297.992188 555.632812 309.382812 550.910156 L 385.6875 513.71875 C 390.261719 511.496094 395.777344 513.382812 398.015625 517.96875 C 400.25 522.542969 398.347656 528.058594 393.765625 530.292969 L 317.195312 567.613281 C 317.007812 567.703125 316.824219 567.785156 316.628906 567.867188 C 309.324219 570.835938 303.40625 576.390625 299.960938 583.484375 C 292.324219 599.21875 298.867188 618.304688 314.542969 626.042969 L 373.234375 655.011719 C 378.085938 657.410156 383.671875 657.0625 388.1875 654.089844 C 392.703125 651.121094 395.238281 646.121094 394.949219 640.730469 C 394.671875 635.410156 391.5625 630.570312 386.816406 628.117188 L 346.128906 607.097656 C 340.542969 604.207031 336.9375 598.515625 336.707031 592.238281 C 336.476562 585.960938 339.667969 580.015625 345.035156 576.734375 L 427.894531 526.03125 C 432.238281 523.371094 437.90625 524.742188 440.566406 529.082031 C 443.226562 533.425781 441.859375 539.09375 437.515625 541.753906 L 356.164062 591.535156 L 395.296875 611.75 C 405.835938 617.199219 412.757812 627.933594 413.371094 639.773438 C 413.992188 651.777344 408.371094 662.878906 398.324219 669.480469 C 392.714844 673.175781 386.355469 675.042969 379.953125 675.042969 Z M 379.953125 675.03125 " fill-opacity="1" fill-rule="nonzero"/><path fill="#d82e46" d="M 239.609375 156.972656 C 301.769531 152.964844 499.902344 85.894531 600.191406 279.609375 C 631.121094 336.9375 628.09375 404.6875 592.140625 459.511719 C 553.398438 518.601562 482.417969 553.628906 407.082031 550.851562 C 337.332031 548.285156 277.277344 505.101562 258.132812 443.78125 C 243.574219 397.117188 253.136719 346.933594 284.097656 307.507812 C 284.675781 306.769531 285.238281 306.03125 285.804688 305.285156 C 317.734375 262.746094 306.675781 201.941406 262.488281 172.316406 L 239.597656 156.972656 Z M 239.609375 156.972656 " fill-opacity="1" fill-rule="nonzero"/><path fill="#000000" d="M 415.445312 560.21875 C 412.550781 560.21875 409.648438 560.160156 406.746094 560.054688 C 332.941406 557.328125 269.6875 511.703125 249.34375 446.519531 C 241.753906 422.183594 240.246094 396.140625 245.003906 371.203125 C 249.75 346.3125 260.761719 322.308594 276.863281 301.816406 C 277.394531 301.136719 277.925781 300.445312 278.445312 299.753906 C 292.164062 281.476562 297.589844 258.910156 293.742188 236.195312 C 289.871094 213.367188 276.613281 192.875 257.375 179.976562 L 211.953125 149.523438 L 239.023438 147.78125 C 247.546875 147.230469 259.261719 145.351562 272.820312 143.1875 C 313.84375 136.609375 375.828125 126.679688 437.929688 139.800781 C 512.609375 155.570312 569.941406 201.167969 608.359375 275.3125 C 624.300781 304.890625 631.953125 337.949219 630.476562 370.914062 C 629.003906 403.902344 618.417969 436.28125 599.871094 464.570312 C 560.84375 524.085938 490.769531 560.21875 415.457031 560.21875 Z M 265.21875 163.042969 L 267.636719 164.667969 C 291.058594 180.367188 307.195312 205.316406 311.917969 233.109375 C 316.628906 260.867188 309.984375 288.457031 293.199219 310.8125 C 292.601562 311.605469 291.988281 312.402344 291.367188 313.195312 C 262.121094 350.433594 253.214844 397.027344 266.945312 441.039062 C 284.964844 498.777344 341.417969 539.207031 407.425781 541.648438 C 479.605469 544.332031 547.433594 510.90625 584.433594 454.46875 C 618.660156 402.277344 621.515625 338.546875 592.082031 283.996094 L 592.015625 283.859375 C 509.246094 123.984375 357.339844 148.324219 275.726562 161.398438 C 272.085938 161.984375 268.582031 162.539062 265.21875 163.066406 Z M 265.21875 163.042969 " fill-opacity="1" fill-rule="nonzero"/><path fill="#d82e46" d="M 443.792969 494.046875 L 482.785156 594.53125 C 485.355469 601.164062 494.191406 602.433594 498.523438 596.800781 L 529.519531 556.519531 C 535.359375 548.929688 544.796875 545.011719 554.300781 546.222656 C 574.710938 548.835938 584.78125 572.449219 572.523438 588.980469 L 529.289062 647.332031 C 514.347656 667.5 485.941406 671.820312 465.679688 657.015625 C 456.589844 650.371094 450.265625 640.605469 447.953125 629.582031 L 422.320312 538.609375 " fill-opacity="1" fill-rule="nonzero"/><path fill="#000000" d="M 492.519531 674.972656 C 481.289062 674.972656 469.964844 671.554688 460.253906 664.457031 C 449.390625 656.523438 441.859375 644.933594 439.011719 631.804688 L 413.460938 541.109375 C 412.078125 536.214844 414.9375 531.121094 419.832031 529.742188 C 424.726562 528.359375 429.820312 531.214844 431.203125 536.109375 L 456.832031 627.082031 C 456.890625 627.277344 456.9375 627.472656 456.980469 627.679688 C 458.835938 636.492188 463.871094 644.265625 471.140625 649.578125 C 487.253906 661.347656 510.027344 657.882812 521.90625 641.847656 L 565.136719 583.496094 C 568.929688 578.382812 569.699219 571.839844 567.199219 565.988281 C 564.710938 560.136719 559.449219 556.164062 553.144531 555.355469 C 546.914062 554.550781 540.671875 557.152344 536.847656 562.128906 L 505.847656 602.410156 C 501.816406 607.648438 495.238281 610.324219 488.707031 609.378906 C 482.164062 608.433594 476.609375 604.023438 474.214844 597.859375 L 435.222656 497.375 C 433.378906 492.628906 435.726562 487.296875 440.472656 485.453125 C 445.21875 483.609375 450.554688 485.972656 452.398438 490.707031 L 491.332031 591.039062 L 522.238281 550.898438 C 530.050781 540.753906 542.789062 535.453125 555.496094 537.089844 C 568.363281 538.738281 579.078125 546.84375 584.167969 558.777344 C 589.257812 570.710938 587.679688 584.050781 579.964844 594.472656 L 536.730469 652.824219 C 526.007812 667.304688 509.371094 674.984375 492.542969 674.984375 Z M 492.519531 674.972656 " fill-opacity="1" fill-rule="nonzero"/><path fill="#ffffff" d="M 630.015625 256.492188 C 640.152344 283.085938 623.519531 316.558594 608.945312 322.125 C 594.375 327.6875 574.332031 310.628906 564.183594 284.042969 C 554.046875 257.449219 557.640625 231.394531 572.210938 225.832031 C 586.785156 220.265625 619.867188 229.894531 630.015625 256.492188 Z M 630.015625 256.492188 " fill-opacity="1" fill-rule="nonzero"/><path fill="#000000" d="M 603.070312 332.410156 C 595.203125 332.410156 586.898438 328.917969 578.9375 322.144531 C 569.320312 313.96875 561.027344 301.597656 555.578125 287.316406 C 550.128906 273.03125 548.078125 258.277344 549.808594 245.78125 C 551.800781 231.300781 558.597656 221.152344 568.941406 217.214844 C 578.8125 213.449219 593.210938 214.773438 606.527344 220.671875 C 621.824219 227.453125 633.230469 239.007812 638.644531 253.199219 C 650.832031 285.136719 631.097656 323.539062 612.242188 330.726562 C 609.292969 331.855469 606.21875 332.410156 603.070312 332.410156 Z M 581.738281 233.511719 C 579.167969 233.511719 577.027344 233.859375 575.507812 234.433594 C 571.855469 235.828125 569.066406 241.011719 568.066406 248.300781 C 566.773438 257.65625 568.503906 269.484375 572.796875 280.75 C 577.09375 292.027344 583.683594 302 590.871094 308.117188 C 596.484375 312.886719 602.011719 314.902344 605.664062 313.507812 C 614.328125 310.203125 630.085938 282.511719 621.410156 259.761719 C 616.480469 246.851562 605.285156 240.285156 599.050781 237.523438 C 592.566406 234.640625 586.425781 233.511719 581.738281 233.511719 Z M 581.738281 233.511719 " fill-opacity="1" fill-rule="nonzero"/><path fill="#ffffff" d="M 525.636719 263.035156 C 537.8125 294.964844 517.839844 335.171875 500.328125 341.84375 C 482.820312 348.523438 458.757812 328.042969 446.578125 296.113281 C 434.402344 264.1875 438.710938 232.890625 456.222656 226.210938 C 473.730469 219.53125 513.449219 231.09375 525.625 263.035156 Z M 525.636719 263.035156 " fill-opacity="1" fill-rule="nonzero"/><path fill="#000000" d="M 493.511719 352.289062 C 473.007812 352.289062 450.128906 331.269531 437.976562 299.398438 C 423.773438 262.148438 430.339844 226.222656 452.941406 217.605469 C 464.355469 213.253906 481.117188 214.832031 496.65625 221.71875 C 514.570312 229.65625 527.910156 243.164062 534.234375 259.75 C 542.757812 282.109375 536.941406 304.074219 532.710938 315.1875 C 526.078125 332.628906 514.925781 346.140625 503.601562 350.457031 C 500.34375 351.703125 496.957031 352.300781 493.5 352.300781 Z M 467.636719 233.617188 C 464.296875 233.617188 461.511719 234.066406 459.515625 234.828125 C 454.414062 236.773438 450.726562 243.382812 449.414062 252.957031 C 447.824219 264.484375 449.933594 279.023438 455.207031 292.832031 C 460.484375 306.652344 468.582031 318.898438 477.453125 326.441406 C 484.8125 332.707031 491.96875 335.183594 497.070312 333.238281 C 509.8125 328.378906 527.445312 293.59375 517.042969 266.316406 C 510.894531 250.179688 496.964844 242.003906 489.214844 238.570312 C 481.195312 235.023438 473.558594 233.617188 467.648438 233.617188 Z M 467.636719 233.617188 " fill-opacity="1" fill-rule="nonzero"/><path fill="#000000" d="M 537.652344 277.488281 C 537.652344 278.570312 537.601562 279.644531 537.496094 280.71875 C 537.390625 281.792969 537.230469 282.855469 537.019531 283.914062 C 536.808594 284.972656 536.546875 286.015625 536.234375 287.050781 C 535.921875 288.082031 535.558594 289.09375 535.144531 290.09375 C 534.734375 291.089844 534.273438 292.0625 533.765625 293.011719 C 533.257812 293.964844 532.703125 294.886719 532.101562 295.785156 C 531.503906 296.683594 530.863281 297.546875 530.175781 298.382812 C 529.492188 299.214844 528.769531 300.011719 528.007812 300.777344 C 527.246094 301.539062 526.445312 302.261719 525.613281 302.945312 C 524.777344 303.628906 523.914062 304.273438 523.015625 304.871094 C 522.121094 305.46875 521.195312 306.023438 520.246094 306.53125 C 519.292969 307.039062 518.320312 307.5 517.324219 307.914062 C 516.328125 308.328125 515.3125 308.691406 514.28125 309.003906 C 513.246094 309.316406 512.203125 309.578125 511.144531 309.789062 C 510.085938 310 509.023438 310.15625 507.949219 310.261719 C 506.875 310.367188 505.796875 310.421875 504.71875 310.421875 C 503.640625 310.421875 502.566406 310.367188 501.492188 310.261719 C 500.417969 310.15625 499.351562 310 498.292969 309.789062 C 497.234375 309.578125 496.191406 309.316406 495.160156 309.003906 C 494.125 308.691406 493.113281 308.328125 492.117188 307.914062 C 491.121094 307.5 490.144531 307.039062 489.195312 306.53125 C 488.242188 306.023438 487.320312 305.46875 486.421875 304.871094 C 485.527344 304.273438 484.660156 303.628906 483.828125 302.945312 C 482.992188 302.261719 482.195312 301.539062 481.433594 300.777344 C 480.667969 300.011719 479.945312 299.214844 479.261719 298.382812 C 478.578125 297.546875 477.933594 296.683594 477.335938 295.785156 C 476.738281 294.886719 476.183594 293.964844 475.675781 293.011719 C 475.164062 292.0625 474.703125 291.089844 474.292969 290.09375 C 473.878906 289.09375 473.515625 288.082031 473.203125 287.050781 C 472.890625 286.015625 472.628906 284.972656 472.417969 283.914062 C 472.207031 282.855469 472.050781 281.792969 471.945312 280.71875 C 471.839844 279.644531 471.785156 278.570312 471.785156 277.488281 C 471.785156 276.410156 471.839844 275.335938 471.945312 274.261719 C 472.050781 273.1875 472.207031 272.125 472.417969 271.066406 C 472.628906 270.007812 472.890625 268.960938 473.203125 267.929688 C 473.515625 266.898438 473.878906 265.882812 474.292969 264.886719 C 474.703125 263.890625 475.164062 262.917969 475.671875 261.964844 C 476.183594 261.015625 476.734375 260.089844 477.335938 259.195312 C 477.933594 258.296875 478.578125 257.433594 479.261719 256.597656 C 479.945312 255.765625 480.667969 254.96875 481.429688 254.203125 C 482.195312 253.441406 482.992188 252.71875 483.828125 252.035156 C 484.660156 251.351562 485.523438 250.707031 486.421875 250.109375 C 487.320312 249.507812 488.242188 248.957031 489.195312 248.449219 C 490.144531 247.9375 491.121094 247.476562 492.117188 247.066406 C 493.113281 246.652344 494.125 246.289062 495.160156 245.976562 C 496.191406 245.664062 497.234375 245.402344 498.292969 245.191406 C 499.351562 244.980469 500.417969 244.824219 501.492188 244.71875 C 502.566406 244.613281 503.640625 244.558594 504.71875 244.558594 C 505.796875 244.558594 506.875 244.613281 507.949219 244.71875 C 509.023438 244.824219 510.085938 244.980469 511.144531 245.191406 C 512.203125 245.402344 513.246094 245.664062 514.28125 245.976562 C 515.3125 246.289062 516.328125 246.652344 517.324219 247.066406 C 518.320312 247.476562 519.292969 247.9375 520.246094 248.449219 C 521.195312 248.957031 522.121094 249.511719 523.015625 250.109375 C 523.914062 250.707031 524.777344 251.351562 525.613281 252.035156 C 526.445312 252.71875 527.246094 253.441406 528.007812 254.203125 C 528.769531 254.96875 529.492188 255.765625 530.175781 256.597656 C 530.863281 257.433594 531.503906 258.296875 532.101562 259.195312 C 532.703125 260.089844 533.257812 261.015625 533.765625 261.964844 C 534.273438 262.917969 534.734375 263.890625 535.144531 264.886719 C 535.558594 265.882812 535.921875 266.898438 536.234375 267.929688 C 536.546875 268.960938 536.808594 270.007812 537.019531 271.066406 C 537.230469 272.125 537.390625 273.1875 537.496094 274.261719 C 537.601562 275.335938 537.652344 276.410156 537.652344 277.488281 Z M 537.652344 277.488281 " fill-opacity="1" fill-rule="nonzero"/><path fill="#000000" d="M 639.484375 267.574219 C 639.484375 268.449219 639.441406 269.324219 639.355469 270.195312 C 639.269531 271.070312 639.140625 271.933594 638.96875 272.792969 C 638.800781 273.65625 638.585938 274.503906 638.332031 275.34375 C 638.078125 276.183594 637.78125 277.007812 637.445312 277.816406 C 637.109375 278.625 636.738281 279.417969 636.324219 280.191406 C 635.910156 280.964844 635.460938 281.714844 634.972656 282.445312 C 634.484375 283.171875 633.964844 283.875 633.40625 284.554688 C 632.851562 285.230469 632.265625 285.878906 631.644531 286.5 C 631.023438 287.121094 630.375 287.707031 629.695312 288.265625 C 629.019531 288.820312 628.316406 289.34375 627.585938 289.828125 C 626.855469 290.316406 626.105469 290.765625 625.332031 291.179688 C 624.558594 291.59375 623.769531 291.96875 622.957031 292.304688 C 622.148438 292.640625 621.324219 292.933594 620.484375 293.1875 C 619.644531 293.441406 618.796875 293.65625 617.9375 293.828125 C 617.074219 293.996094 616.210938 294.125 615.335938 294.210938 C 614.464844 294.296875 613.589844 294.339844 612.714844 294.339844 C 611.835938 294.339844 610.960938 294.296875 610.089844 294.210938 C 609.21875 294.125 608.351562 293.996094 607.492188 293.828125 C 606.632812 293.65625 605.78125 293.441406 604.941406 293.1875 C 604.105469 292.933594 603.277344 292.640625 602.46875 292.304688 C 601.660156 291.96875 600.867188 291.59375 600.09375 291.179688 C 599.320312 290.765625 598.570312 290.316406 597.839844 289.828125 C 597.109375 289.34375 596.40625 288.820312 595.730469 288.265625 C 595.050781 287.707031 594.402344 287.121094 593.785156 286.5 C 593.164062 285.878906 592.574219 285.230469 592.019531 284.554688 C 591.464844 283.875 590.941406 283.171875 590.453125 282.445312 C 589.96875 281.714844 589.515625 280.964844 589.105469 280.191406 C 588.691406 279.417969 588.316406 278.625 587.980469 277.816406 C 587.644531 277.007812 587.347656 276.183594 587.09375 275.34375 C 586.839844 274.503906 586.628906 273.65625 586.457031 272.792969 C 586.285156 271.933594 586.15625 271.070312 586.070312 270.195312 C 585.984375 269.324219 585.941406 268.449219 585.941406 267.574219 C 585.941406 266.695312 585.984375 265.820312 586.070312 264.949219 C 586.15625 264.078125 586.285156 263.210938 586.457031 262.351562 C 586.628906 261.492188 586.839844 260.640625 587.09375 259.800781 C 587.347656 258.964844 587.644531 258.136719 587.980469 257.328125 C 588.316406 256.519531 588.691406 255.726562 589.105469 254.953125 C 589.515625 254.179688 589.96875 253.429688 590.453125 252.699219 C 590.941406 251.972656 591.460938 251.269531 592.019531 250.589844 C 592.574219 249.914062 593.164062 249.265625 593.78125 248.644531 C 594.402344 248.023438 595.050781 247.4375 595.730469 246.878906 C 596.40625 246.324219 597.109375 245.800781 597.839844 245.316406 C 598.570312 244.828125 599.320312 244.378906 600.09375 243.964844 C 600.867188 243.550781 601.660156 243.175781 602.46875 242.839844 C 603.277344 242.507812 604.105469 242.210938 604.941406 241.957031 C 605.78125 241.703125 606.632812 241.488281 607.492188 241.320312 C 608.351562 241.148438 609.21875 241.019531 610.089844 240.933594 C 610.960938 240.847656 611.835938 240.804688 612.714844 240.804688 C 613.589844 240.804688 614.464844 240.847656 615.335938 240.933594 C 616.210938 241.019531 617.074219 241.148438 617.9375 241.320312 C 618.796875 241.488281 619.644531 241.703125 620.484375 241.957031 C 621.324219 242.210938 622.148438 242.507812 622.957031 242.839844 C 623.769531 243.175781 624.558594 243.550781 625.332031 243.964844 C 626.105469 244.378906 626.855469 244.828125 627.585938 245.316406 C 628.316406 245.800781 629.019531 246.324219 629.695312 246.878906 C 630.375 247.4375 631.023438 248.023438 631.644531 248.644531 C 632.265625 249.265625 632.851562 249.914062 633.40625 250.589844 C 633.964844 251.269531 634.484375 251.972656 634.972656 252.699219 C 635.460938 253.429688 635.910156 254.179688 636.324219 254.953125 C 636.738281 255.726562 637.109375 256.519531 637.445312 257.328125 C 637.78125 258.136719 638.078125 258.964844 638.332031 259.800781 C 638.585938 260.640625 638.800781 261.492188 638.96875 262.351562 C 639.140625 263.210938 639.269531 264.078125 639.355469 264.949219 C 639.441406 265.820312 639.484375 266.695312 639.484375 267.574219 Z M 639.484375 267.574219 " fill-opacity="1" fill-rule="nonzero"/><path fill="#000000" d="M 559.976562 404.480469 C 549.574219 404.480469 538.976562 400.828125 529.210938 393.734375 L 526.59375 391.832031 C 522.46875 388.835938 521.558594 383.078125 524.554688 378.964844 C 527.550781 374.84375 533.308594 373.933594 537.421875 376.925781 L 540.039062 378.828125 C 549.101562 385.40625 558.835938 387.582031 567.464844 384.945312 C 576.371094 382.214844 583.5 374.601562 587.53125 363.507812 C 589.269531 358.726562 594.546875 356.261719 599.339844 357.992188 C 604.121094 359.730469 606.597656 365.015625 604.859375 369.796875 C 598.796875 386.464844 587.441406 398.097656 572.867188 402.554688 C 568.652344 403.84375 564.34375 404.480469 559.988281 404.480469 Z M 559.976562 404.480469 " fill-opacity="1" fill-rule="nonzero"/><path fill="#d82e46" d="M 308.289062 406.65625 C 246.832031 420.316406 240.324219 406.527344 167.753906 406.65625 C 156.300781 406.65625 147.019531 397.371094 147.019531 385.921875 C 147.019531 374.472656 156.300781 365.191406 167.753906 365.191406 C 240.324219 365.0625 246.832031 378.851562 308.289062 365.191406 " fill-opacity="1" fill-rule="nonzero"/><path fill="#000000" d="M 260.886719 421.917969 C 249.726562 421.917969 239.820312 420.800781 228.460938 419.523438 C 213.164062 417.804688 195.835938 415.859375 168.753906 415.859375 C 168.421875 415.859375 168.097656 415.859375 167.765625 415.859375 C 151.234375 415.859375 137.804688 402.429688 137.804688 385.910156 C 137.804688 369.394531 151.234375 355.964844 167.753906 355.964844 C 196.4375 355.859375 215.328125 358.039062 230.523438 359.742188 C 254.414062 362.425781 270.195312 364.199219 306.296875 356.183594 C 311.261719 355.078125 316.191406 358.210938 317.289062 363.175781 C 318.394531 368.140625 315.261719 373.070312 310.296875 374.164062 C 271.199219 382.847656 253.273438 380.832031 228.460938 378.042969 C 212.980469 376.304688 195.390625 374.335938 167.765625 374.382812 C 161.394531 374.382812 156.234375 379.554688 156.234375 385.898438 C 156.234375 392.246094 161.40625 397.417969 167.753906 397.417969 C 196.4375 397.371094 215.328125 399.492188 230.523438 401.195312 C 254.414062 403.878906 270.195312 405.652344 306.296875 397.636719 C 311.261719 396.53125 316.191406 399.664062 317.289062 404.628906 C 318.394531 409.59375 315.261719 414.523438 310.296875 415.617188 C 289.101562 420.328125 274.113281 421.894531 260.902344 421.894531 Z M 260.886719 421.917969 " fill-opacity="1" fill-rule="nonzero"/><path fill="#000000" d="M 146.371094 675.03125 C 146.015625 675.03125 145.660156 675.007812 145.289062 674.960938 C 140.234375 674.375 136.617188 669.792969 137.203125 664.734375 L 164.917969 427.917969 C 165.507812 422.863281 170.101562 419.246094 175.148438 419.832031 C 180.207031 420.421875 183.820312 425.003906 183.234375 430.0625 L 155.519531 666.878906 C 154.964844 671.566406 150.992188 675.019531 146.371094 675.019531 Z M 146.371094 675.03125 " fill-opacity="1" fill-rule="nonzero"/><path fill="#000000" d="M 169.375 656.84375 C 169.019531 656.84375 168.664062 656.820312 168.292969 656.777344 L 127.101562 651.949219 C 122.042969 651.363281 118.425781 646.777344 119.015625 641.722656 C 119.601562 636.664062 124.199219 633.046875 129.242188 633.636719 L 170.4375 638.460938 C 175.492188 639.046875 179.109375 643.632812 178.523438 648.691406 C 177.96875 653.378906 173.996094 656.832031 169.375 656.832031 Z M 169.375 656.84375 " fill-opacity="1" fill-rule="nonzero"/><path fill="#9caaff" d="M 188.367188 305.816406 C 189.042969 305.894531 189.710938 306.003906 190.375 306.148438 C 191.039062 306.296875 191.691406 306.472656 192.335938 306.679688 C 192.984375 306.890625 193.617188 307.128906 194.242188 307.402344 C 194.863281 307.671875 195.472656 307.972656 196.0625 308.304688 C 196.65625 308.636719 197.230469 308.996094 197.789062 309.382812 C 198.347656 309.769531 198.882812 310.183594 199.402344 310.625 C 199.917969 311.066406 200.414062 311.53125 200.882812 312.019531 C 201.355469 312.507812 201.800781 313.019531 202.222656 313.550781 C 202.644531 314.082031 203.039062 314.636719 203.402344 315.207031 C 203.769531 315.777344 204.109375 316.367188 204.417969 316.972656 C 204.726562 317.578125 205.003906 318.195312 205.253906 318.828125 C 205.5 319.457031 205.71875 320.101562 205.902344 320.753906 C 206.089844 321.40625 206.242188 322.070312 206.363281 322.738281 C 206.480469 323.40625 206.570312 324.078125 206.625 324.753906 C 206.679688 325.433594 206.699219 326.109375 206.6875 326.789062 C 206.671875 327.46875 206.628906 328.144531 206.550781 328.820312 L 196.902344 411.1875 C 196.824219 411.863281 196.710938 412.53125 196.566406 413.195312 C 196.421875 413.855469 196.242188 414.511719 196.035156 415.15625 C 195.824219 415.804688 195.585938 416.4375 195.3125 417.0625 C 195.042969 417.683594 194.742188 418.289062 194.410156 418.882812 C 194.078125 419.476562 193.71875 420.050781 193.332031 420.609375 C 192.945312 421.167969 192.53125 421.703125 192.089844 422.222656 C 191.648438 422.738281 191.183594 423.230469 190.695312 423.703125 C 190.207031 424.175781 189.695312 424.621094 189.164062 425.042969 C 188.628906 425.460938 188.078125 425.855469 187.507812 426.222656 C 186.933594 426.589844 186.347656 426.929688 185.742188 427.238281 C 185.136719 427.546875 184.519531 427.824219 183.886719 428.074219 C 183.253906 428.320312 182.613281 428.539062 181.960938 428.722656 C 181.304688 428.910156 180.644531 429.0625 179.976562 429.179688 C 179.308594 429.300781 178.636719 429.386719 177.957031 429.441406 C 177.28125 429.496094 176.605469 429.515625 175.925781 429.503906 C 175.246094 429.492188 174.570312 429.445312 173.894531 429.367188 C 173.21875 429.289062 172.550781 429.175781 171.886719 429.03125 C 171.222656 428.886719 170.570312 428.710938 169.921875 428.5 C 169.277344 428.292969 168.640625 428.050781 168.019531 427.78125 C 167.398438 427.507812 166.789062 427.207031 166.195312 426.878906 C 165.605469 426.546875 165.027344 426.1875 164.472656 425.800781 C 163.914062 425.410156 163.375 424.996094 162.859375 424.558594 C 162.34375 424.117188 161.847656 423.652344 161.378906 423.164062 C 160.90625 422.675781 160.457031 422.164062 160.039062 421.632812 C 159.617188 421.097656 159.222656 420.546875 158.855469 419.976562 C 158.488281 419.402344 158.152344 418.816406 157.84375 418.210938 C 157.53125 417.605469 157.253906 416.988281 157.007812 416.355469 C 156.757812 415.722656 156.542969 415.082031 156.355469 414.425781 C 156.171875 413.773438 156.019531 413.113281 155.898438 412.445312 C 155.777344 411.777344 155.691406 411.105469 155.636719 410.425781 C 155.582031 409.75 155.5625 409.074219 155.574219 408.394531 C 155.589844 407.714844 155.632812 407.039062 155.710938 406.363281 L 165.359375 323.996094 C 165.441406 323.320312 165.550781 322.652344 165.695312 321.988281 C 165.839844 321.324219 166.019531 320.671875 166.226562 320.023438 C 166.4375 319.378906 166.675781 318.742188 166.945312 318.121094 C 167.21875 317.5 167.519531 316.890625 167.851562 316.296875 C 168.183594 315.707031 168.542969 315.128906 168.929688 314.574219 C 169.316406 314.015625 169.730469 313.476562 170.171875 312.960938 C 170.609375 312.445312 171.074219 311.949219 171.5625 311.480469 C 172.054688 311.007812 172.566406 310.5625 173.097656 310.140625 C 173.628906 309.71875 174.183594 309.324219 174.753906 308.957031 C 175.324219 308.59375 175.914062 308.253906 176.519531 307.945312 C 177.121094 307.636719 177.742188 307.355469 178.371094 307.109375 C 179.003906 306.859375 179.648438 306.644531 180.300781 306.460938 C 180.953125 306.273438 181.617188 306.121094 182.285156 306 C 182.953125 305.882812 183.625 305.792969 184.300781 305.738281 C 184.980469 305.6875 185.65625 305.664062 186.335938 305.675781 C 187.015625 305.691406 187.691406 305.734375 188.367188 305.816406 Z M 188.367188 305.816406 " fill-opacity="1" fill-rule="nonzero"/><path fill="#000000" d="M 176.507812 438.355469 C 175.355469 438.355469 174.179688 438.285156 173.007812 438.148438 C 156.601562 436.222656 144.816406 421.320312 146.742188 404.917969 L 156.382812 322.550781 C 157.316406 314.601562 161.28125 307.496094 167.558594 302.53125 C 173.835938 297.566406 181.667969 295.34375 189.617188 296.277344 C 197.566406 297.210938 204.671875 301.171875 209.625 307.449219 C 214.589844 313.726562 216.804688 321.558594 215.882812 329.496094 L 206.238281 411.863281 C 204.453125 427.089844 191.484375 438.332031 176.519531 438.332031 Z M 175.148438 419.84375 C 181.4375 420.582031 187.1875 416.054688 187.933594 409.742188 L 197.578125 327.375 C 197.933594 324.324219 197.082031 321.304688 195.167969 318.898438 C 193.257812 316.492188 190.527344 314.957031 187.472656 314.601562 C 184.410156 314.246094 181.402344 315.097656 178.996094 317.007812 C 176.578125 318.921875 175.054688 321.652344 174.699219 324.703125 L 165.058594 407.070312 C 164.320312 413.382812 168.847656 419.105469 175.160156 419.855469 Z M 175.148438 419.84375 " fill-opacity="1" fill-rule="nonzero"/><path fill="#000000" d="M 747.351562 675.03125 C 742.792969 675.03125 738.839844 671.65625 738.230469 667.015625 L 707.21875 430.613281 C 706.550781 425.570312 710.109375 420.9375 715.15625 420.28125 C 720.203125 419.613281 724.832031 423.171875 725.488281 428.21875 L 756.5 664.621094 C 757.167969 669.664062 753.609375 674.296875 748.5625 674.953125 C 748.160156 675.007812 747.757812 675.03125 747.355469 675.03125 Z M 747.351562 675.03125 " fill-opacity="1" fill-rule="nonzero"/><path fill="#000000" d="M 724.09375 657.167969 C 719.535156 657.167969 715.582031 653.792969 714.972656 649.152344 C 714.304688 644.105469 717.863281 639.476562 722.910156 638.820312 L 764.023438 633.429688 C 769.066406 632.761719 773.699219 636.320312 774.355469 641.363281 C 775.023438 646.410156 771.464844 651.039062 766.417969 651.695312 L 725.304688 657.085938 C 724.902344 657.144531 724.5 657.167969 724.097656 657.167969 Z M 724.09375 657.167969 " fill-opacity="1" fill-rule="nonzero"/><path fill="#9caaff" d="M 700.132812 306.347656 C 700.804688 306.257812 701.480469 306.203125 702.160156 306.183594 C 702.839844 306.160156 703.515625 306.171875 704.195312 306.21875 C 704.871094 306.261719 705.546875 306.339844 706.214844 306.449219 C 706.886719 306.5625 707.546875 306.703125 708.203125 306.882812 C 708.859375 307.058594 709.507812 307.265625 710.140625 307.503906 C 710.777344 307.742188 711.398438 308.015625 712.007812 308.3125 C 712.617188 308.613281 713.210938 308.945312 713.785156 309.304688 C 714.363281 309.664062 714.921875 310.050781 715.460938 310.460938 C 715.996094 310.875 716.515625 311.316406 717.011719 311.78125 C 717.507812 312.242188 717.976562 312.730469 718.425781 313.242188 C 718.871094 313.753906 719.292969 314.285156 719.691406 314.835938 C 720.085938 315.390625 720.453125 315.957031 720.789062 316.546875 C 721.128906 317.136719 721.4375 317.738281 721.71875 318.359375 C 722 318.976562 722.246094 319.605469 722.464844 320.25 C 722.683594 320.894531 722.871094 321.546875 723.023438 322.207031 C 723.175781 322.867188 723.296875 323.535156 723.386719 324.210938 L 734.167969 406.4375 C 734.257812 407.109375 734.3125 407.785156 734.335938 408.464844 C 734.355469 409.144531 734.34375 409.820312 734.300781 410.5 C 734.253906 411.175781 734.179688 411.851562 734.066406 412.519531 C 733.957031 413.191406 733.8125 413.851562 733.636719 414.507812 C 733.460938 415.164062 733.253906 415.808594 733.011719 416.445312 C 732.773438 417.082031 732.503906 417.703125 732.203125 418.3125 C 731.902344 418.921875 731.574219 419.511719 731.214844 420.089844 C 730.855469 420.667969 730.46875 421.222656 730.054688 421.761719 C 729.640625 422.300781 729.203125 422.816406 728.738281 423.3125 C 728.273438 423.808594 727.785156 424.28125 727.273438 424.726562 C 726.761719 425.175781 726.230469 425.597656 725.679688 425.992188 C 725.128906 426.386719 724.558594 426.753906 723.96875 427.09375 C 723.378906 427.433594 722.777344 427.742188 722.15625 428.023438 C 721.539062 428.300781 720.90625 428.550781 720.265625 428.769531 C 719.621094 428.988281 718.96875 429.171875 718.308594 429.328125 C 717.648438 429.480469 716.980469 429.601562 716.304688 429.6875 C 715.632812 429.777344 714.957031 429.832031 714.277344 429.855469 C 713.597656 429.875 712.921875 429.863281 712.242188 429.820312 C 711.566406 429.777344 710.890625 429.699219 710.222656 429.585938 C 709.550781 429.476562 708.890625 429.332031 708.234375 429.15625 C 707.578125 428.980469 706.933594 428.773438 706.296875 428.53125 C 705.660156 428.292969 705.039062 428.023438 704.429688 427.722656 C 703.820312 427.421875 703.226562 427.09375 702.652344 426.734375 C 702.074219 426.375 701.519531 425.988281 700.980469 425.574219 C 700.441406 425.160156 699.925781 424.722656 699.429688 424.257812 C 698.933594 423.792969 698.460938 423.304688 698.011719 422.792969 C 697.566406 422.285156 697.144531 421.753906 696.75 421.199219 C 696.355469 420.648438 695.988281 420.078125 695.648438 419.488281 C 695.308594 418.902344 695 418.296875 694.71875 417.679688 C 694.4375 417.058594 694.191406 416.429688 693.972656 415.785156 C 693.753906 415.144531 693.570312 414.492188 693.414062 413.828125 C 693.261719 413.167969 693.140625 412.5 693.050781 411.828125 L 682.269531 329.601562 C 682.179688 328.925781 682.125 328.25 682.105469 327.570312 C 682.082031 326.894531 682.09375 326.214844 682.136719 325.539062 C 682.183594 324.859375 682.261719 324.1875 682.371094 323.515625 C 682.484375 322.847656 682.625 322.183594 682.800781 321.527344 C 682.976562 320.871094 683.1875 320.226562 683.425781 319.589844 C 683.664062 318.957031 683.933594 318.332031 684.234375 317.726562 C 684.535156 317.117188 684.867188 316.523438 685.226562 315.945312 C 685.585938 315.371094 685.972656 314.8125 686.382812 314.273438 C 686.796875 313.734375 687.238281 313.21875 687.703125 312.722656 C 688.167969 312.226562 688.652344 311.757812 689.164062 311.308594 C 689.675781 310.863281 690.207031 310.441406 690.757812 310.046875 C 691.3125 309.648438 691.882812 309.285156 692.46875 308.945312 C 693.058594 308.605469 693.660156 308.296875 694.28125 308.015625 C 694.898438 307.734375 695.53125 307.488281 696.171875 307.269531 C 696.816406 307.050781 697.46875 306.863281 698.128906 306.710938 C 698.792969 306.558594 699.460938 306.4375 700.132812 306.347656 Z M 700.132812 306.347656 " fill-opacity="1" fill-rule="nonzero"/><path fill="#000000" d="M 713.636719 438.804688 C 698.832031 438.804688 685.933594 427.804688 683.960938 412.75 L 673.179688 330.519531 C 672.144531 322.585938 674.25 314.730469 679.125 308.382812 C 683.996094 302.035156 691.046875 297.96875 698.984375 296.933594 C 706.910156 295.882812 714.777344 298.003906 721.125 302.875 C 727.472656 307.75 731.539062 314.796875 732.574219 322.734375 L 743.355469 404.964844 C 745.511719 421.332031 733.933594 436.40625 717.554688 438.550781 C 716.238281 438.722656 714.925781 438.804688 713.636719 438.804688 Z M 716.355469 429.40625 Z M 702.898438 315.109375 C 702.394531 315.109375 701.886719 315.144531 701.378906 315.210938 C 698.328125 315.617188 695.621094 317.183594 693.742188 319.613281 C 691.863281 322.054688 691.058594 325.070312 691.449219 328.125 L 702.230469 410.351562 C 703.0625 416.640625 708.855469 421.101562 715.15625 420.269531 C 721.457031 419.441406 725.90625 413.648438 725.085938 407.347656 L 714.304688 325.117188 C 713.902344 322.066406 712.335938 319.359375 709.902344 317.480469 C 707.878906 315.914062 705.433594 315.097656 702.914062 315.097656 Z M 702.898438 315.109375 " fill-opacity="1" fill-rule="nonzero"/><path fill="#000000" d="M 179.824219 158.839844 L 127.988281 158.839844 C 122.894531 158.839844 118.773438 154.714844 118.773438 149.625 C 118.773438 144.535156 122.894531 140.410156 127.988281 140.410156 L 179.824219 140.410156 C 184.917969 140.410156 189.039062 144.535156 189.039062 149.625 C 189.039062 154.714844 184.917969 158.839844 179.824219 158.839844 Z M 179.824219 158.839844 " fill-opacity="1" fill-rule="nonzero"/><path fill="#000000" d="M 190.191406 189.9375 L 179.824219 189.9375 C 174.734375 189.9375 170.609375 185.816406 170.609375 180.726562 C 170.609375 175.632812 174.734375 171.511719 179.824219 171.511719 L 190.191406 171.511719 C 195.285156 171.511719 199.410156 175.632812 199.410156 180.726562 C 199.410156 185.816406 195.285156 189.9375 190.191406 189.9375 Z M 190.191406 189.9375 " fill-opacity="1" fill-rule="nonzero"/><path fill="#000000" d="M 107.253906 345.4375 L 65.78125 345.4375 C 60.691406 345.4375 56.566406 341.3125 56.566406 336.222656 C 56.566406 331.128906 60.691406 327.007812 65.78125 327.007812 L 107.253906 327.007812 C 112.34375 327.007812 116.46875 331.128906 116.46875 336.222656 C 116.46875 341.3125 112.34375 345.4375 107.253906 345.4375 Z M 107.253906 345.4375 " fill-opacity="1" fill-rule="nonzero"/><path fill="#000000" d="M 86.519531 314.335938 L 45.046875 314.335938 C 39.957031 314.335938 35.832031 310.214844 35.832031 305.121094 C 35.832031 300.03125 39.957031 295.90625 45.046875 295.90625 L 86.519531 295.90625 C 91.609375 295.90625 95.734375 300.03125 95.734375 305.121094 C 95.734375 310.214844 91.609375 314.335938 86.519531 314.335938 Z M 86.519531 314.335938 " fill-opacity="1" fill-rule="nonzero"/><path fill="#000000" d="M 76.148438 646.0625 L 45.046875 646.0625 C 39.957031 646.0625 35.832031 641.941406 35.832031 636.847656 C 35.832031 631.757812 39.957031 627.632812 45.046875 627.632812 L 76.148438 627.632812 C 81.242188 627.632812 85.367188 631.757812 85.367188 636.847656 C 85.367188 641.941406 81.242188 646.0625 76.148438 646.0625 Z M 76.148438 646.0625 " fill-opacity="1" fill-rule="nonzero"/><path fill="#000000" d="M 127.988281 314.335938 L 117.621094 314.335938 C 112.527344 314.335938 108.40625 310.214844 108.40625 305.121094 C 108.40625 300.03125 112.527344 295.90625 117.621094 295.90625 L 127.988281 295.90625 C 133.078125 295.90625 137.203125 300.03125 137.203125 305.121094 C 137.203125 310.214844 133.078125 314.335938 127.988281 314.335938 Z M 127.988281 314.335938 " fill-opacity="1" fill-rule="nonzero"/><path fill="#000000" d="M 86.519531 614.964844 L 76.148438 614.964844 C 71.058594 614.964844 66.933594 610.839844 66.933594 605.75 C 66.933594 600.660156 71.058594 596.535156 76.148438 596.535156 L 86.519531 596.535156 C 91.609375 596.535156 95.734375 600.660156 95.734375 605.75 C 95.734375 610.839844 91.609375 614.964844 86.519531 614.964844 Z M 86.519531 614.964844 " fill-opacity="1" fill-rule="nonzero"/></svg>