<svg xmlns="http://www.w3.org/2000/svg" xmlns:xlink="http://www.w3.org/1999/xlink" width="1080" zoomAndPan="magnify" viewBox="0 0 810 809.999993" height="1080" preserveAspectRatio="xMidYMid meet" version="1.0"><defs><clipPath id="b8ed634092"><path d="M 303 430 L 472 430 L 472 678.609375 L 303 678.609375 Z M 303 430 " clip-rule="nonzero"/></clipPath></defs><path fill="#000000" d="M 644.546875 375.875 C 677.984375 376.867188 707.804688 400.277344 715.511719 434.414062 C 723.21875 468.550781 706.355469 502.5 676.589844 517.769531 C 667.855469 522.25 657.238281 517.277344 655.078125 507.707031 C 653.582031 501.074219 656.683594 494.191406 662.738281 491.101562 C 680.671875 481.96875 690.84375 461.558594 686.203125 441.027344 C 681.5625 420.507812 663.609375 406.445312 643.488281 405.898438 " fill-opacity="1" fill-rule="nonzero"/><path fill="#000000" d="M 669.753906 528.351562 C 666.308594 528.351562 662.851562 527.59375 659.605469 526.078125 C 652.847656 522.921875 648.027344 516.933594 646.378906 509.660156 C 643.96875 498.976562 649.03125 488.070312 658.699219 483.140625 C 673.421875 475.644531 681.160156 459.128906 677.515625 442.980469 C 673.867188 426.832031 659.78125 415.253906 643.265625 414.808594 C 638.335938 414.675781 634.457031 410.582031 634.589844 405.652344 C 634.722656 400.722656 638.792969 396.863281 643.746094 396.976562 C 668.425781 397.632812 689.46875 414.941406 694.925781 439.054688 C 700.367188 463.164062 688.800781 487.835938 666.796875 499.042969 C 664.410156 500.257812 663.171875 503.011719 663.785156 505.734375 C 664.355469 508.277344 666.152344 509.449219 667.15625 509.917969 C 668.167969 510.394531 670.210938 511.011719 672.519531 509.816406 C 699.363281 496.042969 713.46875 465.84375 706.8125 436.367188 C 700.152344 406.890625 674.4375 385.679688 644.28125 384.785156 C 639.351562 384.640625 635.480469 380.527344 635.628906 375.609375 C 635.773438 370.679688 639.921875 366.808594 644.804688 366.953125 C 683.101562 368.089844 715.757812 395.023438 724.210938 432.441406 C 732.664062 469.855469 714.753906 508.210938 680.660156 525.699219 C 677.214844 527.472656 673.480469 528.351562 669.742188 528.351562 Z M 669.753906 528.351562 " fill-opacity="1" fill-rule="nonzero"/><path fill="#9caaff" d="M 673.613281 552.21875 C 673.613281 553.980469 673.582031 555.742188 673.527344 557.503906 C 673.46875 559.265625 673.386719 561.023438 673.273438 562.777344 C 673.160156 564.53125 673.019531 566.28125 672.851562 568.027344 C 672.683594 569.769531 672.484375 571.507812 672.261719 573.234375 C 672.039062 574.964844 671.785156 576.683594 671.507812 578.394531 C 671.226562 580.105469 670.921875 581.804688 670.585938 583.492188 C 670.253906 585.179688 669.890625 586.851562 669.503906 588.511719 C 669.117188 590.171875 668.703125 591.816406 668.261719 593.445312 C 667.824219 595.074219 667.355469 596.6875 666.867188 598.28125 C 666.375 599.875 665.855469 601.449219 665.316406 603.003906 C 664.773438 604.558594 664.207031 606.089844 663.613281 607.601562 C 663.023438 609.117188 662.410156 610.605469 661.769531 612.070312 C 661.132812 613.535156 660.46875 614.976562 659.785156 616.394531 C 659.101562 617.808594 658.394531 619.199219 657.664062 620.5625 C 656.933594 621.925781 656.183594 623.261719 655.410156 624.566406 C 654.636719 625.871094 653.84375 627.148438 653.03125 628.394531 C 652.21875 629.644531 651.386719 630.859375 650.535156 632.042969 C 649.683594 633.226562 648.8125 634.378906 647.925781 635.496094 C 647.035156 636.613281 646.128906 637.699219 645.207031 638.75 C 644.28125 639.800781 643.34375 640.816406 642.386719 641.792969 C 641.429688 642.773438 640.457031 643.714844 639.472656 644.625 C 638.484375 645.53125 637.488281 646.398438 636.472656 647.230469 C 635.457031 648.0625 634.429688 648.851562 633.390625 649.605469 C 632.351562 650.359375 631.300781 651.074219 630.238281 651.75 C 629.175781 652.425781 628.105469 653.058594 627.023438 653.652344 C 625.9375 654.246094 624.847656 654.800781 623.746094 655.3125 C 622.648438 655.824219 621.539062 656.292969 620.421875 656.722656 C 619.308594 657.148438 618.1875 657.535156 617.058594 657.878906 C 615.929688 658.222656 614.800781 658.527344 613.660156 658.785156 C 612.523438 659.042969 611.382812 659.257812 610.238281 659.433594 C 609.09375 659.605469 607.949219 659.734375 606.800781 659.820312 C 605.652344 659.90625 604.5 659.949219 603.351562 659.949219 C 602.203125 659.949219 601.054688 659.90625 599.90625 659.820312 C 598.757812 659.734375 597.609375 659.605469 596.464844 659.433594 C 595.320312 659.257812 594.179688 659.042969 593.042969 658.785156 C 591.90625 658.527344 590.773438 658.222656 589.644531 657.878906 C 588.515625 657.535156 587.394531 657.148438 586.277344 656.722656 C 585.164062 656.292969 584.058594 655.824219 582.957031 655.3125 C 581.855469 654.800781 580.765625 654.246094 579.683594 653.652344 C 578.597656 653.058594 577.527344 652.425781 576.464844 651.75 C 575.402344 651.074219 574.351562 650.359375 573.3125 649.605469 C 572.273438 648.851562 571.246094 648.0625 570.230469 647.230469 C 569.21875 646.398438 568.21875 645.53125 567.230469 644.625 C 566.246094 643.714844 565.273438 642.773438 564.316406 641.792969 C 563.359375 640.816406 562.421875 639.800781 561.496094 638.75 C 560.574219 637.699219 559.667969 636.613281 558.777344 635.496094 C 557.890625 634.378906 557.019531 633.226562 556.167969 632.042969 C 555.316406 630.859375 554.484375 629.644531 553.671875 628.394531 C 552.859375 627.148438 552.066406 625.875 551.292969 624.566406 C 550.519531 623.261719 549.769531 621.925781 549.039062 620.5625 C 548.3125 619.199219 547.605469 617.808594 546.917969 616.394531 C 546.234375 614.976562 545.570312 613.535156 544.933594 612.070312 C 544.292969 610.605469 543.679688 609.117188 543.085938 607.601562 C 542.496094 606.089844 541.929688 604.558594 541.386719 603.003906 C 540.847656 601.449219 540.328125 599.875 539.835938 598.28125 C 539.34375 596.6875 538.878906 595.074219 538.441406 593.445312 C 538 591.816406 537.585938 590.171875 537.199219 588.511719 C 536.8125 586.851562 536.449219 585.179688 536.117188 583.492188 C 535.785156 581.804688 535.476562 580.105469 535.199219 578.394531 C 534.917969 576.683594 534.664062 574.964844 534.441406 573.234375 C 534.21875 571.507812 534.019531 569.769531 533.851562 568.027344 C 533.683594 566.28125 533.542969 564.53125 533.429688 562.777344 C 533.316406 561.023438 533.234375 559.265625 533.175781 557.503906 C 533.121094 555.742188 533.09375 553.980469 533.09375 552.21875 C 533.09375 550.453125 533.121094 548.691406 533.175781 546.933594 C 533.234375 545.171875 533.316406 543.414062 533.429688 541.660156 C 533.542969 539.902344 533.683594 538.15625 533.851562 536.410156 C 534.019531 534.667969 534.21875 532.929688 534.441406 531.199219 C 534.664062 529.472656 534.917969 527.75 535.199219 526.042969 C 535.476562 524.332031 535.785156 522.632812 536.117188 520.945312 C 536.453125 519.257812 536.8125 517.582031 537.199219 515.925781 C 537.585938 514.265625 538 512.621094 538.441406 510.992188 C 538.878906 509.363281 539.34375 507.75 539.835938 506.15625 C 540.328125 504.5625 540.847656 502.988281 541.386719 501.433594 C 541.929688 499.878906 542.496094 498.34375 543.085938 496.832031 C 543.679688 495.320312 544.292969 493.832031 544.933594 492.363281 C 545.570312 490.898438 546.234375 489.457031 546.917969 488.042969 C 547.601562 486.625 548.308594 485.234375 549.039062 483.875 C 549.769531 482.511719 550.519531 481.175781 551.292969 479.871094 C 552.066406 478.5625 552.859375 477.285156 553.671875 476.039062 C 554.484375 474.792969 555.316406 473.578125 556.167969 472.394531 C 557.019531 471.210938 557.890625 470.058594 558.777344 468.941406 C 559.667969 467.820312 560.574219 466.738281 561.496094 465.6875 C 562.421875 464.636719 563.359375 463.621094 564.316406 462.640625 C 565.273438 461.660156 566.246094 460.71875 567.230469 459.8125 C 568.21875 458.90625 569.21875 458.039062 570.230469 457.207031 C 571.246094 456.375 572.273438 455.582031 573.3125 454.828125 C 574.351562 454.074219 575.402344 453.359375 576.464844 452.6875 C 577.527344 452.011719 578.597656 451.375 579.683594 450.78125 C 580.765625 450.1875 581.855469 449.636719 582.957031 449.125 C 584.058594 448.613281 585.164062 448.140625 586.28125 447.714844 C 587.394531 447.285156 588.515625 446.898438 589.644531 446.554688 C 590.773438 446.210938 591.90625 445.910156 593.042969 445.652344 C 594.179688 445.394531 595.320312 445.175781 596.464844 445.003906 C 597.609375 444.832031 598.757812 444.703125 599.90625 444.617188 C 601.054688 444.527344 602.203125 444.484375 603.351562 444.484375 C 604.5 444.484375 605.652344 444.527344 606.800781 444.617188 C 607.949219 444.703125 609.09375 444.832031 610.238281 445.003906 C 611.382812 445.175781 612.523438 445.394531 613.660156 445.652344 C 614.800781 445.910156 615.929688 446.210938 617.058594 446.554688 C 618.1875 446.898438 619.308594 447.285156 620.425781 447.714844 C 621.539062 448.140625 622.648438 448.613281 623.746094 449.125 C 624.847656 449.636719 625.9375 450.1875 627.023438 450.78125 C 628.105469 451.378906 629.175781 452.011719 630.238281 452.6875 C 631.300781 453.359375 632.351562 454.074219 633.390625 454.828125 C 634.429688 455.582031 635.457031 456.375 636.472656 457.207031 C 637.488281 458.039062 638.484375 458.90625 639.472656 459.8125 C 640.457031 460.71875 641.429688 461.664062 642.386719 462.640625 C 643.34375 463.621094 644.28125 464.636719 645.207031 465.6875 C 646.128906 466.738281 647.035156 467.820312 647.925781 468.941406 C 648.8125 470.058594 649.683594 471.210938 650.535156 472.394531 C 651.386719 473.578125 652.21875 474.792969 653.03125 476.039062 C 653.84375 477.285156 654.636719 478.5625 655.410156 479.871094 C 656.183594 481.175781 656.933594 482.511719 657.664062 483.875 C 658.394531 485.234375 659.101562 486.625 659.785156 488.042969 C 660.46875 489.457031 661.132812 490.898438 661.769531 492.363281 C 662.410156 493.832031 663.023438 495.320312 663.613281 496.832031 C 664.207031 498.34375 664.773438 499.878906 665.3125 501.433594 C 665.855469 502.988281 666.375 504.5625 666.863281 506.15625 C 667.355469 507.75 667.824219 509.363281 668.261719 510.992188 C 668.703125 512.621094 669.117188 514.265625 669.503906 515.925781 C 669.890625 517.585938 670.253906 519.257812 670.585938 520.945312 C 670.921875 522.632812 671.226562 524.332031 671.507812 526.042969 C 671.785156 527.75 672.035156 529.472656 672.261719 531.199219 C 672.484375 532.929688 672.683594 534.667969 672.851562 536.410156 C 673.019531 538.15625 673.160156 539.902344 673.273438 541.660156 C 673.386719 543.414062 673.46875 545.171875 673.527344 546.933594 C 673.582031 548.691406 673.613281 550.453125 673.613281 552.21875 Z M 673.613281 552.21875 " fill-opacity="1" fill-rule="nonzero"/><path fill="#000000" d="M 603.351562 668.871094 C 581.472656 668.871094 561.175781 656.226562 546.195312 633.273438 C 531.988281 611.492188 524.171875 582.707031 524.171875 552.21875 C 524.171875 521.726562 531.988281 492.941406 546.195312 471.160156 C 561.175781 448.199219 581.472656 435.5625 603.351562 435.5625 C 625.234375 435.5625 645.53125 448.210938 660.507812 471.160156 C 674.714844 492.941406 682.535156 521.726562 682.535156 552.21875 C 682.535156 582.707031 674.714844 611.492188 660.507812 633.273438 C 645.53125 656.238281 625.234375 668.871094 603.351562 668.871094 Z M 603.351562 453.40625 C 587.707031 453.40625 572.714844 463.175781 561.140625 480.910156 C 548.804688 499.824219 542.015625 525.152344 542.015625 552.21875 C 542.015625 579.285156 548.804688 604.613281 561.140625 623.527344 C 572.707031 641.269531 587.695312 651.027344 603.351562 651.027344 C 619.011719 651.027344 633.988281 641.257812 645.5625 623.527344 C 657.898438 604.613281 664.691406 579.285156 664.691406 552.21875 C 664.691406 525.152344 657.898438 499.824219 645.5625 480.910156 C 634 463.175781 619.011719 453.40625 603.351562 453.40625 Z M 603.351562 453.40625 " fill-opacity="1" fill-rule="nonzero"/><path fill="#000000" d="M 587.960938 539.503906 C 587.960938 540.652344 587.917969 541.804688 587.832031 542.953125 C 587.746094 544.101562 587.617188 545.246094 587.441406 546.390625 C 587.269531 547.535156 587.054688 548.675781 586.796875 549.8125 C 586.535156 550.949219 586.234375 552.082031 585.890625 553.210938 C 585.546875 554.339844 585.160156 555.460938 584.730469 556.574219 C 584.304688 557.691406 583.832031 558.800781 583.320312 559.898438 C 582.808594 561 582.257812 562.089844 581.664062 563.175781 C 581.070312 564.257812 580.433594 565.328125 579.761719 566.390625 C 579.085938 567.453125 578.371094 568.503906 577.617188 569.542969 C 576.863281 570.582031 576.070312 571.609375 575.242188 572.625 C 574.410156 573.640625 573.539062 574.640625 572.632812 575.625 C 571.726562 576.613281 570.785156 577.582031 569.804688 578.539062 C 568.824219 579.496094 567.808594 580.433594 566.757812 581.359375 C 565.710938 582.28125 564.625 583.1875 563.507812 584.078125 C 562.386719 584.964844 561.238281 585.835938 560.054688 586.6875 C 558.871094 587.539062 557.65625 588.371094 556.40625 589.1875 C 555.160156 590 553.882812 590.792969 552.578125 591.5625 C 551.273438 592.335938 549.9375 593.085938 548.574219 593.816406 C 547.210938 594.546875 545.820312 595.253906 544.40625 595.9375 C 542.988281 596.621094 541.550781 597.285156 540.082031 597.921875 C 538.617188 598.5625 537.128906 599.175781 535.613281 599.769531 C 534.101562 600.359375 532.570312 600.925781 531.015625 601.46875 C 529.460938 602.011719 527.886719 602.527344 526.292969 603.019531 C 524.699219 603.511719 523.085938 603.976562 521.457031 604.417969 C 519.828125 604.855469 518.183594 605.269531 516.523438 605.65625 C 514.863281 606.042969 513.191406 606.40625 511.503906 606.738281 C 509.816406 607.074219 508.117188 607.378906 506.40625 607.660156 C 504.695312 607.9375 502.976562 608.191406 501.246094 608.414062 C 499.519531 608.640625 497.78125 608.835938 496.039062 609.003906 C 494.292969 609.171875 492.542969 609.3125 490.789062 609.425781 C 489.035156 609.539062 487.277344 609.625 485.515625 609.679688 C 483.753906 609.734375 481.992188 609.765625 480.230469 609.765625 C 478.46875 609.765625 476.707031 609.734375 474.945312 609.679688 C 473.183594 609.625 471.425781 609.539062 469.671875 609.425781 C 467.917969 609.3125 466.167969 609.171875 464.421875 609.003906 C 462.679688 608.835938 460.941406 608.640625 459.214844 608.414062 C 457.484375 608.191406 455.765625 607.9375 454.054688 607.660156 C 452.34375 607.378906 450.644531 607.074219 448.957031 606.738281 C 447.269531 606.40625 445.597656 606.042969 443.9375 605.65625 C 442.277344 605.269531 440.632812 604.855469 439.003906 604.417969 C 437.375 603.976562 435.761719 603.511719 434.167969 603.019531 C 432.574219 602.527344 431 602.011719 429.445312 601.46875 C 427.890625 600.925781 426.359375 600.359375 424.84375 599.769531 C 423.332031 599.175781 421.84375 598.5625 420.378906 597.921875 C 418.914062 597.285156 417.472656 596.621094 416.054688 595.9375 C 414.636719 595.253906 413.25 594.546875 411.886719 593.816406 C 410.523438 593.085938 409.1875 592.335938 407.882812 591.5625 C 406.574219 590.792969 405.300781 590 404.050781 589.1875 C 402.804688 588.371094 401.589844 587.539062 400.40625 586.6875 C 399.222656 585.835938 398.070312 584.964844 396.953125 584.078125 C 395.832031 583.1875 394.75 582.28125 393.699219 581.359375 C 392.648438 580.433594 391.632812 579.496094 390.652344 578.539062 C 389.675781 577.582031 388.730469 576.613281 387.824219 575.625 C 386.917969 574.640625 386.050781 573.640625 385.21875 572.625 C 384.386719 571.609375 383.59375 570.582031 382.839844 569.542969 C 382.085938 568.503906 381.375 567.453125 380.699219 566.390625 C 380.023438 565.328125 379.390625 564.257812 378.796875 563.175781 C 378.203125 562.089844 377.648438 561 377.136719 559.898438 C 376.625 558.800781 376.15625 557.691406 375.726562 556.574219 C 375.300781 555.460938 374.914062 554.339844 374.570312 553.210938 C 374.226562 552.082031 373.921875 550.949219 373.664062 549.8125 C 373.40625 548.675781 373.191406 547.535156 373.019531 546.390625 C 372.84375 545.246094 372.714844 544.101562 372.628906 542.953125 C 372.542969 541.804688 372.5 540.652344 372.5 539.503906 C 372.5 538.355469 372.542969 537.207031 372.628906 536.058594 C 372.714844 534.910156 372.847656 533.761719 373.019531 532.617188 C 373.191406 531.472656 373.40625 530.332031 373.664062 529.195312 C 373.921875 528.058594 374.226562 526.925781 374.570312 525.796875 C 374.914062 524.667969 375.300781 523.546875 375.726562 522.433594 C 376.15625 521.316406 376.625 520.210938 377.136719 519.109375 C 377.648438 518.007812 378.203125 516.917969 378.796875 515.835938 C 379.390625 514.75 380.023438 513.679688 380.699219 512.617188 C 381.375 511.554688 382.085938 510.503906 382.839844 509.464844 C 383.597656 508.425781 384.386719 507.398438 385.21875 506.382812 C 386.050781 505.371094 386.917969 504.371094 387.824219 503.382812 C 388.730469 502.398438 389.675781 501.425781 390.65625 500.46875 C 391.632812 499.511719 392.648438 498.574219 393.699219 497.648438 C 394.75 496.726562 395.835938 495.820312 396.953125 494.929688 C 398.070312 494.042969 399.222656 493.171875 400.40625 492.320312 C 401.589844 491.46875 402.808594 490.636719 404.054688 489.824219 C 405.300781 489.007812 406.574219 488.21875 407.882812 487.445312 C 409.1875 486.671875 410.523438 485.921875 411.886719 485.191406 C 413.25 484.460938 414.640625 483.753906 416.054688 483.070312 C 417.472656 482.386719 418.914062 481.722656 420.378906 481.085938 C 421.84375 480.445312 423.332031 479.832031 424.847656 479.238281 C 426.359375 478.648438 427.890625 478.082031 429.445312 477.539062 C 431 477 432.574219 476.480469 434.167969 475.988281 C 435.761719 475.496094 437.375 475.03125 439.003906 474.59375 C 440.632812 474.152344 442.277344 473.738281 443.9375 473.351562 C 445.597656 472.964844 447.269531 472.601562 448.957031 472.269531 C 450.644531 471.933594 452.34375 471.628906 454.054688 471.347656 C 455.765625 471.070312 457.484375 470.816406 459.214844 470.59375 C 460.941406 470.371094 462.679688 470.171875 464.421875 470.003906 C 466.167969 469.835938 467.917969 469.695312 469.671875 469.582031 C 471.425781 469.46875 473.183594 469.386719 474.945312 469.328125 C 476.707031 469.273438 478.46875 469.242188 480.230469 469.242188 C 481.992188 469.242188 483.753906 469.273438 485.515625 469.328125 C 487.277344 469.386719 489.035156 469.46875 490.789062 469.582031 C 492.542969 469.695312 494.292969 469.835938 496.039062 470.003906 C 497.78125 470.171875 499.519531 470.371094 501.246094 470.59375 C 502.976562 470.816406 504.695312 471.070312 506.40625 471.347656 C 508.117188 471.628906 509.816406 471.933594 511.503906 472.269531 C 513.191406 472.601562 514.863281 472.964844 516.523438 473.351562 C 518.183594 473.738281 519.828125 474.152344 521.457031 474.59375 C 523.085938 475.03125 524.695312 475.496094 526.289062 475.988281 C 527.882812 476.480469 529.460938 477 531.015625 477.539062 C 532.570312 478.082031 534.101562 478.648438 535.613281 479.238281 C 537.128906 479.832031 538.617188 480.445312 540.082031 481.085938 C 541.546875 481.722656 542.988281 482.386719 544.40625 483.070312 C 545.820312 483.753906 547.210938 484.460938 548.574219 485.191406 C 549.9375 485.921875 551.269531 486.671875 552.578125 487.445312 C 553.882812 488.21875 555.160156 489.007812 556.40625 489.824219 C 557.65625 490.636719 558.871094 491.46875 560.054688 492.320312 C 561.238281 493.171875 562.386719 494.042969 563.507812 494.929688 C 564.625 495.820312 565.710938 496.726562 566.761719 497.648438 C 567.8125 498.574219 568.824219 499.511719 569.804688 500.46875 C 570.785156 501.425781 571.726562 502.398438 572.632812 503.382812 C 573.539062 504.371094 574.410156 505.371094 575.242188 506.382812 C 576.070312 507.398438 576.863281 508.425781 577.617188 509.464844 C 578.371094 510.503906 579.085938 511.554688 579.761719 512.617188 C 580.433594 513.679688 581.070312 514.75 581.664062 515.835938 C 582.257812 516.917969 582.808594 518.007812 583.324219 519.109375 C 583.832031 520.210938 584.304688 521.316406 584.734375 522.433594 C 585.160156 523.546875 585.546875 524.667969 585.890625 525.796875 C 586.234375 526.925781 586.539062 528.058594 586.796875 529.195312 C 587.054688 530.332031 587.269531 531.472656 587.445312 532.617188 C 587.617188 533.761719 587.746094 534.910156 587.832031 536.058594 C 587.917969 537.207031 587.960938 538.355469 587.960938 539.503906 Z M 587.960938 539.503906 " fill-opacity="1" fill-rule="nonzero"/><path fill="#000000" d="M 480.230469 618.6875 C 449.742188 618.6875 420.957031 610.867188 399.175781 596.660156 C 376.214844 581.683594 363.578125 561.386719 363.578125 539.503906 C 363.578125 517.625 376.222656 497.324219 399.175781 482.347656 C 420.957031 468.140625 449.738281 460.320312 480.230469 460.320312 C 510.722656 460.320312 539.503906 468.140625 561.285156 482.347656 C 584.25 497.324219 596.882812 517.625 596.882812 539.503906 C 596.882812 561.386719 584.238281 581.683594 561.285156 596.660156 C 539.503906 610.867188 510.722656 618.6875 480.230469 618.6875 Z M 480.230469 478.164062 C 453.164062 478.164062 427.835938 484.957031 408.921875 497.292969 C 391.179688 508.859375 381.421875 523.847656 381.421875 539.503906 C 381.421875 555.164062 391.191406 570.140625 408.921875 581.714844 C 427.835938 594.050781 453.164062 600.84375 480.230469 600.84375 C 507.296875 600.84375 532.625 594.050781 551.539062 581.714844 C 569.269531 570.152344 579.039062 555.164062 579.039062 539.503906 C 579.039062 523.847656 569.269531 508.867188 551.539062 497.292969 C 532.625 484.957031 507.296875 478.164062 480.230469 478.164062 Z M 480.230469 478.164062 " fill-opacity="1" fill-rule="nonzero"/><path fill="#d82e46" d="M 301.9375 157.230469 C 362.117188 153.351562 553.9375 88.410156 651.027344 275.972656 C 680.972656 331.476562 678.039062 397.078125 643.234375 450.160156 C 605.726562 507.375 537.007812 541.289062 464.070312 538.601562 C 396.542969 536.113281 338.40625 494.304688 319.871094 434.929688 C 305.773438 389.75 315.03125 341.160156 345.007812 302.984375 C 345.566406 302.269531 346.113281 301.554688 346.660156 300.832031 C 377.574219 259.644531 366.867188 200.769531 324.085938 172.085938 L 301.925781 157.230469 Z M 301.9375 157.230469 " fill-opacity="1" fill-rule="nonzero"/><path fill="#000000" d="M 472.167969 547.667969 C 469.367188 547.667969 466.558594 547.613281 463.746094 547.511719 C 392.296875 544.867188 331.058594 500.695312 311.363281 437.582031 C 304.011719 414.015625 302.550781 388.800781 307.160156 364.65625 C 311.753906 340.554688 322.414062 317.316406 338.003906 297.472656 C 338.519531 296.816406 339.03125 296.148438 339.542969 295.476562 C 352.828125 277.789062 358.078125 255.929688 354.34375 233.9375 C 350.597656 211.835938 337.761719 191.996094 319.136719 179.503906 L 275.164062 150.015625 L 301.371094 148.332031 C 309.621094 147.796875 320.964844 145.980469 334.082031 143.882812 C 373.792969 137.515625 433.804688 127.902344 493.925781 140.605469 C 566.226562 155.871094 621.730469 200.023438 658.925781 271.8125 C 674.359375 300.453125 681.765625 332.460938 680.335938 364.378906 C 678.910156 396.316406 668.660156 427.667969 650.707031 455.058594 C 612.921875 512.683594 545.082031 547.667969 472.167969 547.667969 Z M 326.730469 163.121094 L 329.074219 164.695312 C 351.746094 179.894531 367.371094 204.050781 371.941406 230.960938 C 376.503906 257.839844 370.066406 284.558594 353.820312 306.207031 C 353.238281 306.988281 352.648438 307.746094 352.046875 308.515625 C 323.730469 344.570312 315.109375 389.683594 328.402344 432.296875 C 345.84375 488.203125 400.503906 527.347656 464.40625 529.710938 C 534.296875 532.300781 599.949219 499.945312 635.773438 445.300781 C 668.90625 394.769531 671.671875 333.0625 643.175781 280.242188 L 643.109375 280.109375 C 562.96875 125.3125 415.914062 148.867188 336.902344 161.539062 C 333.378906 162.105469 329.988281 162.640625 326.730469 163.15625 Z M 326.730469 163.121094 " fill-opacity="1" fill-rule="nonzero"/><path fill="#ffffff" d="M 679.902344 253.589844 C 689.714844 279.339844 673.613281 311.75 659.503906 317.136719 C 645.398438 322.523438 625.992188 306.003906 616.167969 280.265625 C 606.351562 254.515625 609.832031 229.289062 623.941406 223.902344 C 638.046875 218.515625 670.078125 227.839844 679.902344 253.589844 Z M 679.902344 253.589844 " fill-opacity="1" fill-rule="nonzero"/><path fill="#000000" d="M 653.804688 327.09375 C 646.1875 327.09375 638.148438 323.714844 630.441406 317.160156 C 621.140625 309.238281 613.097656 297.261719 607.835938 283.433594 C 602.558594 269.605469 600.574219 255.316406 602.25 243.21875 C 604.175781 229.199219 610.757812 219.375 620.773438 215.558594 C 630.328125 211.914062 644.269531 213.195312 657.152344 218.90625 C 671.960938 225.472656 683.003906 236.660156 688.242188 250.398438 C 700.042969 281.324219 680.9375 318.507812 662.683594 325.464844 C 659.828125 326.558594 656.851562 327.09375 653.804688 327.09375 Z M 633.152344 231.339844 C 630.664062 231.339844 628.589844 231.675781 627.117188 232.234375 C 623.582031 233.582031 620.882812 238.601562 619.914062 245.660156 C 618.664062 254.714844 620.335938 266.167969 624.496094 277.078125 C 628.65625 287.984375 635.035156 297.652344 641.996094 303.574219 C 647.425781 308.191406 652.777344 310.144531 656.3125 308.792969 C 664.699219 305.59375 679.957031 278.78125 671.558594 256.757812 C 666.785156 244.253906 655.945312 237.898438 649.914062 235.222656 C 643.632812 232.433594 637.691406 231.339844 633.152344 231.339844 Z M 633.152344 231.339844 " fill-opacity="1" fill-rule="nonzero"/><path fill="#ffffff" d="M 578.851562 259.925781 C 590.636719 290.839844 571.300781 329.773438 554.347656 336.230469 C 537.398438 342.699219 514.101562 322.867188 502.3125 291.953125 C 490.523438 261.039062 494.695312 230.738281 511.648438 224.269531 C 528.597656 217.800781 567.050781 229 578.839844 259.925781 Z M 578.851562 259.925781 " fill-opacity="1" fill-rule="nonzero"/><path fill="#000000" d="M 547.523438 346.398438 C 538.792969 346.398438 529.535156 342.496094 520.613281 334.902344 C 509.660156 325.589844 500.203125 311.460938 493.96875 295.132812 C 480.21875 259.066406 486.578125 224.28125 508.457031 215.9375 C 519.507812 211.722656 535.734375 213.25 550.78125 219.921875 C 568.121094 227.605469 581.035156 240.6875 587.160156 256.746094 C 595.410156 278.390625 589.78125 299.660156 585.6875 310.421875 C 579.265625 327.308594 568.46875 340.386719 557.503906 344.570312 C 554.292969 345.796875 550.9375 346.398438 547.5 346.398438 Z M 522.6875 231.441406 C 519.453125 231.441406 516.753906 231.875 514.824219 232.613281 C 509.882812 234.496094 506.316406 240.898438 505.042969 250.164062 C 503.503906 261.328125 505.546875 275.402344 510.652344 288.773438 C 515.761719 302.160156 523.601562 314.011719 532.1875 321.316406 C 539.316406 327.386719 546.242188 329.78125 551.179688 327.898438 C 556.300781 325.945312 564.085938 317.136719 569.046875 304.078125 C 574.480469 289.8125 575.015625 274.878906 570.519531 263.101562 C 564.5625 247.476562 551.082031 239.558594 543.574219 236.238281 C 535.8125 232.800781 528.417969 231.441406 522.699219 231.441406 Z M 522.6875 231.441406 " fill-opacity="1" fill-rule="nonzero"/><path fill="#000000" d="M 590.472656 273.921875 C 590.472656 274.964844 590.421875 276.007812 590.320312 277.046875 C 590.214844 278.085938 590.0625 279.117188 589.859375 280.140625 C 589.65625 281.164062 589.402344 282.175781 589.097656 283.175781 C 588.796875 284.175781 588.445312 285.15625 588.042969 286.121094 C 587.644531 287.085938 587.199219 288.03125 586.707031 288.949219 C 586.214844 289.871094 585.679688 290.765625 585.097656 291.632812 C 584.519531 292.503906 583.898438 293.339844 583.234375 294.148438 C 582.574219 294.957031 581.871094 295.726562 581.132812 296.464844 C 580.394531 297.203125 579.621094 297.90625 578.816406 298.566406 C 578.007812 299.230469 577.167969 299.851562 576.300781 300.429688 C 575.433594 301.011719 574.539062 301.546875 573.617188 302.039062 C 572.695312 302.53125 571.753906 302.976562 570.789062 303.378906 C 569.824219 303.777344 568.839844 304.128906 567.84375 304.433594 C 566.84375 304.734375 565.832031 304.988281 564.808594 305.191406 C 563.785156 305.394531 562.75 305.550781 561.710938 305.652344 C 560.675781 305.753906 559.632812 305.804688 558.585938 305.804688 C 557.542969 305.804688 556.503906 305.753906 555.464844 305.652344 C 554.421875 305.550781 553.390625 305.394531 552.367188 305.191406 C 551.34375 304.988281 550.332031 304.734375 549.332031 304.433594 C 548.332031 304.128906 547.351562 303.777344 546.386719 303.378906 C 545.421875 302.976562 544.476562 302.53125 543.558594 302.039062 C 542.636719 301.546875 541.742188 301.011719 540.875 300.429688 C 540.003906 299.851562 539.167969 299.230469 538.359375 298.566406 C 537.554688 297.90625 536.78125 297.203125 536.042969 296.464844 C 535.304688 295.726562 534.601562 294.957031 533.941406 294.148438 C 533.277344 293.339844 532.65625 292.503906 532.074219 291.632812 C 531.496094 290.765625 530.960938 289.871094 530.46875 288.949219 C 529.976562 288.03125 529.527344 287.085938 529.128906 286.121094 C 528.730469 285.15625 528.378906 284.175781 528.074219 283.175781 C 527.773438 282.175781 527.519531 281.164062 527.316406 280.140625 C 527.113281 279.117188 526.957031 278.085938 526.855469 277.046875 C 526.753906 276.007812 526.703125 274.964844 526.703125 273.921875 C 526.703125 272.875 526.753906 271.835938 526.855469 270.796875 C 526.957031 269.757812 527.113281 268.722656 527.3125 267.699219 C 527.519531 266.675781 527.773438 265.664062 528.074219 264.664062 C 528.378906 263.664062 528.730469 262.683594 529.128906 261.71875 C 529.527344 260.753906 529.976562 259.8125 530.46875 258.890625 C 530.960938 257.96875 531.496094 257.074219 532.074219 256.207031 C 532.65625 255.335938 533.277344 254.5 533.941406 253.691406 C 534.601562 252.886719 535.304688 252.113281 536.042969 251.375 C 536.78125 250.636719 537.554688 249.9375 538.359375 249.273438 C 539.167969 248.609375 540.003906 247.988281 540.875 247.410156 C 541.742188 246.828125 542.636719 246.292969 543.558594 245.800781 C 544.476562 245.308594 545.421875 244.863281 546.386719 244.460938 C 547.351562 244.0625 548.332031 243.710938 549.332031 243.410156 C 550.332031 243.105469 551.34375 242.851562 552.367188 242.648438 C 553.390625 242.445312 554.421875 242.292969 555.460938 242.1875 C 556.503906 242.085938 557.542969 242.035156 558.585938 242.035156 C 559.632812 242.035156 560.675781 242.085938 561.710938 242.1875 C 562.75 242.292969 563.785156 242.445312 564.808594 242.648438 C 565.832031 242.851562 566.84375 243.105469 567.84375 243.410156 C 568.839844 243.710938 569.824219 244.0625 570.789062 244.460938 C 571.753906 244.863281 572.695312 245.308594 573.617188 245.800781 C 574.539062 246.292969 575.433594 246.828125 576.300781 247.410156 C 577.167969 247.988281 578.007812 248.609375 578.816406 249.273438 C 579.621094 249.9375 580.394531 250.636719 581.132812 251.375 C 581.871094 252.113281 582.574219 252.886719 583.234375 253.691406 C 583.898438 254.5 584.519531 255.335938 585.097656 256.207031 C 585.679688 257.074219 586.214844 257.96875 586.707031 258.890625 C 587.199219 259.8125 587.644531 260.753906 588.042969 261.71875 C 588.445312 262.683594 588.796875 263.664062 589.097656 264.664062 C 589.402344 265.664062 589.65625 266.675781 589.859375 267.699219 C 590.0625 268.722656 590.214844 269.757812 590.320312 270.796875 C 590.421875 271.835938 590.472656 272.875 590.472656 273.921875 Z M 590.472656 273.921875 " fill-opacity="1" fill-rule="nonzero"/><path fill="#000000" d="M 689.070312 264.316406 C 689.066406 265.167969 689.027344 266.015625 688.941406 266.859375 C 688.859375 267.703125 688.734375 268.542969 688.570312 269.375 C 688.402344 270.207031 688.199219 271.027344 687.953125 271.839844 C 687.707031 272.652344 687.421875 273.453125 687.09375 274.238281 C 686.769531 275.019531 686.410156 275.789062 686.007812 276.535156 C 685.609375 277.285156 685.171875 278.011719 684.699219 278.71875 C 684.230469 279.421875 683.722656 280.105469 683.183594 280.761719 C 682.644531 281.417969 682.078125 282.042969 681.476562 282.644531 C 680.878906 283.246094 680.25 283.816406 679.59375 284.351562 C 678.9375 284.890625 678.253906 285.398438 677.550781 285.867188 C 676.84375 286.339844 676.117188 286.777344 675.367188 287.175781 C 674.617188 287.574219 673.851562 287.9375 673.066406 288.261719 C 672.285156 288.589844 671.484375 288.875 670.671875 289.121094 C 669.863281 289.367188 669.039062 289.574219 668.207031 289.738281 C 667.375 289.902344 666.535156 290.027344 665.691406 290.113281 C 664.847656 290.195312 664 290.234375 663.148438 290.234375 C 662.300781 290.234375 661.457031 290.195312 660.609375 290.113281 C 659.765625 290.027344 658.925781 289.902344 658.09375 289.738281 C 657.261719 289.574219 656.4375 289.367188 655.625 289.121094 C 654.816406 288.875 654.015625 288.589844 653.230469 288.261719 C 652.449219 287.9375 651.683594 287.574219 650.933594 287.175781 C 650.183594 286.777344 649.457031 286.339844 648.75 285.867188 C 648.046875 285.398438 647.363281 284.890625 646.707031 284.351562 C 646.050781 283.816406 645.425781 283.246094 644.824219 282.644531 C 644.222656 282.042969 643.65625 281.417969 643.117188 280.761719 C 642.578125 280.105469 642.070312 279.421875 641.601562 278.71875 C 641.128906 278.011719 640.691406 277.285156 640.292969 276.535156 C 639.894531 275.789062 639.53125 275.019531 639.203125 274.238281 C 638.878906 273.453125 638.59375 272.652344 638.347656 271.839844 C 638.101562 271.03125 637.898438 270.207031 637.730469 269.375 C 637.566406 268.542969 637.441406 267.703125 637.359375 266.859375 C 637.273438 266.015625 637.234375 265.167969 637.234375 264.316406 C 637.234375 263.46875 637.273438 262.621094 637.359375 261.777344 C 637.441406 260.933594 637.566406 260.09375 637.730469 259.261719 C 637.898438 258.429688 638.101562 257.605469 638.347656 256.792969 C 638.59375 255.980469 638.878906 255.183594 639.203125 254.398438 C 639.53125 253.613281 639.894531 252.847656 640.292969 252.101562 C 640.691406 251.351562 641.128906 250.625 641.601562 249.917969 C 642.074219 249.210938 642.578125 248.53125 643.117188 247.875 C 643.65625 247.21875 644.222656 246.589844 644.824219 245.992188 C 645.425781 245.390625 646.050781 244.820312 646.707031 244.28125 C 647.363281 243.746094 648.046875 243.238281 648.75 242.769531 C 649.457031 242.296875 650.183594 241.859375 650.933594 241.460938 C 651.679688 241.058594 652.449219 240.699219 653.230469 240.371094 C 654.015625 240.046875 654.8125 239.761719 655.625 239.515625 C 656.4375 239.269531 657.261719 239.0625 658.09375 238.898438 C 658.925781 238.730469 659.765625 238.609375 660.609375 238.523438 C 661.457031 238.441406 662.300781 238.398438 663.148438 238.398438 C 664 238.398438 664.847656 238.441406 665.691406 238.523438 C 666.535156 238.609375 667.375 238.730469 668.207031 238.898438 C 669.039062 239.0625 669.863281 239.269531 670.671875 239.515625 C 671.484375 239.761719 672.285156 240.046875 673.066406 240.371094 C 673.851562 240.699219 674.617188 241.058594 675.367188 241.460938 C 676.117188 241.859375 676.84375 242.296875 677.550781 242.769531 C 678.253906 243.238281 678.9375 243.746094 679.59375 244.28125 C 680.25 244.820312 680.878906 245.390625 681.476562 245.992188 C 682.078125 246.589844 682.644531 247.21875 683.183594 247.875 C 683.722656 248.53125 684.230469 249.210938 684.699219 249.917969 C 685.171875 250.625 685.609375 251.351562 686.007812 252.101562 C 686.40625 252.847656 686.769531 253.613281 687.09375 254.398438 C 687.417969 255.183594 687.707031 255.980469 687.953125 256.792969 C 688.199219 257.605469 688.402344 258.429688 688.570312 259.261719 C 688.734375 260.09375 688.859375 260.933594 688.945312 261.777344 C 689.027344 262.621094 689.066406 263.46875 689.070312 264.316406 Z M 689.070312 264.316406 " fill-opacity="1" fill-rule="nonzero"/><path fill="#000000" d="M 612.097656 396.875 C 602.015625 396.875 591.765625 393.339844 582.308594 386.46875 L 579.777344 384.628906 C 575.785156 381.730469 574.902344 376.15625 577.800781 372.171875 C 580.703125 368.179688 586.277344 367.300781 590.257812 370.199219 L 592.792969 372.039062 C 601.566406 378.40625 610.992188 380.515625 619.34375 377.960938 C 627.964844 375.316406 634.867188 367.945312 638.773438 357.207031 C 640.457031 352.578125 645.574219 350.191406 650.203125 351.863281 C 654.832031 353.546875 657.230469 358.667969 655.546875 363.296875 C 649.679688 379.433594 638.683594 390.699219 624.574219 395.023438 C 620.503906 396.273438 616.324219 396.886719 612.105469 396.886719 Z M 612.097656 396.875 " fill-opacity="1" fill-rule="nonzero"/><path fill="#9caaff" d="M 462.832031 554.558594 C 462.832031 556.449219 462.800781 558.335938 462.742188 560.222656 C 462.683594 562.109375 462.589844 563.992188 462.472656 565.875 C 462.351562 567.753906 462.199219 569.628906 462.019531 571.496094 C 461.835938 573.363281 461.625 575.226562 461.386719 577.078125 C 461.144531 578.929688 460.875 580.773438 460.578125 582.605469 C 460.277344 584.4375 459.949219 586.257812 459.589844 588.066406 C 459.234375 589.875 458.847656 591.667969 458.429688 593.445312 C 458.015625 595.226562 457.574219 596.988281 457.101562 598.730469 C 456.628906 600.476562 456.132812 602.203125 455.605469 603.910156 C 455.078125 605.621094 454.523438 607.304688 453.945312 608.972656 C 453.363281 610.636719 452.757812 612.28125 452.121094 613.902344 C 451.488281 615.523438 450.832031 617.117188 450.144531 618.6875 C 449.460938 620.257812 448.753906 621.800781 448.019531 623.320312 C 447.285156 624.835938 446.527344 626.324219 445.746094 627.785156 C 444.964844 629.246094 444.160156 630.675781 443.332031 632.078125 C 442.503906 633.476562 441.65625 634.84375 440.785156 636.179688 C 439.914062 637.515625 439.019531 638.816406 438.109375 640.085938 C 437.195312 641.355469 436.261719 642.589844 435.308594 643.785156 C 434.359375 644.984375 433.386719 646.148438 432.398438 647.273438 C 431.40625 648.398438 430.402344 649.484375 429.375 650.535156 C 428.351562 651.582031 427.3125 652.59375 426.253906 653.566406 C 425.199219 654.535156 424.125 655.46875 423.039062 656.359375 C 421.953125 657.25 420.851562 658.097656 419.738281 658.90625 C 418.625 659.714844 417.5 660.476562 416.363281 661.203125 C 415.222656 661.925781 414.074219 662.605469 412.914062 663.238281 C 411.753906 663.875 410.585938 664.46875 409.40625 665.015625 C 408.226562 665.566406 407.039062 666.070312 405.84375 666.527344 C 404.648438 666.988281 403.449219 667.402344 402.242188 667.769531 C 401.03125 668.136719 399.820312 668.460938 398.601562 668.738281 C 397.382812 669.015625 396.160156 669.246094 394.933594 669.433594 C 393.707031 669.617188 392.480469 669.757812 391.25 669.847656 C 390.019531 669.941406 388.789062 669.988281 387.554688 669.988281 C 386.324219 669.988281 385.089844 669.941406 383.863281 669.847656 C 382.632812 669.757812 381.402344 669.617188 380.175781 669.433594 C 378.949219 669.246094 377.726562 669.015625 376.507812 668.738281 C 375.289062 668.460938 374.078125 668.136719 372.871094 667.769531 C 371.660156 667.402344 370.457031 666.988281 369.261719 666.527344 C 368.066406 666.070312 366.882812 665.566406 365.703125 665.015625 C 364.523438 664.46875 363.355469 663.875 362.195312 663.238281 C 361.035156 662.605469 359.886719 661.925781 358.746094 661.199219 C 357.609375 660.476562 356.484375 659.714844 355.367188 658.90625 C 354.253906 658.097656 353.15625 657.25 352.070312 656.359375 C 350.984375 655.46875 349.910156 654.535156 348.855469 653.566406 C 347.796875 652.59375 346.757812 651.582031 345.730469 650.535156 C 344.707031 649.484375 343.699219 648.398438 342.710938 647.273438 C 341.722656 646.148438 340.75 644.984375 339.796875 643.785156 C 338.847656 642.589844 337.914062 641.355469 337 640.085938 C 336.089844 638.816406 335.195312 637.515625 334.324219 636.179688 C 333.453125 634.84375 332.605469 633.476562 331.777344 632.078125 C 330.949219 630.675781 330.144531 629.246094 329.363281 627.785156 C 328.582031 626.324219 327.824219 624.835938 327.089844 623.320312 C 326.355469 621.800781 325.648438 620.257812 324.960938 618.6875 C 324.277344 617.117188 323.621094 615.523438 322.984375 613.902344 C 322.351562 612.28125 321.746094 610.636719 321.164062 608.972656 C 320.585938 607.304688 320.03125 605.617188 319.503906 603.910156 C 318.976562 602.203125 318.476562 600.476562 318.007812 598.730469 C 317.535156 596.988281 317.09375 595.226562 316.675781 593.445312 C 316.261719 591.667969 315.875 589.875 315.519531 588.066406 C 315.160156 586.257812 314.832031 584.4375 314.53125 582.605469 C 314.234375 580.773438 313.964844 578.929688 313.722656 577.078125 C 313.484375 575.226562 313.273438 573.363281 313.089844 571.496094 C 312.910156 569.628906 312.761719 567.753906 312.640625 565.875 C 312.519531 563.996094 312.429688 562.109375 312.367188 560.222656 C 312.308594 558.335938 312.277344 556.449219 312.277344 554.558594 C 312.277344 552.671875 312.308594 550.78125 312.367188 548.894531 C 312.429688 547.007812 312.519531 545.125 312.640625 543.246094 C 312.761719 541.367188 312.910156 539.492188 313.089844 537.625 C 313.273438 535.753906 313.484375 533.894531 313.722656 532.042969 C 313.964844 530.1875 314.234375 528.34375 314.53125 526.511719 C 314.832031 524.679688 315.160156 522.859375 315.519531 521.054688 C 315.875 519.246094 316.261719 517.453125 316.675781 515.671875 C 317.09375 513.894531 317.535156 512.132812 318.007812 510.386719 C 318.476562 508.640625 318.976562 506.914062 319.503906 505.207031 C 320.03125 503.5 320.585938 501.8125 321.164062 500.148438 C 321.746094 498.480469 322.351562 496.839844 322.984375 495.21875 C 323.621094 493.597656 324.277344 492.003906 324.960938 490.429688 C 325.648438 488.859375 326.355469 487.316406 327.089844 485.800781 C 327.824219 484.28125 328.582031 482.792969 329.363281 481.332031 C 330.144531 479.875 330.949219 478.441406 331.777344 477.042969 C 332.605469 475.644531 333.453125 474.277344 334.324219 472.941406 C 335.195312 471.605469 336.089844 470.300781 337 469.035156 C 337.914062 467.765625 338.847656 466.53125 339.800781 465.332031 C 340.75 464.132812 341.722656 462.972656 342.710938 461.847656 C 343.699219 460.722656 344.707031 459.636719 345.730469 458.585938 C 346.757812 457.535156 347.796875 456.527344 348.855469 455.554688 C 349.910156 454.582031 350.980469 453.652344 352.066406 452.761719 C 353.15625 451.871094 354.253906 451.023438 355.367188 450.214844 C 356.480469 449.40625 357.609375 448.640625 358.746094 447.917969 C 359.886719 447.195312 361.035156 446.515625 362.195312 445.878906 C 363.355469 445.242188 364.523438 444.652344 365.703125 444.101562 C 366.882812 443.554688 368.066406 443.050781 369.261719 442.589844 C 370.457031 442.132812 371.660156 441.71875 372.867188 441.351562 C 374.078125 440.980469 375.289062 440.660156 376.507812 440.382812 C 377.726562 440.105469 378.949219 439.875 380.175781 439.6875 C 381.402344 439.503906 382.632812 439.363281 383.863281 439.269531 C 385.089844 439.179688 386.324219 439.132812 387.554688 439.132812 C 388.789062 439.132812 390.019531 439.179688 391.25 439.269531 C 392.480469 439.363281 393.707031 439.503906 394.933594 439.6875 C 396.160156 439.875 397.382812 440.105469 398.601562 440.382812 C 399.820312 440.660156 401.03125 440.980469 402.242188 441.351562 C 403.449219 441.71875 404.648438 442.132812 405.84375 442.589844 C 407.039062 443.050781 408.226562 443.554688 409.40625 444.101562 C 410.585938 444.652344 411.753906 445.242188 412.914062 445.878906 C 414.074219 446.515625 415.222656 447.195312 416.363281 447.917969 C 417.5 448.640625 418.625 449.40625 419.738281 450.214844 C 420.851562 451.023438 421.953125 451.871094 423.039062 452.761719 C 424.125 453.652344 425.199219 454.582031 426.253906 455.554688 C 427.3125 456.527344 428.351562 457.535156 429.375 458.585938 C 430.402344 459.632812 431.40625 460.722656 432.398438 461.847656 C 433.386719 462.972656 434.359375 464.132812 435.308594 465.332031 C 436.261719 466.53125 437.195312 467.765625 438.109375 469.035156 C 439.019531 470.300781 439.914062 471.605469 440.785156 472.941406 C 441.65625 474.277344 442.503906 475.644531 443.332031 477.042969 C 444.160156 478.441406 444.964844 479.875 445.746094 481.332031 C 446.527344 482.792969 447.285156 484.28125 448.019531 485.800781 C 448.753906 487.316406 449.460938 488.859375 450.144531 490.433594 C 450.832031 492.003906 451.488281 493.597656 452.121094 495.21875 C 452.753906 496.839844 453.363281 498.480469 453.945312 500.148438 C 454.523438 501.8125 455.078125 503.5 455.605469 505.207031 C 456.132812 506.914062 456.628906 508.640625 457.101562 510.386719 C 457.574219 512.132812 458.015625 513.894531 458.433594 515.671875 C 458.847656 517.453125 459.234375 519.246094 459.589844 521.054688 C 459.949219 522.859375 460.277344 524.679688 460.578125 526.511719 C 460.875 528.34375 461.144531 530.1875 461.386719 532.042969 C 461.625 533.894531 461.835938 535.753906 462.019531 537.625 C 462.199219 539.492188 462.351562 541.367188 462.472656 543.246094 C 462.589844 545.125 462.683594 547.007812 462.742188 548.894531 C 462.800781 550.78125 462.832031 552.671875 462.832031 554.558594 Z M 462.832031 554.558594 " fill-opacity="1" fill-rule="nonzero"/><g clip-path="url(#b8ed634092)"><path fill="#000000" d="M 387.554688 678.910156 C 364.335938 678.910156 342.765625 665.472656 326.851562 641.058594 C 311.695312 617.828125 303.355469 587.101562 303.355469 554.558594 C 303.355469 522.015625 311.695312 491.304688 326.851562 468.0625 C 342.777344 443.648438 364.335938 430.210938 387.554688 430.210938 C 410.773438 430.210938 432.34375 443.648438 448.257812 468.0625 C 463.414062 491.292969 471.753906 522.015625 471.753906 554.558594 C 471.753906 587.101562 463.414062 617.816406 448.257812 641.058594 C 432.332031 665.472656 410.773438 678.910156 387.554688 678.910156 Z M 387.554688 448.054688 C 370.558594 448.054688 354.308594 458.625 341.796875 477.808594 C 328.515625 498.171875 321.199219 525.429688 321.199219 554.558594 C 321.199219 583.691406 328.515625 610.9375 341.796875 631.3125 C 354.3125 650.503906 370.558594 661.066406 387.554688 661.066406 C 404.550781 661.066406 420.800781 650.492188 433.3125 631.3125 C 446.59375 610.945312 453.910156 583.691406 453.910156 554.558594 C 453.910156 525.429688 446.59375 498.183594 433.3125 477.808594 C 420.800781 458.617188 404.550781 448.054688 387.554688 448.054688 Z M 387.554688 448.054688 " fill-opacity="1" fill-rule="nonzero"/></g><path fill="#d82e46" d="M 362.484375 359.570312 C 320.027344 357.351562 279.800781 383.90625 266.484375 426.339844 C 253.167969 468.785156 271.011719 513.550781 307.125 535.992188 C 317.71875 542.570312 331.691406 537.386719 335.429688 525.472656 C 338.015625 517.234375 334.792969 508.1875 327.445312 503.648438 C 305.6875 490.222656 294.914062 463.289062 302.917969 437.773438 C 310.925781 412.253906 335.148438 396.308594 360.675781 397.710938 " fill-opacity="1" fill-rule="nonzero"/><path fill="#000000" d="M 317.152344 547.8125 C 312.007812 547.8125 306.925781 546.386719 302.40625 543.574219 C 261.96875 518.460938 243.691406 469.15625 257.964844 423.675781 C 272.230469 378.195312 315.367188 348.171875 362.941406 350.660156 C 367.859375 350.917969 371.640625 355.121094 371.382812 360.039062 C 371.128906 364.957031 366.921875 368.714844 362.003906 368.480469 C 322.636719 366.429688 286.816406 391.3125 274.984375 429.015625 C 263.152344 466.722656 278.296875 507.597656 311.820312 528.417969 C 314.507812 530.089844 317.75 530.414062 320.71875 529.3125 C 323.695312 528.207031 325.949219 525.84375 326.898438 522.808594 C 328.289062 518.371094 326.574219 513.609375 322.738281 511.242188 C 296.976562 495.339844 285.308594 464.035156 294.386719 435.105469 C 303.464844 406.175781 330.957031 387.160156 361.15625 388.8125 C 366.074219 389.082031 369.84375 393.296875 369.578125 398.214844 C 369.308594 403.132812 365.070312 406.890625 360.175781 406.632812 C 338.050781 405.40625 318.042969 419.324219 311.417969 440.449219 C 304.792969 461.582031 313.300781 484.445312 332.117188 496.066406 C 342.910156 502.722656 347.761719 515.929688 343.925781 528.164062 C 341.316406 536.492188 335.117188 543.007812 326.929688 546.050781 C 323.742188 547.234375 320.429688 547.824219 317.136719 547.824219 Z M 317.152344 547.8125 " fill-opacity="1" fill-rule="nonzero"/><path fill="#9caaff" d="M 412.648438 558.707031 C 412.648438 560.652344 412.597656 562.59375 412.503906 564.527344 C 412.40625 566.460938 412.261719 568.382812 412.066406 570.289062 C 411.875 572.195312 411.636719 574.082031 411.351562 575.941406 C 411.0625 577.800781 410.730469 579.628906 410.355469 581.425781 C 409.976562 583.222656 409.554688 584.976562 409.09375 586.691406 C 408.625 588.40625 408.121094 590.074219 407.574219 591.691406 C 407.023438 593.304688 406.4375 594.867188 405.8125 596.367188 C 405.1875 597.871094 404.523438 599.3125 403.828125 600.6875 C 403.128906 602.058594 402.402344 603.363281 401.640625 604.597656 C 400.875 605.832031 400.085938 606.988281 399.265625 608.066406 C 398.445312 609.148438 397.601562 610.148438 396.730469 611.0625 C 395.859375 611.980469 394.96875 612.808594 394.058594 613.554688 C 393.148438 614.296875 392.222656 614.953125 391.277344 615.515625 C 390.332031 616.082031 389.378906 616.554688 388.410156 616.933594 C 387.445312 617.3125 386.46875 617.597656 385.488281 617.789062 C 384.507812 617.976562 383.523438 618.074219 382.535156 618.074219 C 381.550781 618.074219 380.566406 617.976562 379.585938 617.789062 C 378.605469 617.597656 377.628906 617.3125 376.660156 616.933594 C 375.695312 616.554688 374.738281 616.082031 373.796875 615.515625 C 372.851562 614.953125 371.925781 614.296875 371.011719 613.554688 C 370.101562 612.808594 369.210938 611.980469 368.339844 611.0625 C 367.472656 610.148438 366.628906 609.148438 365.804688 608.066406 C 364.988281 606.988281 364.195312 605.832031 363.433594 604.597656 C 362.671875 603.363281 361.941406 602.058594 361.246094 600.683594 C 360.546875 599.3125 359.886719 597.871094 359.257812 596.367188 C 358.632812 594.867188 358.046875 593.304688 357.5 591.691406 C 356.949219 590.074219 356.445312 588.40625 355.980469 586.691406 C 355.515625 584.976562 355.09375 583.222656 354.714844 581.425781 C 354.339844 579.628906 354.007812 577.800781 353.722656 575.941406 C 353.433594 574.082031 353.195312 572.195312 353.003906 570.289062 C 352.8125 568.382812 352.667969 566.460938 352.570312 564.527344 C 352.472656 562.59375 352.425781 560.652344 352.425781 558.707031 C 352.425781 556.765625 352.472656 554.824219 352.570312 552.890625 C 352.667969 550.957031 352.8125 549.035156 353.003906 547.128906 C 353.195312 545.21875 353.433594 543.335938 353.722656 541.476562 C 354.007812 539.617188 354.339844 537.789062 354.714844 535.992188 C 355.09375 534.195312 355.515625 532.4375 355.980469 530.722656 C 356.445312 529.011719 356.949219 527.34375 357.5 525.726562 C 358.046875 524.109375 358.632812 522.550781 359.261719 521.046875 C 359.886719 519.546875 360.546875 518.105469 361.246094 516.730469 C 361.941406 515.355469 362.671875 514.054688 363.433594 512.820312 C 364.195312 511.585938 364.988281 510.429688 365.804688 509.347656 C 366.628906 508.269531 367.472656 507.269531 368.339844 506.355469 C 369.210938 505.4375 370.101562 504.605469 371.011719 503.863281 C 371.925781 503.117188 372.851562 502.464844 373.796875 501.902344 C 374.738281 501.335938 375.695312 500.863281 376.660156 500.484375 C 377.628906 500.105469 378.605469 499.820312 379.585938 499.628906 C 380.566406 499.441406 381.550781 499.34375 382.535156 499.34375 C 383.523438 499.34375 384.507812 499.441406 385.488281 499.628906 C 386.46875 499.820312 387.445312 500.105469 388.410156 500.484375 C 389.378906 500.863281 390.332031 501.335938 391.277344 501.902344 C 392.222656 502.464844 393.148438 503.121094 394.058594 503.863281 C 394.96875 504.605469 395.859375 505.4375 396.730469 506.355469 C 397.601562 507.269531 398.445312 508.269531 399.265625 509.347656 C 400.085938 510.429688 400.875 511.585938 401.640625 512.820312 C 402.402344 514.054688 403.128906 515.355469 403.828125 516.730469 C 404.523438 518.105469 405.1875 519.546875 405.8125 521.046875 C 406.4375 522.550781 407.023438 524.109375 407.570312 525.726562 C 408.121094 527.34375 408.625 529.011719 409.09375 530.722656 C 409.558594 532.4375 409.976562 534.195312 410.355469 535.992188 C 410.730469 537.789062 411.0625 539.617188 411.351562 541.476562 C 411.636719 543.335938 411.875 545.21875 412.066406 547.128906 C 412.261719 549.035156 412.40625 550.953125 412.503906 552.890625 C 412.597656 554.824219 412.648438 556.765625 412.648438 558.707031 Z M 412.648438 558.707031 " fill-opacity="1" fill-rule="nonzero"/><path fill="#000000" d="M 382.535156 626.996094 C 360.289062 626.996094 343.503906 597.640625 343.503906 558.707031 C 343.503906 519.777344 360.289062 490.421875 382.535156 490.421875 C 404.785156 490.421875 421.570312 519.777344 421.570312 558.707031 C 421.570312 597.640625 404.785156 626.996094 382.535156 626.996094 Z M 382.535156 508.277344 C 378.152344 508.277344 373.167969 512.949219 369.199219 520.78125 C 364.203125 530.617188 361.347656 544.445312 361.347656 558.71875 C 361.347656 572.996094 364.214844 586.824219 369.199219 596.660156 C 373.167969 604.488281 378.152344 609.164062 382.535156 609.164062 C 386.917969 609.164062 391.90625 604.488281 395.875 596.660156 C 400.871094 586.824219 403.726562 572.996094 403.726562 558.71875 C 403.726562 544.445312 400.859375 530.617188 395.875 520.78125 C 391.90625 512.949219 386.917969 508.277344 382.535156 508.277344 Z M 382.535156 508.277344 " fill-opacity="1" fill-rule="nonzero"/><path fill="#000000" d="M 625.367188 554.558594 C 625.367188 556.367188 625.324219 558.171875 625.242188 559.972656 C 625.15625 561.769531 625.035156 563.558594 624.867188 565.328125 C 624.699219 567.101562 624.492188 568.855469 624.246094 570.585938 C 623.996094 572.316406 623.710938 574.015625 623.382812 575.6875 C 623.054688 577.355469 622.691406 578.988281 622.289062 580.582031 C 621.886719 582.175781 621.449219 583.726562 620.972656 585.230469 C 620.5 586.734375 619.992188 588.183594 619.449219 589.582031 C 618.910156 590.980469 618.335938 592.316406 617.734375 593.59375 C 617.128906 594.875 616.496094 596.085938 615.839844 597.234375 C 615.175781 598.378906 614.492188 599.457031 613.78125 600.460938 C 613.074219 601.464844 612.34375 602.394531 611.589844 603.246094 C 610.835938 604.097656 610.066406 604.871094 609.277344 605.5625 C 608.488281 606.253906 607.6875 606.863281 606.871094 607.386719 C 606.054688 607.914062 605.226562 608.351562 604.386719 608.703125 C 603.550781 609.054688 602.710938 609.320312 601.859375 609.5 C 601.007812 609.675781 600.15625 609.765625 599.304688 609.765625 C 598.449219 609.765625 597.597656 609.675781 596.75 609.5 C 595.898438 609.320312 595.054688 609.054688 594.21875 608.703125 C 593.382812 608.351562 592.554688 607.914062 591.738281 607.386719 C 590.921875 606.863281 590.117188 606.253906 589.328125 605.5625 C 588.542969 604.871094 587.769531 604.097656 587.015625 603.246094 C 586.265625 602.394531 585.535156 601.464844 584.824219 600.460938 C 584.113281 599.457031 583.429688 598.378906 582.769531 597.234375 C 582.109375 596.085938 581.476562 594.875 580.875 593.59375 C 580.269531 592.316406 579.699219 590.980469 579.15625 589.582031 C 578.617188 588.183594 578.105469 586.734375 577.632812 585.230469 C 577.160156 583.726562 576.71875 582.179688 576.316406 580.582031 C 575.914062 578.988281 575.550781 577.355469 575.222656 575.6875 C 574.898438 574.015625 574.609375 572.316406 574.363281 570.585938 C 574.113281 568.855469 573.90625 567.101562 573.742188 565.328125 C 573.574219 563.558594 573.449219 561.769531 573.367188 559.972656 C 573.28125 558.171875 573.242188 556.367188 573.242188 554.558594 C 573.242188 552.753906 573.28125 550.949219 573.367188 549.148438 C 573.449219 547.351562 573.574219 545.5625 573.742188 543.789062 C 573.90625 542.015625 574.113281 540.265625 574.363281 538.535156 C 574.609375 536.804688 574.898438 535.105469 575.222656 533.433594 C 575.550781 531.765625 575.914062 530.132812 576.316406 528.535156 C 576.71875 526.941406 577.160156 525.394531 577.632812 523.890625 C 578.105469 522.386719 578.613281 520.9375 579.15625 519.539062 C 579.699219 518.140625 580.269531 516.804688 580.875 515.523438 C 581.476562 514.246094 582.109375 513.035156 582.769531 511.886719 C 583.429688 510.738281 584.113281 509.664062 584.824219 508.660156 C 585.535156 507.65625 586.265625 506.726562 587.015625 505.875 C 587.769531 505.023438 588.542969 504.25 589.328125 503.558594 C 590.117188 502.867188 590.921875 502.257812 591.738281 501.734375 C 592.554688 501.207031 593.382812 500.769531 594.21875 500.417969 C 595.054688 500.0625 595.898438 499.796875 596.75 499.621094 C 597.597656 499.445312 598.449219 499.355469 599.304688 499.355469 C 600.15625 499.355469 601.007812 499.445312 601.859375 499.621094 C 602.707031 499.796875 603.550781 500.0625 604.386719 500.417969 C 605.226562 500.769531 606.054688 501.207031 606.871094 501.734375 C 607.6875 502.257812 608.488281 502.867188 609.277344 503.558594 C 610.066406 504.25 610.835938 505.023438 611.589844 505.875 C 612.34375 506.726562 613.074219 507.65625 613.78125 508.660156 C 614.492188 509.664062 615.175781 510.738281 615.839844 511.886719 C 616.496094 513.035156 617.128906 514.246094 617.734375 515.523438 C 618.335938 516.804688 618.910156 518.140625 619.449219 519.539062 C 619.992188 520.9375 620.5 522.386719 620.972656 523.890625 C 621.449219 525.394531 621.886719 526.941406 622.289062 528.535156 C 622.691406 530.132812 623.054688 531.765625 623.382812 533.433594 C 623.710938 535.105469 623.996094 536.804688 624.246094 538.535156 C 624.492188 540.265625 624.699219 542.015625 624.867188 543.789062 C 625.035156 545.5625 625.15625 547.351562 625.242188 549.148438 C 625.324219 550.949219 625.367188 552.753906 625.367188 554.558594 Z M 625.367188 554.558594 " fill-opacity="1" fill-rule="nonzero"/><path fill="#000000" d="M 599.304688 618.6875 C 579.363281 618.6875 564.320312 591.117188 564.320312 554.558594 C 564.320312 518.003906 579.363281 490.433594 599.304688 490.433594 C 619.246094 490.433594 634.289062 518.003906 634.289062 554.558594 C 634.289062 591.117188 619.246094 618.6875 599.304688 618.6875 Z M 599.304688 508.277344 C 592.480469 508.277344 582.164062 526.734375 582.164062 554.558594 C 582.164062 582.386719 592.480469 600.84375 599.304688 600.84375 C 606.128906 600.84375 616.445312 582.386719 616.445312 554.558594 C 616.445312 526.734375 606.128906 508.277344 599.304688 508.277344 Z M 599.304688 508.277344 " fill-opacity="1" fill-rule="nonzero"/><path fill="#000000" d="M 255.511719 199.1875 L 145.105469 199.1875 C 140.175781 199.1875 136.183594 195.195312 136.183594 190.265625 C 136.183594 185.335938 140.175781 181.34375 145.105469 181.34375 L 255.511719 181.34375 C 260.441406 181.34375 264.433594 185.335938 264.433594 190.265625 C 264.433594 195.195312 260.441406 199.1875 255.511719 199.1875 Z M 255.511719 199.1875 " fill-opacity="1" fill-rule="nonzero"/><path fill="#000000" d="M 305.699219 229.300781 L 245.476562 229.300781 C 240.546875 229.300781 236.554688 225.308594 236.554688 220.378906 C 236.554688 215.449219 240.546875 211.457031 245.476562 211.457031 L 305.699219 211.457031 C 310.625 211.457031 314.621094 215.449219 314.621094 220.378906 C 314.621094 225.308594 310.625 229.300781 305.699219 229.300781 Z M 305.699219 229.300781 " fill-opacity="1" fill-rule="nonzero"/><path fill="#000000" d="M 205.328125 169.078125 L 175.214844 169.078125 C 170.285156 169.078125 166.292969 165.082031 166.292969 160.15625 C 166.292969 155.226562 170.285156 151.230469 175.214844 151.230469 L 205.328125 151.230469 C 210.253906 151.230469 214.25 155.226562 214.25 160.15625 C 214.25 165.082031 210.253906 169.078125 205.328125 169.078125 Z M 205.328125 169.078125 " fill-opacity="1" fill-rule="nonzero"/><path fill="#000000" d="M 155.140625 420.007812 L 114.992188 420.007812 C 110.0625 420.007812 106.070312 416.011719 106.070312 411.085938 C 106.070312 406.15625 110.0625 402.160156 114.992188 402.160156 L 155.140625 402.160156 C 160.070312 402.160156 164.0625 406.15625 164.0625 411.085938 C 164.0625 416.011719 160.070312 420.007812 155.140625 420.007812 Z M 155.140625 420.007812 " fill-opacity="1" fill-rule="nonzero"/><path fill="#000000" d="M 225.402344 389.894531 L 94.917969 389.894531 C 89.988281 389.894531 85.996094 385.902344 85.996094 380.972656 C 85.996094 376.042969 89.988281 372.050781 94.917969 372.050781 L 225.402344 372.050781 C 230.328125 372.050781 234.324219 376.042969 234.324219 380.972656 C 234.324219 385.902344 230.328125 389.894531 225.402344 389.894531 Z M 225.402344 389.894531 " fill-opacity="1" fill-rule="nonzero"/><path fill="#000000" d="M 195.289062 420.007812 L 185.253906 420.007812 C 180.324219 420.007812 176.332031 416.011719 176.332031 411.085938 C 176.332031 406.15625 180.324219 402.160156 185.253906 402.160156 L 195.289062 402.160156 C 200.21875 402.160156 204.210938 406.15625 204.210938 411.085938 C 204.210938 416.011719 200.21875 420.007812 195.289062 420.007812 Z M 195.289062 420.007812 " fill-opacity="1" fill-rule="nonzero"/><path fill="#000000" d="M 249.15625 581.4375 L 198.96875 581.4375 C 194.039062 581.4375 190.046875 577.445312 190.046875 572.515625 C 190.046875 567.585938 194.039062 563.59375 198.96875 563.59375 L 249.15625 563.59375 C 254.085938 563.59375 258.078125 567.585938 258.078125 572.515625 C 258.078125 577.445312 254.085938 581.4375 249.15625 581.4375 Z M 249.15625 581.4375 " fill-opacity="1" fill-rule="nonzero"/><path fill="#000000" d="M 259.191406 611.550781 L 219.042969 611.550781 C 214.113281 611.550781 210.121094 607.554688 210.121094 602.628906 C 210.121094 597.699219 214.113281 593.707031 219.042969 593.707031 L 259.191406 593.707031 C 264.121094 593.707031 268.113281 597.699219 268.113281 602.628906 C 268.113281 607.554688 264.121094 611.550781 259.191406 611.550781 Z M 259.191406 611.550781 " fill-opacity="1" fill-rule="nonzero"/><path fill="#000000" d="M 188.933594 611.550781 L 178.894531 611.550781 C 173.964844 611.550781 169.972656 607.554688 169.972656 602.628906 C 169.972656 597.699219 173.964844 593.707031 178.894531 593.707031 L 188.933594 593.707031 C 193.863281 593.707031 197.855469 597.699219 197.855469 602.628906 C 197.855469 607.554688 193.863281 611.550781 188.933594 611.550781 Z M 188.933594 611.550781 " fill-opacity="1" fill-rule="nonzero"/><path fill="#000000" d="M 251.832031 360.621094 L 161.5 360.621094 C 156.570312 360.621094 152.578125 356.625 152.578125 351.699219 C 152.578125 346.769531 156.570312 342.773438 161.5 342.773438 L 251.832031 342.773438 C 256.761719 342.773438 260.753906 346.769531 260.753906 351.699219 C 260.753906 356.625 256.761719 360.621094 251.832031 360.621094 Z M 251.832031 360.621094 " fill-opacity="1" fill-rule="nonzero"/><path fill="#000000" d="M 275.585938 640.824219 L 145.105469 640.824219 C 140.175781 640.824219 136.183594 636.832031 136.183594 631.902344 C 136.183594 626.972656 140.175781 622.980469 145.105469 622.980469 L 275.585938 622.980469 C 280.515625 622.980469 284.507812 626.972656 284.507812 631.902344 C 284.507812 636.832031 280.515625 640.824219 275.585938 640.824219 Z M 275.585938 640.824219 " fill-opacity="1" fill-rule="nonzero"/></svg>