<svg width="749" height="225.99998999999997" xmlns="http://www.w3.org/2000/svg" version="1.0" preserveAspectRatio="xMidYMid meet" zoomAndPan="magnify">

 <g>
  <title>Layer 1</title>
  <path id="svg_1" fill-rule="nonzero" d="m89.94171,93.88131c-6.97266,-2.48438 -14.53516,-3.82813 -22.39453,-3.82813c-37.14063,0 -67.20703,30.06641 -67.20703,67.20313c0,37.14062 30.0664,67.20703 67.20703,67.20703c37.13672,0 67.20312,-30.06641 67.20312,-67.20703c0,-29.26563 -18.67187,-54.16016 -44.79687,-63.36328l-0.01172,-0.01172zm-22.40625,85.77343c-12.39453,0 -22.39844,-10.0039 -22.39844,-22.39843c0,-12.39453 10.00391,-22.39844 22.39844,-22.39844c12.39453,0 22.39453,10.00391 22.39453,22.39844c0,12.39453 -10,22.39843 -22.39453,22.39843zm0,0" fill="#d00b1e"/>
  <path id="svg_2" fill-rule="nonzero" d="m87.08233,43.82271c0,1.41797 -0.0664,2.83594 -0.20703,4.25c-0.14062,1.41407 -0.34765,2.81641 -0.625,4.21094c-0.27734,1.39453 -0.62109,2.76953 -1.03515,4.12891c-0.41016,1.35937 -0.89063,2.69531 -1.4336,4.00781c-0.54297,1.3125 -1.14844,2.59375 -1.82031,3.84766c-0.66797,1.25 -1.39844,2.46875 -2.1875,3.64843c-0.78906,1.1836 -1.63281,2.32032 -2.53516,3.42188c-0.90234,1.09765 -1.85547,2.14844 -2.85937,3.15234c-1.00391,1.00391 -2.05469,1.95703 -3.15235,2.85938c-1.09765,0.89843 -2.23828,1.74609 -3.41796,2.53515c-1.1836,0.78907 -2.39844,1.51563 -3.65235,2.1875c-1.25,0.66797 -2.53515,1.27735 -3.84765,1.82032c-1.3125,0.54296 -2.64844,1.01953 -4.00782,1.43359c-1.35937,0.41016 -2.73437,0.75781 -4.1289,1.03516c-1.39063,0.27343 -2.79688,0.48437 -4.20703,0.62109c-1.41407,0.14062 -2.83204,0.21094 -4.25391,0.21094c-1.41797,0 -2.83594,-0.07032 -4.25,-0.21094c-1.41406,-0.13672 -2.81641,-0.34766 -4.21094,-0.62109c-1.39062,-0.27735 -2.76953,-0.625 -4.1289,-1.03516c-1.35938,-0.41406 -2.69532,-0.89063 -4.00782,-1.43359c-1.3125,-0.54297 -2.59375,-1.15235 -3.84765,-1.82032c-1.25,-0.67187 -2.46875,-1.39843 -3.64844,-2.1875c-1.18359,-0.78906 -2.32031,-1.63672 -3.41797,-2.53515c-1.09766,-0.90235 -2.15234,-1.85547 -3.15625,-2.85938c-1.00391,-1.0039 -1.95703,-2.05469 -2.85547,-3.15234c-0.90234,-1.10156 -1.75,-2.23828 -2.53906,-3.42188c-0.78906,-1.17968 -1.51563,-2.39843 -2.1875,-3.64843c-0.66797,-1.25391 -1.27344,-2.53516 -1.82031,-3.84766c-0.54297,-1.3125 -1.01953,-2.64844 -1.4336,-4.00781c-0.41015,-1.35938 -0.7539,-2.73438 -1.03125,-4.12891c-0.27734,-1.39453 -0.48828,-2.79687 -0.625,-4.21094c-0.14062,-1.41406 -0.21093,-2.83203 -0.21093,-4.25c0,-1.42187 0.07031,-2.83984 0.21093,-4.25c0.13672,-1.41406 0.34766,-2.82031 0.625,-4.21093c0.27735,-1.39454 0.6211,-2.76954 1.03125,-4.12891c0.41407,-1.35938 0.89063,-2.69531 1.4336,-4.00781c0.54687,-1.3125 1.15234,-2.59375 1.82031,-3.84766c0.67187,-1.25391 1.39844,-2.46875 2.1875,-3.65234c0.78906,-1.17969 1.63672,-2.32032 2.53906,-3.41797c0.89844,-1.09766 1.85156,-2.14844 2.85547,-3.15235c1.00391,-1.0039 2.05859,-1.95703 3.15625,-2.85937c1.09766,-0.90234 2.23438,-1.74609 3.41797,-2.53516c1.17969,-0.78906 2.39844,-1.51953 3.64844,-2.1875c1.2539,-0.67187 2.53515,-1.27734 3.84765,-1.82031c1.3125,-0.54297 2.64844,-1.02344 4.00782,-1.43359c1.35937,-0.41407 2.73828,-0.75782 4.1289,-1.03516c1.39453,-0.27734 2.79688,-0.48437 4.21094,-0.625c1.41406,-0.13672 2.83203,-0.20703 4.25,-0.20703c1.42187,0 2.83984,0.07031 4.25391,0.20703c1.41015,0.14063 2.8164,0.34766 4.20703,0.625c1.39453,0.27734 2.76953,0.62109 4.1289,1.03516c1.35938,0.41015 2.69532,0.89062 4.00782,1.43359c1.3125,0.54297 2.59765,1.14844 3.84765,1.82031c1.25391,0.66797 2.46875,1.39844 3.65235,2.1875c1.17968,0.78907 2.32031,1.63282 3.41796,2.53516c1.09766,0.90234 2.14844,1.85547 3.15235,2.85937c1.0039,1.00391 1.95703,2.05469 2.85937,3.15235c0.90235,1.09765 1.7461,2.23828 2.53516,3.41797c0.78906,1.18359 1.51953,2.39843 2.1875,3.65234c0.67187,1.25391 1.27734,2.53516 1.82031,3.84766c0.54297,1.3125 1.02344,2.64843 1.4336,4.00781c0.41406,1.35937 0.75781,2.73437 1.03515,4.12891c0.27735,1.39062 0.48438,2.79687 0.625,4.21093c0.14063,1.41016 0.20703,2.82813 0.20703,4.25zm0,0" fill="#d00b1e"/>
  <path id="svg_3" fill-rule="nonzero" d="m157.13702,0.45162c-37.14062,0 -67.20703,30.0625 -67.20703,67.20312l0,89.60157c0,12.39453 10.00391,22.39843 22.39844,22.39843c12.39453,0 22.39843,-10.0039 22.39843,-22.39843l0,-26.23438c6.97266,2.48047 14.53516,3.82813 22.39844,3.82813c37.14063,0 67.20313,-30.06641 67.20313,-67.20703c0,-37.14063 -30.0625,-67.20313 -67.20313,-67.20313l0.01172,0.01172zm0,89.60156c-12.39453,0 -22.39844,-10.0039 -22.39844,-22.39844c0,-12.39453 10.00391,-22.39843 22.39844,-22.39843c12.39453,0 22.39844,10.0039 22.39844,22.39843c0,12.39454 -10.00391,22.39844 -22.39844,22.39844zm0,0" fill="#600909"/>
  <path id="svg_4" fill-rule="nonzero" d="m224.34015,157.24459c0,0.73437 -0.03516,1.46484 -0.10938,2.19531c-0.07031,0.73047 -0.17578,1.45703 -0.32031,2.17578c-0.14453,0.71875 -0.32031,1.42969 -0.53516,2.13281c-0.21094,0.69922 -0.45703,1.39063 -0.73828,2.07032c-0.28125,0.67578 -0.59375,1.33984 -0.94141,1.98437c-0.34375,0.64844 -0.72265,1.27735 -1.1289,1.88672c-0.41016,0.60938 -0.84375,1.19922 -1.3086,1.76563c-0.46875,0.5664 -0.96093,1.10937 -1.47656,1.6289c-0.51953,0.51563 -1.0625,1.00781 -1.6289,1.47656c-0.56641,0.46485 -1.15625,0.89844 -1.76563,1.3086c-0.60937,0.40625 -1.23828,0.78515 -1.88672,1.1289c-0.64453,0.34766 -1.30859,0.66016 -1.98437,0.94141c-0.67969,0.28125 -1.3711,0.52734 -2.07032,0.73828c-0.70312,0.21485 -1.41406,0.39063 -2.13281,0.53516c-0.71875,0.14453 -1.44531,0.25 -2.17578,0.32422c-0.73047,0.07031 -1.46094,0.10547 -2.19531,0.10547c-0.73047,0 -1.46485,-0.03516 -2.19531,-0.10547c-0.73047,-0.07422 -1.45313,-0.17969 -2.17188,-0.32422c-0.71875,-0.14453 -1.42969,-0.32031 -2.13281,-0.53516c-0.70313,-0.21094 -1.39063,-0.45703 -2.07031,-0.73828c-0.67579,-0.28125 -1.33985,-0.59375 -1.98829,-0.94141c-0.64453,-0.34375 -1.27343,-0.72265 -1.88281,-1.1289c-0.60937,-0.41016 -1.19922,-0.84375 -1.76562,-1.3086c-0.56641,-0.46875 -1.10938,-0.95703 -1.62891,-1.47656c-0.51953,-0.51953 -1.01172,-1.0625 -1.47656,-1.6289c-0.46485,-0.56641 -0.90235,-1.15625 -1.3086,-1.76563c-0.41015,-0.60937 -0.78515,-1.23828 -1.1289,-1.88672c-0.34766,-0.64453 -0.66016,-1.30859 -0.94141,-1.98437c-0.28125,-0.67969 -0.52734,-1.3711 -0.74219,-2.07032c-0.21093,-0.70312 -0.39062,-1.41406 -0.53125,-2.13281c-0.14453,-0.71875 -0.25,-1.44531 -0.32421,-2.17578c-0.07032,-0.73047 -0.10938,-1.46094 -0.10938,-2.19531c0,-0.73047 0.03906,-1.46485 0.10938,-2.19531c0.07421,-0.73047 0.17968,-1.45313 0.32421,-2.17188c0.14063,-0.71875 0.32032,-1.42969 0.53125,-2.13281c0.21485,-0.70313 0.46094,-1.39063 0.74219,-2.07031c0.28125,-0.67579 0.59375,-1.33985 0.94141,-1.98829c0.34375,-0.64453 0.71875,-1.27343 1.1289,-1.88281c0.40625,-0.60937 0.84375,-1.19922 1.3086,-1.76562c0.46484,-0.56641 0.95703,-1.10938 1.47656,-1.62891c0.51953,-0.51953 1.0625,-1.01172 1.62891,-1.47656c0.5664,-0.46485 1.15625,-0.90235 1.76562,-1.3086c0.60938,-0.40625 1.23828,-0.78515 1.88281,-1.1289c0.64844,-0.34766 1.3125,-0.66016 1.98829,-0.94141c0.67968,-0.28125 1.36718,-0.52734 2.07031,-0.74219c0.70312,-0.21093 1.41406,-0.39062 2.13281,-0.53125c0.71875,-0.14453 1.44141,-0.25 2.17188,-0.32421c0.73046,-0.07032 1.46484,-0.10547 2.19531,-0.10547c0.73437,0 1.46484,0.03515 2.19531,0.10547c0.73047,0.07421 1.45703,0.17968 2.17578,0.32421c0.71875,0.14063 1.42969,0.32032 2.13281,0.53125c0.69922,0.21485 1.39063,0.46094 2.07032,0.74219c0.67578,0.28125 1.33984,0.59375 1.98437,0.94141c0.64844,0.34375 1.27735,0.72265 1.88672,1.1289c0.60938,0.40625 1.19922,0.84375 1.76563,1.3086c0.5664,0.46484 1.10937,0.95703 1.6289,1.47656c0.51563,0.51953 1.00781,1.0625 1.47656,1.62891c0.46485,0.5664 0.89844,1.15625 1.3086,1.76562c0.40625,0.60938 0.78515,1.23828 1.1289,1.88281c0.34766,0.64844 0.66016,1.3125 0.94141,1.98829c0.28125,0.67968 0.52734,1.36718 0.73828,2.07031c0.21485,0.70312 0.39063,1.41406 0.53516,2.13281c0.14453,0.71875 0.25,1.44141 0.32031,2.17188c0.07422,0.73046 0.10938,1.46484 0.10938,2.19531zm0,0" fill="#600909"/>
  <path id="svg_5" fill-rule="nonzero" d="m89.94171,93.88131l0,63.36328c0,12.39453 10.0039,22.39844 22.39844,22.39844c12.39453,0 22.39843,-10.00391 22.39843,-22.39844c0,-29.26563 -18.67187,-54.16016 -44.79687,-63.36328zm0,0" fill="#980a14"/>
  <path id="svg_6" fill-rule="nonzero" d="m312.60968,92.86568l6.66406,-42.3125l-15.4375,0l1.96094,-12.54297l44.1914,0l-1.96093,12.54297l-15.51563,0l-6.66406,42.3125l-13.23828,0zm0,0" fill="#600909"/>
  <path id="svg_7" fill-rule="nonzero" d="m348.57452,92.86568l8.625,-54.85547l13.31641,0l-3.3711,21.55469l18.73047,0l3.45313,-21.55469l13.23828,0l-8.625,54.85547l-13.25,0l3.21094,-20.6875l-18.8086,0l-3.21094,20.6875l-13.32031,0l0.01172,0zm0,0" fill="#600909"/>
  <path id="svg_8" fill-rule="nonzero" d="m405.15265,92.86568l8.70312,-54.85547l37.69531,0l-2.03906,12.46485l-24.20703,0l-1.49219,9.41015l21.39453,0l-1.71875,10.73047l-21.47656,0l-1.57031,9.80078l24.36719,0l-1.96094,12.46094l-37.69531,0l0,-0.01172zm0,0" fill="#600909"/>
  <path id="svg_9" fill-rule="nonzero" d="m474.41827,92.86568l8.625,-54.85547l19.90234,0c11.12891,0 17.15625,5.25391 17.15625,13.23828c0,6.42579 -3.21484,11.29297 -8.625,13.71875l0,0.23829c4.54688,2.12109 7.21094,6.42578 7.21094,11.1289c0,8.3086 -4.85156,16.53125 -18.57031,16.53125l-25.69922,0zm15.04688,-11.1289l8.77343,0c4.54688,0 7.3711,-2.34766 7.3711,-6.50391c0,-3.21484 -2.27735,-5.25391 -6.58594,-5.25391l-7.67578,0l-1.88281,11.75782zm3.4414,-21.63672l7.45313,0c3.99609,0 6.42187,-2.58594 6.42187,-6.10547c0,-3.13281 -2.11719,-4.86328 -5.875,-4.86328l-6.1875,0l-1.80078,10.97265l-0.01172,-0.0039zm0,0" fill="#600909"/>
  <path id="svg_10" fill-rule="nonzero" d="m524.32843,92.86568l8.625,-54.85547l13.3164,0l-6.66406,42.3125l23.98047,0l-1.96094,12.54297l-37.29687,0zm0,0" fill="#600909"/>
  <path id="svg_11" fill-rule="nonzero" d="m569.38702,67.79146c0,-16.38281 11.98438,-30.95312 30.71094,-30.95312c15.59765,0 26.64844,11.67578 26.64844,26.10156c0,15.98438 -11.27735,31.11328 -30.71485,31.11328c-15.7539,0 -26.64453,-11.75781 -26.64453,-26.25l0,-0.01172zm44.10938,-4.23828c0,-8.38281 -5.79688,-14.26172 -14.26172,-14.26172c-9.95703,0 -16.69141,8.14453 -16.69141,17.71485c0,8.625 5.80078,14.57031 14.34375,14.57031c9.95703,0 16.60938,-8.46484 16.60938,-18.02344zm0,0" fill="#600909"/>
  <path id="svg_12" fill-rule="nonzero" d="m632.61358,67.79146c0,-16.38281 11.98438,-30.95312 30.71485,-30.95312c15.59375,0 26.64453,11.67578 26.64453,26.10156c0,15.98438 -11.27735,31.11328 -30.71094,31.11328c-15.75781,0 -26.64844,-11.75781 -26.64844,-26.25l0,-0.01172zm44.125,-4.23828c0,-8.38281 -5.80078,-14.26172 -14.26562,-14.26172c-9.95703,0 -16.69141,8.14453 -16.69141,17.71485c0,8.625 5.80078,14.57031 14.34375,14.57031c9.95703,0 16.61328,-8.46484 16.61328,-18.02344zm0,0" fill="#600909"/>
  <path id="svg_13" fill-rule="nonzero" d="m694.19952,92.86568l8.625,-54.85547l18.96875,0c16.22266,0 26.01953,10.97266 26.01953,24.9961c0,14.8125 -11.1289,29.85937 -30.87109,29.85937l-22.74219,0zm15.21094,-12.07422l8.54297,0c10.10547,0 16.61328,-8.22656 16.61328,-17.23828c0,-7.21094 -5.09375,-13.47656 -13.5586,-13.47656l-6.74609,0l-4.85156,30.71484zm0,0" fill="#600909"/>
  <path id="svg_14" fill-rule="nonzero" d="m335.96515,166.98678l7.67578,19.90234l-14.02344,0l-6.18359,-17.94141l-6.1875,0l-2.82422,17.94141l-13.32032,0l8.625,-54.85547l19.59375,0c11.21094,0 18.57032,5.49219 18.57032,16.45313c0,8.07421 -3.91797,15.19531 -11.91407,18.48828l-0.01171,0.01172zm-14.73047,-23.35547l-2.19922,13.94531l6.89062,0c5.5625,0 8.85157,-2.97266 8.85157,-7.75781c0,-3.76172 -2.26563,-6.1875 -6.58204,-6.1875l-6.97265,0l0.01172,0zm0,0" fill="#600909"/>
  <path id="svg_15" fill-rule="nonzero" d="m354.14483,161.65474l4.70703,-29.62109l13.31641,0l-4.70312,30.32813c-1.33204,7.91796 1.49218,13.25 8.77343,13.25c5.48828,0 9.63672,-3.60157 10.96875,-11.98438l5.09375,-31.58203l13.25,0l-5.2539,33.23047c-2.34766,15.05078 -11.98438,22.80859 -25.07422,22.80859c-15.51563,0 -23.58203,-10.5039 -21.07813,-26.40625l0,-0.02344zm0,0" fill="#600909"/>
  <path id="svg_16" fill-rule="nonzero" d="m407.19171,186.88912l8.62109,-54.85547l13.39844,0l15.27734,32.83203l5.17188,-32.83203l12.92969,0l-8.6211,54.85547l-13.39844,0l-15.27734,-32.75391l-5.17187,32.75391l-12.92969,0zm0,0" fill="#600909"/>
  <path id="svg_17" fill-rule="nonzero" d="m483.81671,186.88912l1.71875,-10.89063l17.86328,-15.27734c6.34766,-5.55859 8.14844,-8.14453 8.14844,-11.91797c0,-3.21094 -2.34766,-5.17187 -5.87891,-5.17187c-2.89453,0 -5.96094,1.09375 -9.17187,2.97265l-4.78516,-10.26172c4.85156,-3.375 10.10547,-5.49218 16.38281,-5.49218c10.02344,0 17.39453,5.95703 17.39453,15.98437c0,8.22266 -3.99609,14.02344 -12.84765,21.55469l-8.22657,7.05078l16.92969,0l-1.72265,11.4375l-35.81641,0l0.01172,0.01172zm0,0" fill="#600909"/>
  <path id="svg_18" fill-rule="nonzero" d="m529.82061,163.69381c0,-17.55469 10.58204,-32.44532 26.72657,-32.44532c13.08984,0 21.78125,9.5586 21.78125,23.98047c0,17.94532 -9.48047,32.44532 -26.64844,32.44532c-13.31641,0 -21.85938,-9.41016 -21.85938,-23.98047zm35.25782,-8.14453c0,-7.51954 -3.45313,-11.75782 -9.39844,-11.75782c-7.29297,0 -12.69141,8.30469 -12.69141,19.59375c0,7.29297 3.67969,11.75782 9.48047,11.75782c7.36719,0 12.60938,-8.14454 12.60938,-19.59375zm0,0" fill="#600909"/>
  <path id="svg_19" fill-rule="nonzero" d="m578.94171,186.88912l1.72265,-10.89063l17.86329,-15.27734c6.34375,-5.55859 8.14453,-8.14453 8.14453,-11.91797c0,-3.21094 -2.34766,-5.17187 -5.87891,-5.17187c-2.89062,0 -5.95703,1.09375 -9.16797,2.97265l-4.78515,-10.26172c4.85156,-3.375 10.10546,-5.49218 16.3789,-5.49218c10.02735,0 17.39844,5.95703 17.39844,15.98437c0,8.22266 -4,14.02344 -12.85156,21.55469l-8.22657,7.05078l16.92969,0l-1.71875,11.4375l-35.8164,0l0.00781,0.01172zm0,0" fill="#600909"/>
  <path id="svg_20" fill-rule="nonzero" d="m659.66046,166.27974l6.18359,0l-1.71875,10.89063l-6.1875,0l-1.57031,9.71875l-13.01172,0l1.49219,-9.71875l-23.66016,0l1.71875,-10.89063l23.90235,-34.24609l18.18359,0l-5.33203,34.24609zm-23.4336,0l10.73047,0l3.13282,-19.90234l-13.86329,19.90234zm0,0" fill="#600909"/>
 </g>
</svg>