<?xml version="1.0" encoding="UTF-8"?><svg id="Calque_1" xmlns="http://www.w3.org/2000/svg" viewBox="0 0 1000 1000"><defs><style>.cls-1{font-family:Helvetica-BoldOblique, Helvetica;font-size:73px;font-style:oblique;font-weight:700;}.cls-1,.cls-2{fill:#600909;}.cls-3{fill:#d00b1e;}.cls-4{fill:#980a14;}</style></defs><path class="cls-3" d="M250.6,483.7c-6.12-2.18-12.76-3.36-19.66-3.36-32.6,0-58.99,26.39-58.99,58.99s26.39,58.99,58.99,58.99,58.99-26.39,58.99-58.99c0-25.69-16.39-47.54-39.32-55.62ZM230.93,558.99c-10.88,0-19.66-8.78-19.66-19.66s8.78-19.66,19.66-19.66,19.66,8.78,19.66,19.66-8.78,19.66-19.66,19.66Z"/><circle class="cls-3" cx="210.02" cy="439.76" r="38.07"/><path class="cls-2" d="M309.58,401.69c-32.6,0-58.99,26.39-58.99,58.99v78.65c0,10.88,8.78,19.66,19.66,19.66s19.66-8.78,19.66-19.66v-23.03c6.12,2.18,12.76,3.36,19.66,3.36,32.6,0,58.99-26.39,58.99-58.99s-26.39-58.99-58.99-58.99ZM309.58,480.34c-10.88,0-19.66-8.78-19.66-19.66s8.78-19.66,19.66-19.66,19.66,8.78,19.66,19.66-8.78,19.66-19.66,19.66Z"/><circle class="cls-2" cx="348.91" cy="539.32" r="19.66"/><path class="cls-4" d="M250.6,483.7v55.62c0,10.88,8.78,19.66,19.66,19.66s19.66-8.78,19.66-19.66c0-25.69-16.39-47.54-39.32-55.62Z"/><text class="cls-1" transform="translate(425.43 484.45)"><tspan x="0" y="0">THE BLOOD</tspan><tspan x="0" y="81" xml:space="preserve"> RUN 2025</tspan></text></svg>