<svg xmlns="http://www.w3.org/2000/svg" xmlns:xlink="http://www.w3.org/1999/xlink" width="1000" zoomAndPan="magnify" viewBox="0 0 750 216.749995" height="289" preserveAspectRatio="xMidYMid meet" version="1.2"><defs/><g id="c79eef972b"><path style=" stroke:none;fill-rule:nonzero;fill:#d00b1e;fill-opacity:1;" d="M 87.015625 90.304688 C 80.378906 87.941406 73.175781 86.660156 65.691406 86.660156 C 30.328125 86.660156 1.699219 115.285156 1.699219 150.648438 C 1.699219 186.011719 30.328125 214.640625 65.691406 214.640625 C 101.054688 214.640625 129.679688 186.011719 129.679688 150.648438 C 129.679688 122.78125 111.898438 99.082031 87.027344 90.316406 Z M 65.679688 171.976562 C 53.878906 171.976562 44.351562 162.453125 44.351562 150.648438 C 44.351562 138.847656 53.878906 129.324219 65.679688 129.324219 C 77.480469 129.324219 87.003906 138.847656 87.003906 150.648438 C 87.003906 162.453125 77.480469 171.976562 65.679688 171.976562 Z M 65.679688 171.976562 "/><path style=" stroke:none;fill-rule:nonzero;fill:#d00b1e;fill-opacity:1;" d="M 84.292969 42.640625 C 84.292969 43.992188 84.226562 45.34375 84.09375 46.6875 C 83.960938 48.035156 83.765625 49.371094 83.5 50.699219 C 83.234375 52.023438 82.90625 53.335938 82.515625 54.628906 C 82.121094 55.921875 81.667969 57.195312 81.148438 58.445312 C 80.632812 59.695312 80.054688 60.914062 79.417969 62.109375 C 78.78125 63.300781 78.085938 64.460938 77.332031 65.585938 C 76.582031 66.707031 75.777344 67.792969 74.917969 68.839844 C 74.0625 69.882812 73.15625 70.886719 72.199219 71.84375 C 71.242188 72.796875 70.242188 73.707031 69.195312 74.5625 C 68.148438 75.421875 67.066406 76.226562 65.941406 76.976562 C 64.816406 77.730469 63.65625 78.421875 62.464844 79.0625 C 61.269531 79.699219 60.050781 80.277344 58.800781 80.792969 C 57.550781 81.3125 56.277344 81.765625 54.984375 82.160156 C 53.691406 82.550781 52.378906 82.878906 51.054688 83.144531 C 49.726562 83.40625 48.390625 83.605469 47.046875 83.738281 C 45.699219 83.871094 44.351562 83.9375 42.996094 83.9375 C 41.644531 83.9375 40.296875 83.871094 38.949219 83.738281 C 37.601562 83.605469 36.265625 83.40625 34.941406 83.144531 C 33.613281 82.878906 32.304688 82.550781 31.007812 82.160156 C 29.714844 81.765625 28.441406 81.3125 27.195312 80.792969 C 25.945312 80.277344 24.722656 79.699219 23.53125 79.0625 C 22.335938 78.421875 21.179688 77.730469 20.054688 76.976562 C 18.929688 76.226562 17.84375 75.421875 16.800781 74.5625 C 15.753906 73.707031 14.753906 72.796875 13.796875 71.84375 C 12.839844 70.886719 11.933594 69.882812 11.074219 68.839844 C 10.214844 67.792969 9.410156 66.707031 8.660156 65.585938 C 7.910156 64.460938 7.214844 63.300781 6.578125 62.109375 C 5.9375 60.914062 5.363281 59.695312 4.84375 58.445312 C 4.328125 57.195312 3.871094 55.921875 3.480469 54.628906 C 3.085938 53.335938 2.757812 52.023438 2.496094 50.699219 C 2.230469 49.371094 2.03125 48.035156 1.898438 46.6875 C 1.765625 45.34375 1.699219 43.992188 1.699219 42.640625 C 1.699219 41.289062 1.765625 39.9375 1.898438 38.59375 C 2.03125 37.246094 2.230469 35.910156 2.496094 34.585938 C 2.757812 33.257812 3.085938 31.949219 3.480469 30.652344 C 3.871094 29.359375 4.328125 28.085938 4.84375 26.835938 C 5.363281 25.589844 5.9375 24.367188 6.578125 23.175781 C 7.214844 21.980469 7.910156 20.824219 8.660156 19.699219 C 9.410156 18.574219 10.214844 17.488281 11.074219 16.441406 C 11.933594 15.398438 12.839844 14.394531 13.796875 13.441406 C 14.753906 12.484375 15.753906 11.578125 16.800781 10.71875 C 17.84375 9.859375 18.929688 9.054688 20.054688 8.304688 C 21.179688 7.554688 22.335938 6.859375 23.53125 6.222656 C 24.722656 5.582031 25.945312 5.003906 27.195312 4.488281 C 28.441406 3.96875 29.714844 3.515625 31.007812 3.121094 C 32.304688 2.730469 33.613281 2.402344 34.941406 2.136719 C 36.265625 1.875 37.601562 1.675781 38.949219 1.542969 C 40.296875 1.410156 41.644531 1.34375 42.996094 1.34375 C 44.351562 1.34375 45.699219 1.410156 47.046875 1.542969 C 48.390625 1.675781 49.726562 1.875 51.054688 2.136719 C 52.378906 2.402344 53.691406 2.730469 54.984375 3.121094 C 56.277344 3.515625 57.550781 3.96875 58.800781 4.488281 C 60.050781 5.003906 61.269531 5.582031 62.464844 6.222656 C 63.65625 6.859375 64.816406 7.554688 65.941406 8.304688 C 67.066406 9.054688 68.148438 9.859375 69.195312 10.71875 C 70.242188 11.578125 71.242188 12.484375 72.199219 13.441406 C 73.15625 14.394531 74.0625 15.398438 74.917969 16.441406 C 75.777344 17.488281 76.582031 18.574219 77.332031 19.699219 C 78.085938 20.824219 78.78125 21.980469 79.417969 23.175781 C 80.054688 24.367188 80.632812 25.589844 81.148438 26.835938 C 81.667969 28.085938 82.121094 29.359375 82.515625 30.652344 C 82.90625 31.949219 83.234375 33.257812 83.5 34.585938 C 83.765625 35.910156 83.960938 37.246094 84.09375 38.59375 C 84.226562 39.9375 84.292969 41.289062 84.292969 42.640625 Z M 84.292969 42.640625 "/><path style=" stroke:none;fill-rule:nonzero;fill:#600909;fill-opacity:1;" d="M 150.996094 1.34375 C 115.632812 1.34375 87.003906 29.972656 87.003906 65.332031 L 87.003906 150.648438 C 87.003906 162.453125 96.53125 171.976562 108.332031 171.976562 C 120.132812 171.976562 129.65625 162.453125 129.65625 150.648438 L 129.65625 125.667969 C 136.296875 128.03125 143.5 129.3125 150.984375 129.3125 C 186.347656 129.3125 214.972656 100.6875 214.972656 65.324219 C 214.972656 29.960938 186.347656 1.332031 150.984375 1.332031 Z M 150.996094 86.660156 C 139.191406 86.660156 129.667969 77.136719 129.667969 65.332031 C 129.667969 53.53125 139.191406 44.007812 150.996094 44.007812 C 162.796875 44.007812 172.320312 53.53125 172.320312 65.332031 C 172.320312 77.136719 162.796875 86.660156 150.996094 86.660156 Z M 150.996094 86.660156 "/><path style=" stroke:none;fill-rule:nonzero;fill:#600909;fill-opacity:1;" d="M 214.984375 150.636719 C 214.984375 151.335938 214.949219 152.035156 214.882812 152.730469 C 214.8125 153.425781 214.710938 154.113281 214.574219 154.800781 C 214.4375 155.484375 214.269531 156.160156 214.066406 156.828125 C 213.863281 157.496094 213.628906 158.15625 213.359375 158.800781 C 213.09375 159.445312 212.796875 160.074219 212.464844 160.691406 C 212.136719 161.308594 211.777344 161.90625 211.390625 162.488281 C 211 163.066406 210.585938 163.628906 210.144531 164.167969 C 209.699219 164.707031 209.230469 165.222656 208.738281 165.71875 C 208.242188 166.210938 207.726562 166.679688 207.1875 167.125 C 206.648438 167.566406 206.085938 167.984375 205.507812 168.371094 C 204.925781 168.757812 204.328125 169.117188 203.710938 169.445312 C 203.09375 169.777344 202.464844 170.074219 201.820312 170.339844 C 201.171875 170.609375 200.515625 170.84375 199.847656 171.046875 C 199.179688 171.25 198.503906 171.417969 197.820312 171.554688 C 197.132812 171.691406 196.441406 171.792969 195.75 171.863281 C 195.054688 171.929688 194.355469 171.964844 193.65625 171.964844 C 192.960938 171.964844 192.261719 171.929688 191.566406 171.863281 C 190.871094 171.792969 190.183594 171.691406 189.496094 171.554688 C 188.8125 171.417969 188.136719 171.25 187.46875 171.046875 C 186.800781 170.84375 186.140625 170.609375 185.496094 170.339844 C 184.851562 170.074219 184.222656 169.777344 183.605469 169.445312 C 182.988281 169.117188 182.390625 168.757812 181.808594 168.371094 C 181.230469 167.984375 180.667969 167.566406 180.128906 167.125 C 179.589844 166.679688 179.070312 166.210938 178.578125 165.71875 C 178.085938 165.222656 177.617188 164.707031 177.171875 164.167969 C 176.730469 163.628906 176.3125 163.066406 175.925781 162.488281 C 175.539062 161.90625 175.179688 161.308594 174.851562 160.691406 C 174.519531 160.074219 174.222656 159.445312 173.953125 158.800781 C 173.6875 158.15625 173.453125 157.496094 173.25 156.828125 C 173.046875 156.160156 172.878906 155.484375 172.742188 154.800781 C 172.605469 154.113281 172.503906 153.425781 172.433594 152.730469 C 172.367188 152.035156 172.332031 151.335938 172.332031 150.636719 C 172.332031 149.941406 172.367188 149.242188 172.433594 148.546875 C 172.503906 147.851562 172.605469 147.164062 172.742188 146.476562 C 172.878906 145.792969 173.046875 145.117188 173.25 144.449219 C 173.453125 143.78125 173.6875 143.121094 173.953125 142.476562 C 174.222656 141.832031 174.519531 141.203125 174.851562 140.585938 C 175.179688 139.96875 175.539062 139.371094 175.925781 138.789062 C 176.3125 138.210938 176.730469 137.648438 177.171875 137.109375 C 177.617188 136.570312 178.085938 136.050781 178.578125 135.558594 C 179.070312 135.066406 179.589844 134.597656 180.128906 134.152344 C 180.667969 133.710938 181.230469 133.292969 181.808594 132.90625 C 182.390625 132.519531 182.988281 132.160156 183.605469 131.832031 C 184.222656 131.5 184.851562 131.203125 185.496094 130.9375 C 186.140625 130.667969 186.800781 130.433594 187.46875 130.230469 C 188.136719 130.027344 188.8125 129.859375 189.496094 129.722656 C 190.183594 129.585938 190.871094 129.484375 191.566406 129.414062 C 192.261719 129.347656 192.960938 129.3125 193.65625 129.3125 C 194.355469 129.3125 195.054688 129.347656 195.75 129.414062 C 196.441406 129.484375 197.132812 129.585938 197.820312 129.722656 C 198.503906 129.859375 199.179688 130.027344 199.847656 130.230469 C 200.515625 130.433594 201.171875 130.667969 201.820312 130.9375 C 202.464844 131.203125 203.09375 131.5 203.710938 131.832031 C 204.328125 132.160156 204.925781 132.519531 205.507812 132.90625 C 206.085938 133.292969 206.648438 133.710938 207.1875 134.152344 C 207.726562 134.597656 208.242188 135.066406 208.738281 135.558594 C 209.230469 136.050781 209.699219 136.570312 210.144531 137.109375 C 210.585938 137.648438 211.003906 138.210938 211.390625 138.789062 C 211.777344 139.371094 212.136719 139.96875 212.464844 140.585938 C 212.796875 141.203125 213.09375 141.832031 213.359375 142.476562 C 213.628906 143.121094 213.863281 143.78125 214.066406 144.449219 C 214.269531 145.117188 214.4375 145.792969 214.574219 146.476562 C 214.710938 147.164062 214.8125 147.851562 214.882812 148.546875 C 214.949219 149.242188 214.984375 149.941406 214.984375 150.636719 Z M 214.984375 150.636719 "/><path style=" stroke:none;fill-rule:nonzero;fill:#980a14;fill-opacity:1;" d="M 87.015625 90.304688 L 87.015625 150.636719 C 87.015625 162.441406 96.539062 171.964844 108.34375 171.964844 C 120.144531 171.964844 129.667969 162.441406 129.667969 150.636719 C 129.667969 122.769531 111.890625 99.070312 87.015625 90.304688 Z M 87.015625 90.304688 "/><g style="fill:#600909;fill-opacity:1;"><g transform="translate(276.662847, 91.118451)"><path style="stroke:none" d="M 34.609375 -45.671875 L 25.71875 0 L 14.3125 0 L 23.203125 -45.671875 L 5.609375 -45.671875 L 7.3125 -54.484375 L 53.9375 -54.484375 L 52.234375 -45.671875 Z M 34.609375 -45.671875 "/></g></g><g style="fill:#600909;fill-opacity:1;"><g transform="translate(325.028063, 91.118451)"><path style="stroke:none" d="M 36.96875 0 L 41.53125 -23.359375 L 17.328125 -23.359375 L 12.765625 0 L 1.390625 0 L 11.953125 -54.484375 L 23.359375 -54.484375 L 19.140625 -32.78125 L 43.34375 -32.78125 L 47.5625 -54.484375 L 58.546875 -54.484375 L 47.953125 0 Z M 36.96875 0 "/></g></g><g style="fill:#600909;fill-opacity:1;"><g transform="translate(382.208041, 91.118451)"><path style="stroke:none" d="M 1.390625 0 L 11.953125 -54.484375 L 54.796875 -54.484375 L 53.09375 -45.671875 L 21.65625 -45.671875 L 18.984375 -31.984375 L 48.0625 -31.984375 L 46.359375 -23.15625 L 17.28125 -23.15625 L 14.5 -8.8125 L 47.515625 -8.8125 L 45.78125 0 Z M 1.390625 0 "/></g></g><g style="fill:#600909;fill-opacity:1;"><g transform="translate(435.019299, 91.118451)"><path style="stroke:none" d=""/></g></g><g style="fill:#600909;fill-opacity:1;"><g transform="translate(457.017547, 91.118451)"><path style="stroke:none" d="M 11.984375 -54.484375 L 34.5625 -54.484375 C 41.03125 -54.484375 45.925781 -53.414062 49.25 -51.28125 C 52.582031 -49.15625 54.25 -46.019531 54.25 -41.875 C 54.25 -38.34375 53.1875 -35.445312 51.0625 -33.1875 C 48.9375 -30.9375 45.820312 -29.382812 41.71875 -28.53125 C 45.226562 -27.9375 47.96875 -26.578125 49.9375 -24.453125 C 51.90625 -22.328125 52.890625 -19.734375 52.890625 -16.671875 C 52.890625 -11.222656 50.875 -7.082031 46.84375 -4.25 C 42.8125 -1.414062 36.75 0 28.65625 0 L 1.390625 0 Z M 19.09375 -32.515625 L 30.46875 -32.515625 C 34.976562 -32.515625 38.179688 -33.109375 40.078125 -34.296875 C 41.972656 -35.484375 42.921875 -37.429688 42.921875 -40.140625 C 42.921875 -42.203125 42.1875 -43.695312 40.71875 -44.625 C 39.25 -45.550781 36.785156 -46.015625 33.328125 -46.015625 L 21.6875 -46.015625 Z M 14.421875 -8.46875 L 27.109375 -8.46875 C 32.492188 -8.46875 36.226562 -9.117188 38.3125 -10.421875 C 40.40625 -11.722656 41.453125 -13.878906 41.453125 -16.890625 C 41.453125 -19.210938 40.570312 -20.992188 38.8125 -22.234375 C 37.0625 -23.472656 34.203125 -24.09375 30.234375 -24.09375 L 17.484375 -24.09375 Z M 14.421875 -8.46875 "/></g></g><g style="fill:#600909;fill-opacity:1;"><g transform="translate(514.197526, 91.118451)"><path style="stroke:none" d="M 1.390625 0 L 11.953125 -54.484375 L 23.359375 -54.484375 L 14.5 -8.8125 L 43.734375 -8.8125 L 41.984375 0 Z M 1.390625 0 "/></g></g><g style="fill:#600909;fill-opacity:1;"><g transform="translate(562.562753, 91.118451)"><path style="stroke:none" d="M 35.875 -55.296875 C 43.425781 -55.296875 49.378906 -53.289062 53.734375 -49.28125 C 58.097656 -45.269531 60.28125 -39.8125 60.28125 -32.90625 C 60.28125 -26.539062 58.921875 -20.734375 56.203125 -15.484375 C 53.484375 -10.234375 49.6875 -6.210938 44.8125 -3.421875 C 39.9375 -0.628906 34.367188 0.765625 28.109375 0.765625 C 23.128906 0.765625 18.800781 -0.160156 15.125 -2.015625 C 11.457031 -3.867188 8.660156 -6.53125 6.734375 -10 C 4.816406 -13.46875 3.859375 -17.519531 3.859375 -22.15625 C 3.859375 -28.207031 5.21875 -33.859375 7.9375 -39.109375 C 10.664062 -44.359375 14.4375 -48.367188 19.25 -51.140625 C 24.070312 -53.910156 29.613281 -55.296875 35.875 -55.296875 Z M 35.34375 -46.28125 C 31.164062 -46.28125 27.609375 -45.3125 24.671875 -43.375 C 21.734375 -41.445312 19.460938 -38.535156 17.859375 -34.640625 C 16.265625 -30.753906 15.46875 -26.695312 15.46875 -22.46875 C 15.46875 -17.71875 16.625 -14.148438 18.9375 -11.765625 C 21.257812 -9.390625 24.5 -8.203125 28.65625 -8.203125 C 32.800781 -8.203125 36.34375 -9.164062 39.28125 -11.09375 C 42.21875 -13.03125 44.492188 -15.90625 46.109375 -19.71875 C 47.722656 -23.53125 48.53125 -27.617188 48.53125 -31.984375 C 48.53125 -36.515625 47.398438 -40.03125 45.140625 -42.53125 C 42.890625 -45.03125 39.625 -46.28125 35.34375 -46.28125 Z M 35.34375 -46.28125 "/></g></g><g style="fill:#600909;fill-opacity:1;"><g transform="translate(624.150102, 91.118451)"><path style="stroke:none" d="M 35.875 -55.296875 C 43.425781 -55.296875 49.378906 -53.289062 53.734375 -49.28125 C 58.097656 -45.269531 60.28125 -39.8125 60.28125 -32.90625 C 60.28125 -26.539062 58.921875 -20.734375 56.203125 -15.484375 C 53.484375 -10.234375 49.6875 -6.210938 44.8125 -3.421875 C 39.9375 -0.628906 34.367188 0.765625 28.109375 0.765625 C 23.128906 0.765625 18.800781 -0.160156 15.125 -2.015625 C 11.457031 -3.867188 8.660156 -6.53125 6.734375 -10 C 4.816406 -13.46875 3.859375 -17.519531 3.859375 -22.15625 C 3.859375 -28.207031 5.21875 -33.859375 7.9375 -39.109375 C 10.664062 -44.359375 14.4375 -48.367188 19.25 -51.140625 C 24.070312 -53.910156 29.613281 -55.296875 35.875 -55.296875 Z M 35.34375 -46.28125 C 31.164062 -46.28125 27.609375 -45.3125 24.671875 -43.375 C 21.734375 -41.445312 19.460938 -38.535156 17.859375 -34.640625 C 16.265625 -30.753906 15.46875 -26.695312 15.46875 -22.46875 C 15.46875 -17.71875 16.625 -14.148438 18.9375 -11.765625 C 21.257812 -9.390625 24.5 -8.203125 28.65625 -8.203125 C 32.800781 -8.203125 36.34375 -9.164062 39.28125 -11.09375 C 42.21875 -13.03125 44.492188 -15.90625 46.109375 -19.71875 C 47.722656 -23.53125 48.53125 -27.617188 48.53125 -31.984375 C 48.53125 -36.515625 47.398438 -40.03125 45.140625 -42.53125 C 42.890625 -45.03125 39.625 -46.28125 35.34375 -46.28125 Z M 35.34375 -46.28125 "/></g></g><g style="fill:#600909;fill-opacity:1;"><g transform="translate(685.737451, 91.118451)"><path style="stroke:none" d="M 28.375 -54.484375 C 36.957031 -54.484375 43.53125 -52.484375 48.09375 -48.484375 C 52.65625 -44.492188 54.9375 -38.734375 54.9375 -31.203125 C 54.9375 -25.117188 53.660156 -19.742188 51.109375 -15.078125 C 48.554688 -10.410156 44.859375 -6.726562 40.015625 -4.03125 C 35.171875 -1.34375 29.742188 0 23.734375 0 L 1.390625 0 L 11.984375 -54.484375 Z M 14.5 -8.8125 L 23.390625 -8.8125 C 27.515625 -8.8125 31.164062 -9.691406 34.34375 -11.453125 C 37.53125 -13.222656 39.976562 -15.769531 41.6875 -19.09375 C 43.40625 -22.425781 44.265625 -26.296875 44.265625 -30.703125 C 44.265625 -35.578125 42.90625 -39.289062 40.1875 -41.84375 C 37.46875 -44.394531 33.554688 -45.671875 28.453125 -45.671875 L 21.65625 -45.671875 Z M 14.5 -8.8125 "/></g></g><g style="fill:#600909;fill-opacity:1;"><g transform="translate(276.662847, 178.973248)"><path style="stroke:none" d=""/></g></g><g style="fill:#600909;fill-opacity:1;"><g transform="translate(298.661095, 178.973248)"><path style="stroke:none" d="M 39.046875 0 L 30.15625 -20.640625 L 16.78125 -20.640625 L 12.796875 0 L 1.390625 0 L 11.984375 -54.484375 L 37.15625 -54.484375 C 41.257812 -54.484375 44.769531 -53.847656 47.6875 -52.578125 C 50.613281 -51.316406 52.835938 -49.515625 54.359375 -47.171875 C 55.878906 -44.828125 56.640625 -42.066406 56.640625 -38.890625 C 56.640625 -34.640625 55.238281 -31.03125 52.4375 -28.0625 C 49.644531 -25.101562 45.851562 -23.265625 41.0625 -22.546875 L 51.65625 0 Z M 33.71875 -29.546875 C 37.457031 -29.546875 40.285156 -30.296875 42.203125 -31.796875 C 44.117188 -33.304688 45.078125 -35.453125 45.078125 -38.234375 C 45.078125 -40.640625 44.257812 -42.472656 42.625 -43.734375 C 40.988281 -44.992188 38.691406 -45.625 35.734375 -45.625 L 21.65625 -45.625 L 18.515625 -29.546875 Z M 33.71875 -29.546875 "/></g></g><g style="fill:#600909;fill-opacity:1;"><g transform="translate(355.841074, 178.973248)"><path style="stroke:none" d="M 26.609375 -8.15625 C 30.859375 -8.15625 34.082031 -9.132812 36.28125 -11.09375 C 38.488281 -13.050781 40.03125 -16.328125 40.90625 -20.921875 L 47.40625 -54.484375 L 58.8125 -54.484375 L 52.203125 -20.5 C 50.785156 -13.25 47.945312 -7.890625 43.6875 -4.421875 C 39.4375 -0.960938 33.535156 0.765625 25.984375 0.765625 C 19.179688 0.765625 13.914062 -0.742188 10.1875 -3.765625 C 6.457031 -6.796875 4.59375 -11.097656 4.59375 -16.671875 C 4.59375 -17.796875 4.691406 -19.148438 4.890625 -20.734375 C 5.085938 -22.328125 5.285156 -23.597656 5.484375 -24.546875 L 11.21875 -54.484375 L 22.625 -54.484375 L 16.703125 -23.15625 C 16.234375 -20.914062 16 -18.703125 16 -16.515625 C 16 -13.859375 16.941406 -11.800781 18.828125 -10.34375 C 20.710938 -8.882812 23.304688 -8.15625 26.609375 -8.15625 Z M 26.609375 -8.15625 "/></g></g><g style="fill:#600909;fill-opacity:1;"><g transform="translate(413.021052, 178.973248)"><path style="stroke:none" d="M 34.1875 0 L 19.71875 -43.734375 C 19.125 -39.554688 18.632812 -36.472656 18.25 -34.484375 L 11.515625 0 L 1.390625 0 L 11.984375 -54.484375 L 25.515625 -54.484375 L 40.09375 -10.359375 L 40.5625 -13.53125 C 40.84375 -15.675781 41.21875 -17.921875 41.6875 -20.265625 L 48.40625 -54.484375 L 58.546875 -54.484375 L 47.953125 0 Z M 34.1875 0 "/></g></g><g style="fill:#600909;fill-opacity:1;"><g transform="translate(470.201031, 178.973248)"><path style="stroke:none" d=""/></g></g><g style="fill:#600909;fill-opacity:1;"><g transform="translate(492.19929, 178.973248)"><path style="stroke:none" d="M -1.234375 0 L 0.1875 -7.546875 C 1.457031 -9.734375 2.914062 -11.738281 4.5625 -13.5625 C 6.207031 -15.394531 8.003906 -17.144531 9.953125 -18.8125 C 11.898438 -20.476562 15.207031 -22.929688 19.875 -26.171875 C 23.6875 -28.859375 26.285156 -30.894531 27.671875 -32.28125 C 29.066406 -33.675781 30.144531 -35.09375 30.90625 -36.53125 C 31.664062 -37.976562 32.046875 -39.503906 32.046875 -41.109375 C 32.046875 -44.785156 29.960938 -46.625 25.796875 -46.625 C 23.523438 -46.625 21.691406 -46.054688 20.296875 -44.921875 C 18.910156 -43.796875 17.867188 -41.992188 17.171875 -39.515625 L 6.875 -41.796875 C 8.25 -46.410156 10.582031 -49.8125 13.875 -52 C 17.175781 -54.195312 21.40625 -55.296875 26.5625 -55.296875 C 31.976562 -55.296875 36.109375 -54.164062 38.953125 -51.90625 C 41.804688 -49.65625 43.234375 -46.3125 43.234375 -41.875 C 43.234375 -39.394531 42.691406 -37.035156 41.609375 -34.796875 C 40.523438 -32.554688 38.894531 -30.382812 36.71875 -28.28125 C 34.539062 -26.175781 31.015625 -23.488281 26.140625 -20.21875 C 22.734375 -17.90625 20.019531 -15.867188 18 -14.109375 C 15.976562 -12.359375 14.398438 -10.632812 13.265625 -8.9375 L 38.546875 -8.9375 L 36.84375 0 Z M -1.234375 0 "/></g></g><g style="fill:#600909;fill-opacity:1;"><g transform="translate(536.234435, 178.973248)"><path style="stroke:none" d="M 28 -55.296875 C 38.175781 -55.296875 43.265625 -49.289062 43.265625 -37.28125 C 43.265625 -34.3125 42.773438 -30.457031 41.796875 -25.71875 C 38.085938 -8.0625 30.316406 0.765625 18.484375 0.765625 C 13.328125 0.765625 9.503906 -0.742188 7.015625 -3.765625 C 4.523438 -6.796875 3.28125 -11.390625 3.28125 -17.546875 C 3.28125 -21.128906 3.851562 -25.5625 5 -30.84375 C 6.15625 -36.132812 7.75 -40.597656 9.78125 -44.234375 C 11.820312 -47.867188 14.335938 -50.617188 17.328125 -52.484375 C 20.316406 -54.359375 23.875 -55.296875 28 -55.296875 Z M 19.21875 -7.765625 C 22.226562 -7.765625 24.640625 -9.148438 26.453125 -11.921875 C 28.273438 -14.691406 29.773438 -19.15625 30.953125 -25.3125 C 32.128906 -31.476562 32.71875 -35.632812 32.71875 -37.78125 C 32.71875 -43.78125 30.753906 -46.78125 26.828125 -46.78125 C 24.617188 -46.78125 22.820312 -46.175781 21.4375 -44.96875 C 20.0625 -43.757812 18.890625 -41.804688 17.921875 -39.109375 C 16.953125 -36.410156 16.03125 -32.425781 15.15625 -27.15625 C 14.28125 -21.882812 13.84375 -18.179688 13.84375 -16.046875 C 13.84375 -10.523438 15.632812 -7.765625 19.21875 -7.765625 Z M 19.21875 -7.765625 "/></g></g><g style="fill:#600909;fill-opacity:1;"><g transform="translate(580.26958, 178.973248)"><path style="stroke:none" d="M -1.234375 0 L 0.1875 -7.546875 C 1.457031 -9.734375 2.914062 -11.738281 4.5625 -13.5625 C 6.207031 -15.394531 8.003906 -17.144531 9.953125 -18.8125 C 11.898438 -20.476562 15.207031 -22.929688 19.875 -26.171875 C 23.6875 -28.859375 26.285156 -30.894531 27.671875 -32.28125 C 29.066406 -33.675781 30.144531 -35.09375 30.90625 -36.53125 C 31.664062 -37.976562 32.046875 -39.503906 32.046875 -41.109375 C 32.046875 -44.785156 29.960938 -46.625 25.796875 -46.625 C 23.523438 -46.625 21.691406 -46.054688 20.296875 -44.921875 C 18.910156 -43.796875 17.867188 -41.992188 17.171875 -39.515625 L 6.875 -41.796875 C 8.25 -46.410156 10.582031 -49.8125 13.875 -52 C 17.175781 -54.195312 21.40625 -55.296875 26.5625 -55.296875 C 31.976562 -55.296875 36.109375 -54.164062 38.953125 -51.90625 C 41.804688 -49.65625 43.234375 -46.3125 43.234375 -41.875 C 43.234375 -39.394531 42.691406 -37.035156 41.609375 -34.796875 C 40.523438 -32.554688 38.894531 -30.382812 36.71875 -28.28125 C 34.539062 -26.175781 31.015625 -23.488281 26.140625 -20.21875 C 22.734375 -17.90625 20.019531 -15.867188 18 -14.109375 C 15.976562 -12.359375 14.398438 -10.632812 13.265625 -8.9375 L 38.546875 -8.9375 L 36.84375 0 Z M -1.234375 0 "/></g></g><g style="fill:#600909;fill-opacity:1;"><g transform="translate(624.304747, 178.973248)"><path style="stroke:none" d="M 12.21875 -54.484375 L 44.96875 -54.484375 L 43.3125 -45.546875 L 20.34375 -45.546875 L 16.96875 -32.640625 C 17.4375 -33.046875 17.984375 -33.453125 18.609375 -33.859375 C 19.242188 -34.273438 19.960938 -34.648438 20.765625 -34.984375 C 21.566406 -35.328125 22.46875 -35.597656 23.46875 -35.796875 C 24.476562 -36.003906 25.597656 -36.109375 26.828125 -36.109375 C 31.140625 -36.109375 34.601562 -34.648438 37.21875 -31.734375 C 39.832031 -28.828125 41.140625 -24.925781 41.140625 -20.03125 C 41.140625 -15.875 40.226562 -12.21875 38.40625 -9.0625 C 36.59375 -5.90625 33.984375 -3.476562 30.578125 -1.78125 C 27.179688 -0.0820312 23.253906 0.765625 18.796875 0.765625 C 13.660156 0.765625 9.550781 -0.375 6.46875 -2.65625 C 3.394531 -4.9375 1.492188 -8.289062 0.765625 -12.71875 L 11.71875 -14.46875 C 12.175781 -12.0625 13.015625 -10.375 14.234375 -9.40625 C 15.460938 -8.445312 17.289062 -7.96875 19.71875 -7.96875 C 22.9375 -7.96875 25.46875 -8.953125 27.3125 -10.921875 C 29.15625 -12.890625 30.078125 -15.515625 30.078125 -18.796875 C 30.078125 -21.492188 29.4375 -23.59375 28.15625 -25.09375 C 26.882812 -26.59375 25.09375 -27.34375 22.78125 -27.34375 C 19.601562 -27.34375 17 -26.164062 14.96875 -23.8125 L 4.375 -23.8125 Z M 12.21875 -54.484375 "/></g></g></g></svg>